<svg xmlns="http://www.w3.org/2000/svg" xmlns:xlink="http://www.w3.org/1999/xlink" enable-background="new 0 0 1700 1100" viewBox="0 0 1700 1100" width="550" height="550"><path fill="#ecf9ff" fill-rule="evenodd" d="M805.88 149.1c-73.97 25.13-144.28 78.94-199.67 129.11-115.33 104.47-132.54 126.44-274.82 214.15-82.92 51.12-148.3 94.35-180.52 152.18-90.48 162.43 17.3 337.86 243.14 337.86h918.09s107.99 2.23 186.8-84.59C1766 603.57 1322.99-26.61 805.88 149.1" clip-rule="evenodd" class="colorecf4ff svgShape"></path><path fill="#032e42" fill-rule="evenodd" d="M165.87 976.32h1366.26c1.93 0 3.52 1.57 3.52 3.5 0 1.92-1.59 3.5-3.52 3.5H165.87c-1.94 0-3.52-1.57-3.52-3.5 0-1.92 1.58-3.5 3.52-3.5" clip-rule="evenodd" class="color031542 svgShape"></path><path fill="#27779d" fill-rule="evenodd" d="M937.13 731.86c-24.35 53.44-54.55 114.68-124.24 125.06-56.54 8.42-139.27-97.98-147.39-115.35-8.14-17.36 22.76-62.69 32.73-57.45 9.97 5.25 91.91 68.52 99.39 68.04 8.74-.56 38.58-95.46 92.72-126.69 8.44-4.87 57.27 83.4 46.79 106.39" clip-rule="evenodd" class="color27489d svgShape"></path><path fill="#2c4f60" fill-rule="evenodd" d="M923.97 431.85c14.49 105.71-56.55 138.33 13 236.1 0 0 42.6-46.89 60.85-50.2 18.24-3.31 20.67-60.68 20.67-63.62 0-2.94-16.24-117.3-16.24-117.3l-78.28-4.98z" clip-rule="evenodd" class="color602d2c svgShape"></path><path fill="#27779d" fill-rule="evenodd" d="M1072.09 600.05c34.38 0 68.93 17.45 83.98 39.89 22.12 32.98-34.15 171.29-22.72 336.38h-282.6c-11.89-99.84-12.39-190.13 13.65-328.07 36.02-56.69 152.31-48.2 207.69-48.2" clip-rule="evenodd" class="color27489d svgShape"></path><path fill="#13435a" fill-rule="evenodd" d="M1147.13 768.23c-2.1 12.81-4.21 26.33-6.16 40.45-10.31 8.96-23.72 19.03-26.22 18.75-2.52-.28-59.18-2.38-59.18-2.38s47.95-27.04 46.93-53.23c-1.01-26.19-4.78-71.63-4.78-71.63s41.86 40.17 43.23 45.28c.63 2.37 3.49 12.25 6.18 22.76m-11.42 84.87a896.61 896.61 0 0 0-2.58 32.99c-13.18 4.43-31.14 9.2-50.51 10.72-39.12 3.06-71.85-7.09-71.77-8.84l99.31-35.71 25.55.84z" clip-rule="evenodd" class="color263d88 svgShape"></path><path fill="#ffffff" fill-rule="evenodd" d="M963.18 602.63c-33.2 19.17-68.11 206.58-44.63 373.69h123.4c-25.67-177.05 12.68-335 27.82-376.27-34.72-2.29-64.06-4.04-106.59 2.58" clip-rule="evenodd" class="colorfff svgShape"></path><path fill="#c7c8c8" fill-rule="evenodd" d="M1034.25 894.58c-.22-4.98-.4-9.92-.55-14.83l-22.86 8.21c-.02.92 9.06 4.18 23.41 6.62" clip-rule="evenodd" class="colorc8c7c8 svgShape"></path><path fill="#cce9f7" fill-rule="evenodd" d="M941.9 561.73c10.88 13.07 23.43 23.62 36.34 26.48v14.07l-2.5 3.39c-9.2 15.99-4.2 48.11 11.03 55.94 23.81-8.55 56.05-29.62 62.51-59.22l-4.25-3.94-5.79-4.06-2.84-35.08c1.79-.53 13.29-11.14 16.96-13.28 3.66-2.13 7.69-11.08 6.19-19.2-1.48-8.11-13.27-2.63-13.27-2.63 10.24-24.06 23.33-44.81-3.04-58.18-26.35-13.37-79.54-12.37-79.54-12.37l-32.95-3.47c6.33 9.62 5.25 41.62 2.53 65.36-2.46 21.32-6 28.64 8.62 46.19" clip-rule="evenodd" class="colorf7cccf svgShape"></path><path fill="#82c6e7" fill-rule="evenodd" d="M1022.99 566.89c-7.81 25.38-15.76 42.18-44.75 45.39v-24.07c10.14-.71 23.56-4.13 44.75-21.32" clip-rule="evenodd" class="colore78284 svgShape"></path><path fill="#27779d" fill-rule="evenodd" d="M1093.61 690.4c-12.55-25.84-10.15-48.98 13.92-65.04 24.1-16.06 44.63 3.53 57.18 29.37 24.65 50.71 42.69 163.77 16.61 195.96-15.88 19.59-92.81 33.57-138.03 37.84-15.48 1.45-33.63 1.76-37.97.57-15.75-4.34-24.95-37.87-17.55-51.61 2.89-5.35 19.95-7.21 26.56-8.51 32.19-6.33 87.25-26.5 96.59-31.52 17.03-9.18-8.49-88.94-17.31-107.06" clip-rule="evenodd" class="color27489d svgShape"></path><path fill="#ffffff" fill-rule="evenodd" d="M1002.92 840.53c12.98 4.18 31.97 46 2.33 43.6-12.03-.97-15.71-.38-15.71-.38-15.06-10.79-18.1-27.31-17.55-39.2l30.93-4.02zM695.4 690.27c2.62 16.4-12.68 42.86-24.3 47.55-1.3-2.31-9.07-12.32-14.21-20.01-11.06-16.52 15.04-51.06 22.69-43.4l15.82 15.86z" clip-rule="evenodd" class="colorfff svgShape"></path><path fill="#cce9f7" fill-rule="evenodd" d="M664.64 664.32c-1.63-7.54-8.48-37.33-14.04-42.33-2.83-2.56-3.51-1.4-4.77.23-1.09 1.41-2.03 5.28-1.72 7.91.65 5.53 1.08 10.56 1.92 13.54-16.81-8.79-32.91-29.42-45.19-43.54-5-5.74-12.93-5.12-8.14 5.12 3.93 8.37 19.46 27.14 19.46 27.14l-21.22-13.68c-5.89-3.19-5.85 4.06-3.05 7.1 4.62 4.99 18.79 18.33 18.79 18.33l-15.46-5.63c-5.92-2.15-2.83 5.13-1.26 6.41 3.62 2.94 16.47 11.13 16.47 11.13l-7.1-2.34c-8.03-2.66-2.16 7.68.17 8.41.49.15 28.25 17.74 33.08 20.63 12.07 7.24 17.79 19.2 26.34 29.25 4.64-3.55 16.3-17.11 17.95-33.78l-12.23-13.9zm313.84 183.94L965.07 850l-27.32-10.25c-2.89-2.01-22.55-10.66-18.36-2.85 2.95 5.48 13.3 15.54 12.92 16.01-5.09 6.18-45.29 9.34-45.78 9.89-6.95 7.71 18.7 7.21 23.05 7.31 1.14.03-17.58 4.29-16.92 5.16.79 1.05 2.77 3.92 7.58 3.92 5.89.01 15.98-1.62 16.96-.59 1.02 1.08-17.17 5.07-16.14 6 .79.71 2.36 2.23 6.05 2.13 6.11-.17 15.33-2.25 16.67-1.41 1.36.87-11.82 2.96-10.5 3.64 1.03.54.95 2.56 2.07 2.62 30.3 1.63 32.67-13.63 67.31-10.82 19.25 1.55 1.77-28.37-4.18-32.5" clip-rule="evenodd" class="colorf7cccf svgShape"></path><path fill="#ffffff" fill-rule="evenodd" d="M953.52 539.97c-3.56 5.7 5.89 14.12 11.09 15.46 12.13 3.12 25.59-1.22 27.04-14.12-6.13-1.6-16.01 2.16-26.24.64-7.83-1.16-11.89-1.98-11.89-1.98" clip-rule="evenodd" class="colorfff svgShape"></path><path fill="#86cff2" fill-rule="evenodd" d="M1073.45 480.02c7.57 0 13.7 7.65 13.7 17.09s-6.13 17.09-13.7 17.09c-7.55 0-13.7-7.65-13.7-17.09s6.15-17.09 13.7-17.09" clip-rule="evenodd" class="colorf286a1 svgShape"></path><defs><path id="a" d="M1071.82 607.34c-1.88-.24-3.81-.48-5.78-.74h-.01c-.73-.1-1.47-.19-2.22-.29h-.01c-1.07-.14-2.15-.29-3.24-.44l-1.03-.14h-.03l-1.01-.14v-.01h-.04l-1-.14h-.02l-1.02-.15h-.01c-.97-.14-1.96-.29-2.96-.44h-.01c-.63-.1-1.27-.2-1.91-.3h-.01c-.73-.11-1.46-.23-2.2-.35-7.79-7.2-7.16-5.97-10.06-8-.62-7.62-1.48-15.65-2.1-22.68v-.08h-.01c-.05-.54-.1-1.08-.14-1.61v-.02l-.15-1.76v-.02c-.05-.64-.1-1.28-.15-1.89v-.03c-.05-.72-.1-1.43-.15-2.11v-.11h-.01c-.06-.9-.1-1.77-.14-2.59v-.07c-.05-1.14-.08-2.21-.09-3.2 0 0 16.69-11.74 15.87-25.37-.21-3.44-.6-5.99-1.11-7.87v-.01c-1.5-5.57-3.95-5.32-5.11-5.07-.83.17-3.75 1.73-6.29 3.14-.86.48-1.68.94-2.37 1.33h-.01l-1.03.59h-.01l-.77.45c-3.17-17.7-2.44-52.98-26.61-54.94 0 0-5.82 1.34-14.83 2.65h-.01c-3.63.53-7.78 1.05-12.28 1.48h-.01c-1.09.1-2.21.2-3.34.3h-.07v.01c-2.15.17-4.37.32-6.63.44h-.03c-1.14.06-2.29.11-3.45.15h-.11c-4.15.14-8.43.16-12.74 0h-.11c-1-.04-2-.08-3-.14v-.01h-.16c-1.33-.08-2.66-.17-3.99-.28v-.01h-.15c-.99-.09-1.98-.19-2.97-.29h-.02c-1.53-.17-3.05-.36-4.57-.59v-.01h-.04c-1.18-.18-2.35-.37-3.52-.59v-.01h-.04a84.15 84.15 0 0 1-4.25-.88v-.01h-.06c-1.18-.27-2.34-.57-3.5-.89h-.01c-.35-.1-.69-.19-1.03-.29h-.01c-.49-.14-.98-.29-1.47-.44h-.01c-.15-.05-.29-.09-.44-.14v-.01H926l-.42-.14v-.01h-.04c-.13-.04-.27-.09-.41-.13v-.02h-.05c-.13-.04-.26-.09-.39-.13v-.02h-.04c-.13-.05-.27-.09-.4-.14v-.01h-.02c-.54-.19-1.08-.38-1.61-.58v-.01h-.02l-.72-.27v-.02h-.06c-.23-.09-.46-.18-.68-.27v-.02h-.06c-.23-.09-.46-.19-.68-.28v-.01h-.03c-1-.42-1.98-.87-2.94-1.33l-.3-.15h-.01c-.1-.05-.19-.09-.29-.14v-.01h-.01c-.19-.1-.39-.2-.58-.3-.45-.23-.89-.47-1.33-.71v-.03h-.05c-.08-.05-.16-.1-.24-.14v-.01h-.01c-.43-.24-.86-.49-1.29-.75a36.43 36.43 0 0 1-2.85-2.19v-.03h-.03c-.4-.34-.78-.68-1.16-1.03l-.14-.14v-.01h-.01c-.56-.52-1.1-1.07-1.62-1.62v-.01h-.01c-.84-.9-1.63-1.84-2.36-2.81v-.01a34.456 34.456 0 0 1-4.14-7.11c-.58-1.34-1.07-2.71-1.48-4.11v-.03h-.01c-.16-.54-.3-1.08-.43-1.63-.24-1.01-.44-2.03-.59-3.06v-.05h-.01c-.12-.83-.22-1.68-.29-2.52v-.14h-.01c-.18-2.37-.13-4.8.16-7.26v-.01c.08-.68.18-1.37.29-2.06v-.01c.12-.74.27-1.47.44-2.21h.01v-.02c.04-.19.08-.38.13-.57h.02v-.07c.17-.72.37-1.43.58-2.15h.01v-.04c.26-.88.56-1.75.88-2.63h.01v-.02c.27-.73.57-1.47.88-2.2h.01v-.01c.32-.74.66-1.47 1.02-2.21h.01v-.03c.04-.09.09-.18.13-.27h.02v-.03l.13-.26h.01v-.03c.05-.09.1-.18.14-.27h.01v-.01c.28-.54.57-1.08.88-1.62h.01v-.02c.42-.74.86-1.47 1.33-2.2v-.01c.09-.15.18-.29.28-.44h.02v-.03c.51-.79 1.05-1.57 1.62-2.34h.01v-.01l.43-.58h.01v-.02c.52-.69 1.06-1.38 1.62-2.06h.01v-.01c.24-.29.49-.59.74-.88.38-.45.77-.89 1.18-1.33h.01v-.01l.13-.14h.02v-.02c1.19-1.3 2.48-2.58 3.84-3.83h.01v-.01c.48-.44.98-.88 1.48-1.32.57-.5 1.16-.99 1.76-1.48h.02v-.01c.67-.55 1.37-1.08 2.07-1.62.2-.15.39-.3.59-.44.44-.33.89-.65 1.35-.97.53-.37 1.06-.74 1.61-1.1h.01v-.01c.14-.1.29-.19.43-.29h.01v-.01c1.01-.66 2.05-1.3 3.1-1.92h.01v-.01c.25-.14.49-.29.74-.44.09-.05.18-.1.26-.15h.03v-.02c.34-.19.69-.38 1.04-.57.92-.51 1.86-1 2.81-1.48.92-.46 1.86-.9 2.8-1.33h.01v-.01c.43-.2.87-.39 1.31-.59h.02v-.01c.34-.15.68-.29 1.02-.43h.02v-.01c.59-.25 1.18-.49 1.78-.73.38-.15.77-.3 1.15-.44h.03v-.01c.25-.09.49-.19.73-.28h.01l.39-.15h.05v-.02c1.11-.41 2.23-.79 3.37-1.17h.04v-.01c.14-.04.27-.09.41-.13h.03v-.01c.14-.04.28-.09.41-.14h.03v-.01l.44-.14c.48-.15.97-.3 1.46-.44h.02v-.01c.68-.2 1.36-.4 2.05-.59h.02v-.01c.17-.05.34-.1.51-.14h.08v-.02c.54-.15 1.08-.28 1.62-.42h.01l.58-.15h.01c.83-.2 1.66-.4 2.49-.59h.02v-.01c.21-.05.41-.1.62-.14h.12v-.03c.19-.04.39-.08.59-.12h.01c.24-.05.48-.1.71-.15h.03v-.01c1.01-.21 2.03-.4 3.05-.59h.06v-.01c.25-.05.5-.09.76-.14h.13v-.02c.88-.15 1.77-.29 2.65-.42h.01c.7-.1 1.4-.2 2.1-.29h.12v-.02c.36-.05.73-.09 1.09-.13h.1v-.01c.85-.1 1.71-.2 2.57-.28h.1v-.01c.47-.05.94-.1 1.41-.14h.22v-.02c1.29-.11 2.59-.2 3.89-.28h.25V380c.98-.05 1.97-.1 2.95-.13h.16v-.01c2.85-.09 5.72-.1 8.59-.02v.02h.64c1.02.04 2.04.08 3.06.14v.01h.11c.66.04 1.31.07 1.96.12v.03h.33c1.13.08 2.25.18 3.38.3h.01c.44.04.88.09 1.32.13v.01h.14c.4.04.8.09 1.19.14v.01h.06c.77.09 1.54.19 2.31.29h.02c.34.05.68.1 1.02.14h.03l.86.12v.03h.18c.29.04.57.09.86.14v.01h.05c.87.14 1.74.29 2.61.44h.01c.24.04.49.09.73.13v.01h.08c1.46.27 2.92.57 4.37.89.2.04.39.09.59.13v.01h.06c.42.1.85.19 1.27.29v.01h.04c.19.04.37.09.56.14v.01h.04c.18.04.37.09.55.14v.01h.04c1.13.28 2.25.57 3.36.88v.01h.03c.34.09.67.19 1.01.28v.01h.05c.33.1.66.19.99.29h.01c.49.15.98.29 1.47.44h.01c.14.04.29.09.43.14v.01h.03c1.89.59 3.75 1.23 5.6 1.91v.01h.03c.38.14.77.28 1.15.43v.02h.05l.69.27v.02h.06c1.08.42 2.15.86 3.2 1.31v.02h.05c.23.1.46.19.69.29h.01l.29.12v.02h.05c.43.19.85.39 1.28.58v.01h.03c.64.29 1.27.59 1.9.89l.29.14v.01h.01l.28.14v.01h.02l.27.13v.02h.03c.09.04.18.08.26.13v.02h.04c.08.04.17.08.25.12v.02h.05c.08.04.17.09.25.13v.02h.04c.09.04.17.09.26.13v.02h.03l.27.14v.01h.02l.28.14v.01h.01l.28.15c.65.34 1.29.68 1.92 1.03v.01h.02c.34.19.68.37 1.02.56v.03h.06l.24.13v.01h.02l.72.42v.03h.04l.25.15c.5.29.99.58 1.48.88v.01h.01c.39.24.78.48 1.17.73v.01h.02c.14.09.28.17.42.26v.04h.06c.53.34 1.05.69 1.57 1.03.15.1.3.19.44.29h.01c.5.34.99.68 1.47 1.02v.01h.02l.58.4v.04h.06l.39.28v.02h.02l.57.42v.02h.03c.59.44 1.17.88 1.75 1.33.25.19.49.39.74.59v.01h.01l.14.11v.04h.05c.18.15.37.29.55.43v.01h.01l.14.11v.03h.04c.24.19.47.4.7.59l.15.12v.02h.03c.8.67 1.58 1.36 2.34 2.06v.01h.01l.13.12v.03h.03l.12.11v.04h.05l.1.09v.06h.06c1.31 1.22 2.57 2.49 3.79 3.79v.06h.05l.1.11v.04h.04l.11.12v.03h.03l.12.13v.01h.01c.45.49.89.98 1.32 1.48v.01c.25.29.49.58.74.87v.02h.02c.19.23.39.45.57.68v.06h.05c.03.04.06.08.1.12v.03h.02l.57.72v.02h.01l.58.73v.01h.01c.15.19.29.38.44.57v.02h.01c.15.19.29.39.43.59v.01l.29.4v.05h.03c.14.19.28.37.41.56v.03h.02l.27.39v.05h.04c.09.13.17.26.26.38v.06h.04c.14.2.27.4.4.59.1.14.2.29.3.43v.01h.01c.06.09.13.18.19.27l.1.16v.01h.01c.24.38.49.76.74 1.16v.02h.02c.14.23.29.47.43.7v.04h.02c.29.48.58.97.87 1.48.25.43.49.86.74 1.31v.02h.01l.14.25v.05h.03c.24.43.48.88.71 1.33v.01c.88 1.67 1.77 3.44 2.66 5.31v.03h.01l.14.29v.01h.01c.34.72.69 1.45 1.03 2.2v.02h.01c.24.53.49 1.06.73 1.6v.03h.01c.24.54.49 1.08.73 1.63.34.78.69 1.56 1.04 2.36v.01l.44 1.02v.02h.01l.44 1.02v.01h.01l.44 1.03c.25.58.49 1.17.74 1.76v.02h.01c.24.58.49 1.17.73 1.77v.01c.34.83.69 1.67 1.03 2.52l.3.73v.01l.29.72v.02h.01c.88 2.17 1.77 4.4 2.66 6.65v.02h.01l.29.73v.01c.64 1.61 1.28 3.24 1.92 4.88v.01c2.37 6.03 4.78 12.22 7.26 18.37 2.15 5.33 4.34 10.63 6.58 15.75 12.63 28.85 34.62 43.62 55.64 58.47 2.09 1.47 4.16 2.95 6.22 4.44v.01h.01c2.35 1.7 4.67 3.42 6.96 5.18.45.34.89.69 1.33 1.03v.01h.01c.25.19.49.39.73.58v.01h.01c1.04.83 2.08 1.66 3.1 2.51v.01h.01c.29.24.58.49.88.73v.01h.01c.69.58 1.38 1.17 2.07 1.77v.01h.01c.44.39.89.77 1.33 1.17v.02h.02l.13.12v.03h.04c.49.44.97.88 1.45 1.33v.01h.01c1.93 1.8 3.81 3.66 5.62 5.6v.03h.03l.12.12v.03h.02l.12.13v.02h.02c.04.05.09.09.13.14v.01h.01c.45.49.89.98 1.33 1.48.55.62 1.09 1.25 1.63 1.89v.04h.03l.12.14v.01h.01c.19.23.39.46.58.7v.05h.04l.11.14v.01h.01c.2.24.39.49.59.74l.59.74c.3.38.59.78.89 1.17v.02h.01c.14.19.29.38.43.58v.02h.01c.14.19.29.38.43.58v.01h.01l.29.4v.05h.03c.14.19.27.39.41.59l.29.42v.02h.02c.5.72.99 1.44 1.46 2.18v.04h.03c.09.14.18.28.27.41v.03h.02c.09.14.19.28.28.43v.02h.01c.04.07.09.14.14.21v.09h.05c.08.13.16.27.24.41v.04h.02c.14.23.28.47.42.7v.04h.03c.55.91 1.08 1.84 1.6 2.79v.03h.02l.13.24v.06h.03c.04.07.08.14.11.21v.09h.05c.23.44.46.88.69 1.33v.01l.15.28v.01h.01l.14.28v.02h.01c.05.09.09.18.14.27v.03h.01c.2.39.39.78.58 1.18v.01c.2.42.4.84.59 1.26v.07h.03c.04.08.08.16.11.24v.05h.02c.04.09.08.18.12.26v.03h.01c.1.21.19.43.28.64v.1h.04c.04.08.07.17.11.25v.04h.02c.14.33.29.66.43 1v.04h.02c.3.72.59 1.44.87 2.18v.04h.02c.09.24.19.48.28.73v.01h.01c.05.12.1.25.14.37v.07h.03c.04.11.08.21.12.31v.1h.05c.09.24.17.49.25.73v.01c.05.14.1.28.14.42v.03h.01l.14.4v.04h.01c.25.73.49 1.47.73 2.22.1.32.2.64.3.97v.07h.02c.04.14.09.28.13.41v.03h.01c.04.15.09.3.14.45v.14h.04c.04.13.07.26.11.39v.05h.01c.05.16.09.34.13.5v.09h.02l.27 1.01v.04h.01c.2.77.4 1.56.59 2.35v.02h.01c.05.2.1.41.14.61v.13h.03l.12.51v.08h.02c.04.19.09.37.13.55v.19h.04c.04.18.07.36.11.54v.21h.04c.04.18.07.36.11.54v.05h.01c.05.23.09.46.14.7v.04h.01c.05.24.09.47.14.71v.04h.01c.1.54.19 1.09.29 1.64v.13h.02c.04.25.08.51.13.76v.13h.02c.04.26.09.51.13.77v.26h.04c.04.23.07.47.1.7v.34h.04c.04.26.07.52.1.78v.11h.01c.05.33.09.66.13 1v.04c.11.83.2 1.68.29 2.53v.28h.03l.12 1.17v.46h.05c.04.4.07.82.1 1.23v.4h.03l.12 1.63v.14h.01c.02.29.05.58.06.88.05.8-.16 1.27-.59 1.49h-.08v.03c-.16.07-.35.11-.56.11h-.23c-.78-.03-1.86-.36-3.21-.89h-.01c-4.42-1.72-11.77-5.53-21.18-7.94.36.47.71.94 1.04 1.41v.01c.47.68.92 1.36 1.33 2.06v.02h.01c.37.63.71 1.26 1.03 1.9v.03h.01c.04.09.09.17.13.26v.03h.02c.05.09.09.19.13.28v.02h.01c.21.44.4.88.58 1.32v.01h.01c.1.24.2.48.29.72v.02h.01c.34.87.63 1.75.88 2.63v.04h.01c.16.57.31 1.15.43 1.72v.07h.01c.17.78.32 1.55.43 2.33v.04h.01c.05.36.1.73.14 1.09v.09h.01c.06.51.1 1.03.14 1.54v.24h.02c.09 1.53.08 3.06-.01 4.59h-.01v.2c-.04.58-.09 1.15-.15 1.73v.02c-.04.39-.09.78-.14 1.17h-.01v.07c-.08.62-.18 1.24-.28 1.85h-.01v.07c-.21 1.17-.45 2.34-.74 3.49v.01l-.15.59c-.64 2.49-1.45 4.92-2.37 7.26-.1.25-.19.49-.29.74h-.01v.01c-.24.6-.49 1.18-.74 1.77a90.054 90.054 0 0 1-3.25 6.67h-.01v.01c-1.4 2.58-2.82 4.92-4.15 6.95-.41.62-.8 1.21-1.18 1.77a92.589 92.589 0 0 1-3.55 4.88c-.23.29-.43.55-.59.75-32.95-81.91-53.46-81.88-106.21-88.45l-1.07-.14z"></path></defs><clipPath id="b"><use overflow="visible" xlink:href="#a"></use></clipPath><linearGradient id="c" x1="1057.047" x2="1057.047" y1="690.932" y2="412.835" gradientUnits="userSpaceOnUse"><stop offset="0" stop-color="#152e3a" class="stopColor3a1515 svgShape"></stop><stop offset="1" stop-color="#517a8e" class="stopColor8e5151 svgShape"></stop></linearGradient><path fill="url(#c)" d="M898.02 379.69h318.06v316.24H898.02z" clip-path="url(#b)"></path><path fill="#27779d" fill-rule="evenodd" d="M1071.67 470.64c15.32 8.35 21.14 31.41 13.01 51.49-8.13 20.09-27.14 29.6-42.46 21.25-15.32-8.35-21.14-31.41-13.01-51.49 8.14-20.09 27.15-29.6 42.46-21.25" clip-rule="evenodd" class="color27489d svgShape"></path><path fill="#4da8d3" fill-rule="evenodd" d="M1077.14 473.11c15.32 8.35 21.14 31.41 13.01 51.49-8.13 20.09-27.14 29.6-42.46 21.25-15.32-8.35-21.14-31.41-12.99-51.49 5.33-13.22 15.41-21.86 26.03-23.84h-.01l-3.6-2.75c1.44-44.78-34.26-89.16-87.61-87.31 30.34-19.24 99.67 10.28 102.17 90.18l-1.17-.01c2.26.48 4.48 1.3 6.63 2.48" clip-rule="evenodd" class="color4d99d3 svgShape"></path><path fill="#27779d" d="M999.14 565.56c22.11-5.53 33.38-17.69 39.35-25.06l-1.69-3.97c-9.87 11.67-20.96 21.97-38.66 24.88-.38-.27-1.56-1.3-2-1.57-.85-.51-1.91-.93-3.5-.86-2.43.11-6.07 3.07-5.91 6.49.16 3.43 3.17 6.07 6.49 5.92 3.32-.15 5.74-2.7 5.92-5.83" class="color27489d svgShape"></path><path fill="#a2e1ff" fill-rule="evenodd" d="m835.39 417.57-9.48-6.37-16.69-11.22h-8.23c-.58 0-1.16-.01-1.74-.03v-.01h-.38c-.82-.03-1.63-.07-2.44-.13v-.02h-.21c-.92-.07-1.84-.17-2.75-.28v-.02h-.13c-.95-.12-1.9-.27-2.84-.43v-.01h-.07c-.97-.17-1.94-.37-2.89-.59h-.01c-.2-.05-.39-.1-.59-.14v-.01h-.02a39.3 39.3 0 0 1-1.16-.29h-.01c-2.17-.57-4.29-1.26-6.36-2.06v-.01h-.03c-.24-.09-.48-.19-.71-.28v-.01h-.03a58.548 58.548 0 0 1-8.56-4.3c-.4-.24-.79-.49-1.19-.74l-.44-.29v-.01h-.01c-.8-.52-1.59-1.06-2.36-1.62v-.01h-.01c-.6-.43-1.19-.88-1.77-1.33h-.01c-.25-.19-.49-.39-.74-.59h-.01c-.65-.53-1.29-1.06-1.92-1.62v-.01h-.01c-.55-.48-1.09-.97-1.62-1.47v-.01h-.01c-.05-.04-.09-.09-.14-.13v-.02h-.02c-.65-.62-1.29-1.26-1.91-1.91v-.02h-.02l-.13-.13v-.01h-.01c-.05-.05-.09-.1-.13-.14-.5-.53-1-1.07-1.48-1.62-.3-.34-.59-.69-.88-1.03a61.22 61.22 0 0 1-2.96-3.84v-.02h-.01c-.61-.87-1.2-1.75-1.77-2.65v-.02h-.01c-.45-.72-.9-1.45-1.32-2.2v-.03h-.01c-.85-1.49-1.63-3.02-2.36-4.58v-.01h-.01c-.47-1.02-.91-2.05-1.33-3.1v-.01a58.37 58.37 0 0 1-1.63-4.72v-.02c-.1-.33-.2-.67-.29-1v-.03h-.01c-.27-.96-.51-1.93-.73-2.91v-.05h-.01c-.22-.97-.41-1.96-.58-2.95v-.01l-.15-.88v-.01l-.15-1.02v-.01l-.15-1.15v-.04c-.27-2.3-.41-4.63-.41-7v-26.97c0-1.23.04-2.45.12-3.66v-.05c.04-.63.09-1.25.14-1.87v-.05c.17-1.79.41-3.55.73-5.29h.01v-.03c.17-.93.37-1.86.58-2.78h.01v-.03c.14-.59.29-1.17.44-1.75v-.01c.09-.34.19-.69.28-1.03h.01v-.04c.23-.78.47-1.56.73-2.33h.02v-.05l.14-.4h.01v-.03c.05-.14.1-.27.14-.41v-.01c.28-.79.57-1.58.89-2.36.28-.7.57-1.39.88-2.07h.01v-.03c.28-.64.58-1.27.89-1.9l.15-.29v-.01l.14-.29v-.01c.05-.1.09-.19.14-.29v-.01c.51-1 1.05-1.99 1.62-2.95h.01v-.02c.29-.49.58-.98.88-1.46v-.01c.66-1.06 1.35-2.09 2.07-3.1.43-.6.87-1.19 1.32-1.77h.01v-.02c.62-.8 1.26-1.59 1.91-2.35h.01v-.01c2-2.33 4.17-4.51 6.5-6.5h.01v-.01c.77-.66 1.55-1.29 2.35-1.91h.02v-.01c.58-.45 1.17-.89 1.77-1.32h.01c1.01-.72 2.05-1.41 3.1-2.07h.01v-.01c.48-.3.97-.6 1.46-.88h.02v-.01c.97-.57 1.95-1.11 2.95-1.62h.01v-.01c.1-.05.19-.09.29-.14h.01l.29-.14h.01l.29-.15c.1-.05.2-.1.29-.15.53-.25 1.06-.5 1.6-.74h.03v-.01c.68-.3 1.37-.6 2.07-.87h.01c.78-.31 1.56-.61 2.36-.89h.01v-.01c.14-.05.27-.1.41-.14h.04v-.01c.13-.04.26-.09.39-.13h.05v-.02c.44-.15.88-.29 1.33-.43l.99-.3h.04v-.01c.34-.1.68-.19 1.02-.28h.01c.58-.15 1.16-.3 1.74-.44h.04v-.01c.92-.22 1.84-.41 2.77-.58h.04v-.01a60.5 60.5 0 0 1 5.26-.73h.07v-.01c.61-.06 1.22-.1 1.83-.14h.09v-.01c1.21-.07 2.43-.12 3.66-.12h40.02c1.25 0 2.49.04 3.72.12h.04c.63.04 1.26.09 1.88.15h.02c.44.04.88.09 1.31.14v.01h.08c.37.04.74.09 1.1.14v.01h.05c.63.09 1.25.18 1.87.29v.01h.05c.53.09 1.06.19 1.58.29h.02c.89.18 1.77.38 2.64.59 1.55.39 3.09.83 4.59 1.33.95.32 1.89.66 2.81 1.02v.01h.04c.24.09.47.19.7.29v.01h.02c.69.28 1.37.57 2.05.88v.01h.02c1.41.64 2.78 1.33 4.13 2.07.35.19.69.38 1.04.58v.01h.02c.9.52 1.78 1.06 2.65 1.63l.44.29v.01h.01c.65.43 1.29.87 1.92 1.33v.01h.01c.6.43 1.19.87 1.77 1.32v.01h.01c.85.67 1.69 1.35 2.5 2.06v.01h.01c.5.43.98.88 1.47 1.32v.01h.01c1.07 1 2.11 2.03 3.1 3.1v.01h.01c.45.48.89.97 1.33 1.47v.01h.01c.5.58.99 1.17 1.47 1.77v.01c.5.63 1 1.27 1.48 1.92v.01h.01c.25.34.49.67.73 1.02v.02h.01c.61.87 1.2 1.75 1.76 2.65v.02h.01c.46.73.9 1.46 1.32 2.21v.01h.01c.25.44.49.88.73 1.33l.15.28v.02h.01a60.17 60.17 0 0 1 1.91 3.98v.02h.01c.15.34.29.68.44 1.02v.01h.01c.1.24.2.47.29.71v.03h.01c.1.24.19.49.28.74.2.54.4 1.07.59 1.62v.01c.05.14.1.27.14.41v.04h.01c.05.14.09.27.13.41v.04h.01c.05.14.09.28.14.42v.03h.01c.2.63.4 1.27.58 1.91v.02c.33 1.16.62 2.33.88 3.51v.04h.01c.16.72.3 1.44.44 2.16v.06h.01c.17.92.31 1.86.43 2.8v.02c.12.91.22 1.83.29 2.76v.06c.06.73.11 1.47.14 2.21v.16h.01c.04.87.06 1.74.06 2.62v26.97c0 .91-.02 1.8-.06 2.7v.08c-.03.72-.08 1.43-.14 2.14h-.01v.13c-.04.5-.09 1-.14 1.5v.03c-.04.39-.09.77-.14 1.16h-.01v.09c-.16 1.22-.36 2.42-.59 3.61v.02c-.13.69-.28 1.38-.43 2.06h-.01v.04a60.02 60.02 0 0 1-2.51 8.11h-.01v.02c-.09.24-.19.48-.29.72h-.01v.02c-.1.24-.19.48-.29.72-.19.45-.38.89-.58 1.33h-.01v.03c-.84 1.87-1.79 3.69-2.81 5.45v.01c-.92 1.58-1.9 3.11-2.96 4.59h-.01v.01a57.688 57.688 0 0 1-4.14 5.17v.01a58.888 58.888 0 0 1-4.74 4.74 56.73 56.73 0 0 1-3.39 2.81h-.01v.01c-.39.3-.78.59-1.17.88h-.01v.01c-.34.25-.68.49-1.02.73h-.01v.01c-.73.51-1.46 1-2.21 1.47h-.01v.01c-.72.46-1.45.9-2.19 1.33h-.03v.02c-1.58.91-3.2 1.74-4.87 2.5h-.02v.01c-1.54.7-3.12 1.34-4.73 1.92h-.01c-.14.05-.27.1-.41.14h-.04v.01c-1.07.37-2.14.71-3.24 1.02h-.02v.01c-1.16.33-2.35.62-3.54.88h-.02c-.47.1-.95.2-1.43.29h-.05v.01c-.24.05-.48.09-.72.14h-.02c-.29.05-.58.1-.88.15h-.01c-.66.11-1.33.21-2 .29h-.08v.01c-.93.12-1.86.21-2.8.29h-.16v.01c-.83.06-1.66.1-2.49.13h-.47v.02c-.55.02-1.09.02-1.64.02v21.36l-5.48-3.85z" clip-rule="evenodd" class="colora2caff svgShape"></path><path fill="#ffffff" fill-rule="evenodd" d="m790.64 349.29 2.91-12.87c-8.06-.45-14.12-8.28-14.12-16.1 0-4.79 1.74-8.8 5.19-12.05 3.49-3.23 7.79-4.86 12.93-4.86 4.99 0 9.16 1.65 12.56 4.91 12.32 11.83 5.85 38.28-19.47 40.97m44.19 0 2.91-12.87c-8.06-.45-14.13-8.28-14.13-16.1 0-4.79 1.75-8.8 5.2-12.05 3.49-3.23 7.78-4.86 12.93-4.86 4.98 0 9.16 1.65 12.55 4.91 12.33 11.83 5.85 38.28-19.46 40.97" clip-rule="evenodd" class="colorfff svgShape"></path><path fill="#80c8ea" fill-rule="evenodd" d="M1073.94 484.55c7.32-.11 13.39 8.51 13.55 19.26.16 10.75-5.63 19.56-12.96 19.67-7.32.11-13.39-8.51-13.55-19.26-.17-10.74 5.63-19.55 12.96-19.67" clip-rule="evenodd" class="color80c2ea svgShape"></path><path fill="#92cde9" fill-rule="evenodd" d="M856.76 891.58s7.55 10.47 9.27 24.52c1.73 14.06-1.47 21.37-1.47 21.37-37.07 2.97-111.5.17-111.35.16 2.51-.38-3.47-5.72 4.5-9.81 5.74-2.96 24.63-3.9 31.28-8.32 29.48-19.59 49.31-15.75 67.77-27.92" clip-rule="evenodd" class="colore99292 svgShape"></path><path fill="#419ac5" fill-rule="evenodd" d="m841.86 763.21-257.99 17.65c-10.23.69-20.66 8.6-18.65 18.65l31.72 158.16c2.03 10.06 8.4 18.64 18.65 18.64H881.6c10.26 0 20.91-8.64 18.66-18.64l-39.75-175.82c-2.25-10-8.42-19.34-18.65-18.64" clip-rule="evenodd" class="color4185c5 svgShape"></path><defs><path id="d" d="M598.82 975.61v-.01h-.04c-.29-.09-.57-.19-.85-.29v-.01h-.02c-.25-.09-.49-.19-.73-.29h-.01c-.4-.17-.8-.36-1.18-.57v-.02h-.04c-.09-.05-.17-.09-.26-.14v-.01h-.01c-.25-.14-.49-.29-.73-.44h-.01c-.15-.09-.29-.19-.44-.29v-.01h-.01c-.4-.28-.79-.57-1.17-.88v-.01h-.01c-.9-.74-1.74-1.58-2.51-2.5v-.02h-.02c-.35-.42-.69-.86-1.02-1.32v-.01h-.01c-.31-.43-.6-.87-.88-1.32v-.01h-.01c-.15-.24-.29-.49-.44-.73v-.01c-.48-.84-.93-1.72-1.33-2.63v-.03h-.01c-.32-.72-.61-1.45-.87-2.2v-.02h-.01c-.15-.43-.3-.87-.44-1.32v-.02h-.01c-.29-.92-.54-1.86-.75-2.81l-2.95-13.03-3.85-17.03-3.85-17.03-3.85-17.03-3.85-17.03-6.67-29.48-3.85-17.04-3.85-17.04-3.85-17.03-3.18-14.05c-.03-.13-.06-.26-.08-.39v-.07h-.01c-.06-.3-.1-.6-.13-.9v-.14h-.01c-.09-.85-.08-1.69.01-2.52h.01v-.05c.03-.28.07-.56.12-.84h.02v-.13c.04-.21.09-.41.14-.61h.01v-.05c.08-.33.18-.66.29-.99h.01v-.02c.33-.97.78-1.91 1.32-2.8h.01v-.02c.31-.5.65-.99 1.01-1.46h.02v-.03c.65-.83 1.39-1.61 2.2-2.34h.02v-.02l.15-.13c.61-.53 1.25-1.02 1.93-1.48.38-.26.77-.51 1.17-.74h.01v-.01c1.21-.71 2.5-1.31 3.83-1.77h.02v-.01c.14-.05.28-.1.42-.14h.02v-.01c.32-.1.65-.2.98-.29h.06v-.02c.17-.05.35-.09.52-.13h.07v-.02c.2-.05.39-.09.59-.13l.8-.15h.09v-.01c1.01-.16 2.02-.25 3.03-.25h266c1.02 0 2 .09 2.94.25v.01h.05c.44.08.86.17 1.28.28v.01h.05c.59.16 1.17.35 1.73.57v.02h.05c.33.14.66.28.99.44v.01h.01c.1.05.19.09.28.14v.01h.02c.09.05.19.1.28.15 1 .54 1.94 1.18 2.81 1.92v.01h.01c.79.66 1.53 1.4 2.21 2.2v.02h.02c.52.61 1.01 1.25 1.46 1.92v.01h.01c1.41 2.07 2.54 4.43 3.4 6.96.05.15.1.29.15.44.35 1.07.65 2.17.9 3.28L888.3 957.7l.09.42v.02c.06.32.11.65.14.97v.07h.01c.09.85.08 1.7-.01 2.52-.03.3-.07.59-.13.88h-.02v.12c-.04.21-.09.42-.14.62h-.01v.04c-.08.34-.18.67-.29 1h-.01v.02c-.2.6-.45 1.19-.74 1.76-.18.35-.37.7-.58 1.04h-.02v.03c-.89 1.46-2.05 2.8-3.39 3.97h-.01v.01c-.29.25-.58.49-.89.73-.33.26-.67.5-1.02.74h-.02v.01c-.14.1-.29.19-.43.28h-.01v.01c-.23.15-.47.29-.71.44h-.03v.02c-1.07.63-2.21 1.17-3.39 1.61h-.02v.01c-.13.05-.26.1-.39.14h-.06v.02c-1.1.38-2.24.68-3.38.87h-.02c-.34.06-.68.1-1.02.14h-.02c-.72.08-1.43.13-2.15.13h-266c-1.69-.02-3.31-.26-4.81-.73"></path></defs><clipPath id="e"><use overflow="visible" xlink:href="#d"></use></clipPath><linearGradient id="f" x1="735.271" x2="680.431" y1="985.467" y2="641.82" gradientUnits="userSpaceOnUse"><stop offset="0" stop-color="#4c9ec5" class="stopColor4c86c5 svgShape"></stop><stop offset="1" stop-color="#ffffff" class="stopColorfff svgShape"></stop></linearGradient><path fill="url(#f)" d="M544.95 763.21h343.72v213.11H544.95z" clip-path="url(#e)"></path><path fill="#eff5f8" fill-rule="evenodd" d="M711.19 852.31c-8.04 2.58-12.04 12.49-8.94 22.14 3.1 9.65 12.13 15.37 20.17 12.79 8.04-2.58 12.04-12.5 8.94-22.14-3.1-9.66-12.13-15.38-20.17-12.79" clip-rule="evenodd" class="coloreff5f8 svgShape"></path><path fill="#419ac5" fill-rule="evenodd" d="M1026.48 958.9H891.4l-9.79 17.42h153.57v-8.7c.01-4.8-3.92-8.72-8.7-8.72" clip-rule="evenodd" class="color4185c5 svgShape"></path><path fill="#42c0fd" fill-rule="evenodd" d="m1163.89 392.38 4.25-5.16c1.78-2.16 1.94-5.26.33-7.54-3.1-4.43-5.6-9.18-7.47-14.13a6.245 6.245 0 0 0-6.43-3.97l-6.68.62c-3.45.33-6.53-2.2-6.86-5.66l-1.21-12.77c-.31-3.46 2.22-6.53 5.67-6.86l6.68-.63c2.8-.27 5.08-2.35 5.57-5.11.9-5.22 2.47-10.35 4.7-15.28 1.16-2.56.41-5.56-1.75-7.34l-5.15-4.27c-2.7-2.21-3.05-6.18-.84-8.86l8.18-9.88c2.21-2.68 6.18-3.05 8.86-.84l5.16 4.27c2.16 1.78 5.26 1.94 7.54.34 4.43-3.11 9.18-5.6 14.12-7.48 2.64-1 4.24-3.64 3.97-6.43l-.62-6.67a6.278 6.278 0 0 1 5.67-6.85l12.77-1.22c3.45-.33 6.52 2.22 6.86 5.67l.62 6.67c.27 2.79 2.36 5.09 5.11 5.57a65.35 65.35 0 0 1 15.29 4.69c2.53 1.16 5.54.42 7.33-1.74l4.27-5.16a6.296 6.296 0 0 1 8.86-.84l9.9 8.18a6.295 6.295 0 0 1 .83 8.86l-4.27 5.16c-1.78 2.16-1.94 5.25-.33 7.55 3.11 4.42 5.58 9.17 7.47 14.11a6.252 6.252 0 0 0 6.43 3.98l6.68-.64a6.257 6.257 0 0 1 6.84 5.67l1.23 12.76c.33 3.46-2.22 6.53-5.69 6.86l-6.67.63c-2.8.27-5.08 2.35-5.55 5.12-.92 5.21-2.47 10.35-4.71 15.27-1.14 2.55-.41 5.57 1.75 7.35l5.16 4.27a6.26 6.26 0 0 1 .84 8.86l-8.16 9.89c-2.21 2.67-6.19 3.04-8.87.84l-5.16-4.27a6.26 6.26 0 0 0-7.56-.33 64.02 64.02 0 0 1-14.1 7.47c-2.62 1-4.24 3.64-3.97 6.43l.62 6.66c.33 3.46-2.21 6.54-5.67 6.86l-12.77 1.21c-3.45.33-6.52-2.21-6.86-5.67l-.62-6.67c-.27-2.79-2.34-5.08-5.11-5.57a63.986 63.986 0 0 1-15.27-4.69c-2.56-1.15-5.57-.42-7.35 1.74l-4.28 5.16c-2.21 2.68-6.18 3.06-8.84.84l-9.88-8.18a6.233 6.233 0 0 1-.86-8.85m60.42-68.43c-10.24-1.48-19.72 5.61-21.2 15.84-1.48 10.23 5.61 19.72 15.85 21.2 10.22 1.48 19.7-5.61 21.18-15.84 1.49-10.23-5.61-19.73-15.83-21.2zm-20.01 48.73c12.64 7.37 29.02 5.82 40.03-3.8 18.21-15.87 15.48-44.46-5.36-56.63-12.62-7.37-29.01-5.82-40.03 3.79-18.19 15.88-15.5 44.47 5.36 56.64z" clip-rule="evenodd" class="colorfdbe42 svgShape"></path><path fill="#a2e1ff" fill-rule="evenodd" d="M1078.25 224.63c-.24-.08-.49-.16-.73-.23h-.07v-.02c-.34-.1-.69-.19-1.03-.28h-.01c-.46-.11-.93-.21-1.39-.29h-.09v-.02c-.27-.05-.54-.09-.81-.13h-.08v-.01c-.4-.06-.8-.1-1.2-.14h-.28v-.02c-1.7-.13-3.38-.08-5.04.15v.02h-.15c-.55.08-1.09.17-1.63.29v.01h-.03c-.19.04-.37.08-.56.13v.02h-.08c-.52.13-1.04.27-1.55.43v.01h-.03c-.14.04-.27.09-.41.13v.02h-.04c-.13.05-.27.09-.4.14v.01h-.02c-.49.18-.98.37-1.46.58v.01h-.02l-.27.12v.03h-.06c-.58.27-1.16.56-1.72.87v.02h-.04l-.26.15c-.25.14-.5.29-.74.44-.15.09-.29.19-.44.28v.01h-.02c-.14.09-.28.19-.42.28v.01h-.02c-.35.24-.69.48-1.02.74-.25.19-.5.39-.74.59l-.15.12v.02h-.03a24.492 24.492 0 0 0-3.38 3.52v.03h-.03c-.3.38-.59.78-.86 1.18-.1.15-.2.29-.29.44-.15.23-.3.47-.44.71v.03h-.02c-.15.24-.29.49-.42.74l-.15.27v.03h-.01c-.05.08-.09.17-.13.26v.04h-.02l-.13.25v.05h-.02l-.13.25v.04h-.02l-.13.27v.03h-.03c-.05.1-.09.2-.14.3l-.3.69v.05h-.02c-.1.23-.19.47-.28.71v.03h-.01c-.1.28-.21.56-.3.85-.05.14-.09.28-.13.42v.06h-.02c-.04.15-.09.29-.13.44l-.15.54v.05h-.01c-.17.67-.32 1.34-.43 2.02v.06h-.01c-.15.88-.24 1.76-.29 2.64v.33h-.02c-.02.54-.02 1.09-.01 1.63h.02v.6c.03.49.07.98.13 1.47h.02v.19c.04.33.09.67.15 1v.01c.04.24.08.49.13.73h.02v.08c.05.22.09.44.14.66v.02c.05.19.09.39.14.58h.01v.02c.09.34.18.68.29 1.02h.01v.03c.04.14.09.28.13.42h.01v.04c.04.13.09.27.14.4h.01v.03c.14.39.28.78.44 1.16v.01l.12.29h.03v.06c.18.43.38.85.59 1.27.23.45.47.89.72 1.33h.02v.03c.23.39.47.78.72 1.15h.02v.04c.09.14.18.27.28.41h.02v.03c.46.66.95 1.29 1.47 1.9h.01v.01l.12.14h.03v.03c.93 1.06 1.95 2.04 3.06 2.93h.05v.04l.14.11h.01v.01c.19.15.38.3.58.44h.01v.01c.42.31.85.6 1.29.88h.05v.03c.14.09.29.18.43.27h.01v.01c.34.2.68.4 1.03.59h.01c.09.05.18.1.27.14h.02v.01c.09.05.18.09.26.14h.03v.02c.09.04.18.09.27.13h.03c.09.05.19.09.28.13h.01v.01c.33.15.66.3.99.44h.04v.02c.24.1.47.19.71.28h.03v.01c.3.11.6.22.9.32.29.09.57.18.86.26h.01c.17.05.35.1.52.14h.07v.02c.65.17 1.31.31 1.96.43h.11v.02c.29.05.58.09.87.13h.02c.48.06.97.11 1.45.15h.33v.02c.84.05 1.68.05 2.52 0v-.02h.39c.46-.03.93-.08 1.39-.13v-.01h.12c.31-.04.61-.09.92-.14v-.01h.04c.23-.04.47-.08.7-.13v-.02h.08c.22-.05.44-.09.66-.15l.59-.15c.5-.13.99-.28 1.48-.44h.01c.65-.22 1.29-.46 1.92-.74h.01c.1-.04.19-.08.29-.12v-.02h.05c.59-.26 1.16-.55 1.73-.86v-.02h.04c.08-.05.17-.09.25-.14v-.01h.01c.55-.32 1.09-.65 1.62-1.01v-.03h.04c.14-.09.27-.19.41-.28v-.01h.02c.45-.32.89-.66 1.32-1.01v-.02h.03c.34-.28.68-.58 1.01-.88v-.01h.01c.2-.18.39-.37.59-.56v-.03h.03l.12-.12v-.03h.03l.12-.12v-.03h.03l.12-.13v-.02h.02l.13-.14v-.01h.01c.05-.05.09-.1.14-.15.3-.33.6-.67.89-1.02v-.02h.01c.2-.24.39-.49.58-.74v-.01c.25-.34.5-.68.74-1.03v-.01c.1-.15.2-.29.29-.44.15-.24.3-.48.44-.72v-.02h.01c.26-.43.5-.87.73-1.32v-.01h.01c.05-.1.1-.19.14-.29v-.01c.05-.1.1-.2.14-.3.15-.33.3-.66.44-.99v-.04h.02c.1-.23.19-.46.28-.7v-.05h.02c.13-.34.25-.68.37-1.03.07-.22.14-.44.21-.67v-.08h.02c.04-.15.09-.29.13-.44v-.01c.05-.19.1-.38.15-.56v-.03h.01c.11-.45.21-.9.29-1.35v-.14h.02c.05-.25.09-.5.12-.75v-.14h.02c.05-.36.09-.72.13-1.08v-.25h.02c.15-1.8.1-3.59-.15-5.33h-.03v-.18c-.08-.54-.18-1.07-.29-1.6v-.02c-.04-.19-.09-.39-.13-.58h-.01v-.06c-.17-.68-.37-1.35-.59-2.01-.14-.4-.28-.79-.44-1.19v-.01c-.14-.35-.29-.69-.44-1.03v-.01c-.04-.1-.09-.19-.13-.29h-.01v-.03c-.14-.29-.28-.58-.43-.86h-.01v-.03l-.14-.27v-.01c-.36-.66-.74-1.3-1.16-1.92h-.02c-.09-.14-.19-.27-.28-.41h-.01v-.02c-.28-.4-.57-.79-.88-1.17h-.01v-.02c-.24-.3-.48-.59-.74-.87h-.01v-.01l-.12-.14h-.02v-.03c-.6-.67-1.24-1.3-1.92-1.9h-.01v-.01c-.28-.25-.57-.5-.87-.73h-.02v-.01c-.51-.41-1.04-.8-1.59-1.17h-.04v-.02c-.14-.09-.27-.18-.41-.27h-.03v-.02c-.15-.09-.29-.19-.44-.28-.34-.21-.68-.4-1.03-.59h-.01c-.09-.05-.18-.1-.28-.15h-.02v-.01c-.09-.05-.17-.09-.26-.14h-.03v-.02c-.09-.05-.18-.09-.27-.13h-.03v-.01c-.09-.04-.18-.09-.28-.13h-.02v-.01c-.32-.15-.65-.3-.98-.44h-.06v-.02l-.69-.27h-.05v-.02c-.33-.13-.66-.24-.99-.35m-36.12 57.09c14.31 12.12 35.35 13.8 51.4 4.11 26.5-15.99 29.43-52.7 5.82-72.71-14.33-12.11-35.35-13.8-51.4-4.11-18.22 11-25.31 31.78-20.28 50.2 2.29 8.38 7.08 16.26 14.46 22.51zm11.47 69.23v-.04h-.21c-.38-.07-.76-.17-1.12-.29v-.01h-.02c-.24-.08-.48-.18-.72-.28v-.01h-.03c-.19-.09-.38-.18-.56-.28v-.01h-.02c-.14-.08-.28-.16-.42-.25v-.04h-.07c-.4-.26-.77-.56-1.12-.88-.05-.05-.1-.09-.14-.14v-.01h-.01l-.14-.14v-.01h-.02c-.21-.22-.4-.45-.59-.69v-.05h-.04c-.26-.35-.5-.73-.7-1.13v-.06h-.03a5.92 5.92 0 0 1-.12-.25v-.05h-.02c-.04-.1-.08-.19-.12-.29v-.01c-.11-.28-.21-.57-.29-.86v-.03h-.01c-.05-.2-.1-.4-.14-.6v-.14h-.03c-.12-.66-.15-1.35-.09-2.06l.68-8.57c.28-3.58-1.84-6.94-5.21-8.17-.28-.1-.55-.2-.83-.3v-.01h-.02l-.72-.27V325h-.06l-.38-.15-.3-.12v-.03h-.08l-.36-.15h-.01l-.29-.12v-.03h-.08l-.66-.27v-.02h-.05c-.23-.1-.46-.19-.69-.29h-.01c-.44-.19-.88-.39-1.32-.58v-.01h-.02l-.28-.13v-.02h-.05l-.25-.11v-.03h-.07c-.52-.24-1.04-.49-1.55-.74l-.29-.14h-.01l-.29-.14v-.01h-.01l-.28-.14v-.01h-.01c-.19-.1-.39-.2-.58-.3-.55-.28-1.09-.57-1.63-.86v-.03h-.06l-.24-.13v-.02h-.03l-.27-.15c-.25-.14-.49-.27-.74-.41v-.03h-.06l-.24-.14v-.01h-.02c-.59-.34-1.18-.68-1.76-1.04l-.44-.27v-.03h-.04c-.23-.14-.47-.29-.7-.43v-.01h-.02l-.43-.27v-.02h-.04l-.41-.26v-.03h-.05c-.51-.33-1.01-.67-1.52-1.01-2.98-2.02-6.93-1.77-9.66.57l-6.55 5.57c-.28.24-.57.45-.87.65h-.02v.01c-.46.3-.94.54-1.44.73h-.04v.02c-.29.11-.59.21-.9.28h-.14v.03c-.2.05-.39.08-.59.11-.79.12-1.59.12-2.37.01v-.01h-.09c-.22-.03-.44-.08-.65-.13v-.02h-.08c-.17-.04-.34-.09-.51-.15h-.01c-.25-.08-.49-.17-.73-.28v-.02h-.05c-.29-.13-.57-.27-.84-.43v-.01h-.02c-.14-.09-.29-.18-.43-.27v-.02h-.03c-.19-.13-.38-.27-.56-.42v-.02h-.02l-.12-.11v-.04h-.05c-.28-.25-.55-.52-.8-.82l-10.67-12.52c-.12-.14-.23-.28-.34-.42v-.01h-.01c-.1-.14-.2-.27-.29-.41v-.03h-.02a7.81 7.81 0 0 1-.72-1.41v-.08h-.03c-.1-.27-.19-.55-.27-.84v-.05h-.01c-.05-.21-.1-.43-.13-.64v-.1h-.02c-.12-.79-.13-1.59-.01-2.37h.03v-.19c.04-.23.09-.47.15-.7.04-.15.08-.3.13-.44h.02v-.06c.04-.13.09-.26.14-.38h.01v-.03c.16-.4.34-.79.56-1.16h.03v-.05c.44-.73 1.01-1.41 1.69-1.99l6.54-5.57c2.73-2.33 3.62-6.21 2.09-9.45-.08-.18-.16-.35-.24-.53v-.04h-.02l-.13-.29v-.01c-.1-.22-.2-.44-.29-.66v-.08h-.04l-.11-.25v-.04h-.02c-.09-.21-.19-.43-.28-.64v-.1h-.04l-.11-.25v-.04h-.02c-.09-.22-.19-.45-.28-.67v-.07h-.03c-.3-.73-.58-1.46-.86-2.2v-.03h-.01l-.14-.37v-.07h-.03l-.12-.33v-.11h-.04c-.09-.24-.17-.48-.26-.72v-.03h-.01l-.14-.4v-.05h-.02l-.13-.39v-.06h-.02l-.13-.38v-.06h-.02c-.14-.44-.29-.87-.42-1.31v-.02h-.01c-.1-.31-.19-.63-.29-.94v-.1h-.03l-.12-.4v-.04h-.01l-.14-.47v-.13h-.04l-.11-.4v-.05h-.01l-.13-.49v-.1h-.03l-.42-1.59v-.04h-.01l-.14-.57v-.03h-.01c-.05-.2-.1-.4-.14-.6v-.14h-.03l-.11-.5v-.09h-.02l-.13-.58v-.16h-.04l-.11-.53v-.06h-.01c-.05-.22-.09-.45-.14-.67v-.07h-.01l-.11-.57a8.012 8.012 0 0 0-7.24-6.44l-8.56-.7c-.28-.02-.55-.06-.81-.1v-.04h-.19c-.34-.07-.67-.16-.99-.27v-.02h-.07c-.13-.04-.25-.09-.37-.14h-.01c-.1-.04-.19-.08-.28-.12v-.02h-.05c-.18-.09-.36-.18-.54-.28v-.02h-.03c-.14-.08-.28-.16-.41-.25v-.04h-.07a8.12 8.12 0 0 1-2.01-1.91v-.02h-.01c-.1-.13-.19-.27-.28-.41v-.03h-.02a8.14 8.14 0 0 1-.72-1.41v-.07h-.03c-.11-.28-.2-.56-.27-.85v-.04h-.01c-.06-.22-.1-.45-.14-.68v-.06h-.01c-.09-.6-.12-1.23-.07-1.86l1.31-16.4c.01-.19.04-.37.06-.55h.03v-.2c.07-.39.16-.77.28-1.13h.01v-.04c.08-.24.17-.47.27-.7h.02v-.05c.13-.29.28-.57.44-.84v-.01c.09-.15.18-.3.28-.44h.01v-.02c.14-.2.29-.39.44-.58.04-.05.08-.1.13-.15h.02v-.02c.04-.04.08-.08.11-.12h.03V226l.11-.11h.04v-.04l.11-.11h.04v-.04l.12-.11h.03v-.03c.22-.2.45-.39.69-.56h.05v-.03a8.34 8.34 0 0 1 1.89-1h.03v-.01c.13-.05.27-.09.4-.14h.04v-.01c.17-.05.34-.1.51-.14h.08v-.02c.25-.06.51-.1.78-.13h.11v-.01c.49-.05.98-.06 1.49-.02l8.56.68c3.59.29 6.94-1.83 8.17-5.21.09-.26.19-.52.29-.78h.01v-.03c.09-.24.18-.47.27-.71h.03v-.07l.15-.37v-.01l.11-.29h.03v-.09l.14-.36h.01v-.01l.11-.28h.03v-.08l.27-.66h.02v-.06c.1-.23.19-.46.29-.68h.01v-.01c.19-.44.38-.88.58-1.32h.01v-.02l.12-.27h.02v-.05l.11-.24h.04v-.08c.19-.42.39-.84.59-1.25l.14-.29h.01v-.01l.14-.29h.01v-.02l.14-.28h.01v-.02l.14-.28h.01v-.02c.1-.19.19-.38.29-.57v-.01l.15-.29c.23-.45.47-.89.71-1.33h.04v-.06l.13-.23h.02v-.04l.14-.26h.01v-.01c.13-.24.27-.49.41-.73h.04v-.07l.13-.23h.02v-.03c.33-.59.68-1.17 1.03-1.75h.01v-.02l.26-.43h.03v-.06l.15-.24.28-.44h.02v-.03l.26-.41h.03v-.05c.15-.23.29-.46.44-.69l.29-.44h.01v-.01l.29-.44h.01v-.01l.29-.43c2.02-2.97 1.76-6.92-.58-9.66l-4.89-5.75-.67-.79-.07-.08v-.02h-.01c-.15-.18-.3-.37-.43-.57v-.02h-.02c-.1-.14-.19-.29-.28-.44v-.01c-.11-.18-.2-.36-.29-.54v-.05h-.02l-.12-.27v-.03h-.01c-.18-.42-.33-.85-.43-1.29v-.04h-.01c-.06-.24-.1-.48-.14-.73v-.01c-.1-.69-.1-1.39-.02-2.07h.02v-.18c.03-.24.08-.47.13-.71h.02v-.07c.04-.18.09-.35.15-.53.08-.25.17-.5.27-.74h.02v-.06c.12-.28.26-.56.42-.83h.02v-.04c.08-.14.17-.27.26-.41h.04v-.06c.39-.58.87-1.11 1.43-1.58l12.53-10.67c.18-.15.36-.3.55-.43h.01v-.01c.14-.1.28-.2.43-.29h.01v-.01c.26-.16.53-.31.81-.44h.08v-.04c.08-.04.17-.07.25-.11h.04v-.02c.26-.11.53-.2.8-.28h.08v-.02c.17-.05.35-.09.52-.12h.07v-.01c.35-.07.7-.11 1.05-.13h.98c.36.02.72.07 1.08.14v.01h.05c.33.07.66.16.99.27v.02h.08c.12.04.24.09.36.14v.01h.03c.29.12.58.26.86.41v.03h.05c.08.05.16.1.24.14h.01c.15.09.29.19.44.29v.01h.01c.25.18.5.38.73.59.05.04.1.09.14.13v.01h.01l.13.13v.02h.02c.04.04.09.09.13.14v.01h.01l.27.3 5.57 6.54c2.34 2.73 6.21 3.62 9.45 2.1.36-.17.72-.33 1.08-.5h.06v-.03l.27-.12h.02v-.01c.22-.1.43-.19.65-.29h.09v-.04l.26-.11h.04v-.02c.22-.09.44-.19.66-.28h.08v-.03l.28-.11h.02v-.01c.24-.1.47-.19.71-.29h.03v-.01c.63-.25 1.25-.49 1.88-.73h.04v-.02l.36-.13h.09v-.03c.25-.09.49-.18.74-.26h.01l.42-.15h.03v-.01l.4-.14h.04v-.02l.39-.13h.05v-.02c.43-.15.87-.29 1.31-.43h.03v-.01c.31-.1.62-.19.93-.29h.11v-.03l.38-.12h.06v-.02l.44-.13.52-.15h.08v-.02c.33-.09.66-.19 1-.27h.04v-.01c.56-.15 1.12-.29 1.69-.43h.09v-.02l.52-.13h.07v-.02c.19-.04.37-.09.56-.13h.03v-.01c.21-.05.42-.09.62-.14h.12v-.03l.57-.12h.03v-.01c.23-.05.46-.1.69-.14h.06v-.01c.29-.06.58-.12.87-.17 3.54-.67 6.16-3.65 6.44-7.24l.7-8.56c.02-.26.05-.51.1-.75h.04v-.2c.1-.5.24-.97.43-1.43h.02v-.04c.16-.4.36-.78.58-1.14h.01v-.02c.09-.14.18-.29.28-.42h.02v-.02c.18-.25.37-.49.58-.72h.02v-.02l.12-.13h.03v-.03l.12-.12h.03v-.03l.12-.12h.03v-.03l.13-.12h.02v-.02c.23-.21.47-.4.72-.58h.02v-.01c.14-.1.28-.19.43-.28h.01v-.01c.26-.16.53-.31.82-.44h.07v-.03c.09-.04.18-.08.27-.11h.03v-.01c.27-.11.55-.2.84-.28h.05v-.01c.19-.05.38-.1.58-.13h.02c.7-.13 1.43-.18 2.18-.12l16.4 1.3c.28.02.56.06.83.11v.04h.2c.34.07.67.16.99.27v.02h.06c.23.08.46.18.68.28v.02h.04c.19.09.37.19.56.29v.01h.01c.15.08.29.17.43.27v.03h.05c.14.09.27.19.4.29v.01h.01c.55.42 1.04.91 1.47 1.46v.02h.02c.1.12.19.25.28.38v.06h.04c.2.31.39.63.55.96v.08h.04c.04.08.07.16.11.24v.05h.02c.18.41.32.84.42 1.28v.05h.01c.18.79.25 1.62.18 2.47l-.19 2.42-.29 3.7v.02l-.19 2.42c-.3 3.58 1.84 6.95 5.21 8.16l.16.06v.01h.01c.24.09.48.18.73.27v.03h.07l.38.14h.01l.29.11v.04h.1l.35.14v.01h.03l.27.11v.04h.1l.34.14v.01h.03l.27.11v.04h.09l.35.15c.79.33 1.58.68 2.37 1.03v.01h.01l.28.13v.02h.04l.26.12v.03h.06l.23.11v.04h.08a81.2 81.2 0 0 1 4.06 2.05v.03h.05l.24.13v.02h.03l.27.15c.25.14.49.27.74.41v.04h.06l.23.13v.02h.03c.59.33 1.17.67 1.75 1.02v.02h.03c.24.14.48.29.71.43v.01h.02l.43.26v.03h.05c.23.14.46.29.69.43v.01h.02l.43.27v.02h.03l.41.27v.03h.04c.34.22.67.44 1.01.67 2.96 2.03 6.93 1.76 9.67-.56l6.52-5.57.2-.17h.03v-.03c.19-.15.38-.29.58-.42h.02v-.01c.45-.29.92-.54 1.41-.73h.08v-.03c.27-.1.54-.19.81-.27h.07v-.02c.19-.05.39-.09.58-.13h.16v-.03c.84-.13 1.69-.14 2.52-.01v.04h.21c.38.07.75.16 1.12.29v.01h.03c.24.08.48.17.71.28v.02h.04c.19.08.37.18.55.28v.02h.04a7.564 7.564 0 0 1 1.45 1.03v.01h.01c.05.04.09.08.14.13v.02h.02l.13.12v.03h.03l.12.13v.01h.02l.13.14v.01h.01c.06.06.11.12.17.19l2.49 2.92 3.41 4 3.41 4 1.36 1.6c.2.24.39.49.56.74v.03h.02c.16.23.3.47.43.72v.02h.01c.05.09.09.18.14.28v.02h.01c.11.23.2.46.29.69v.05h.02c.05.13.09.27.13.41v.04h.01c.05.18.1.36.14.54v.05h.01c.06.31.11.61.14.92v1h.03c-.01.15-.01.3-.03.44-.03.3-.07.59-.13.89h-.02v.09c-.07.32-.16.63-.26.94h-.03v.09c-.04.12-.09.23-.14.35h-.06v.03c-.12.29-.26.58-.42.86h-.02v.04c-.08.14-.16.27-.25.4h-.05v.07c-.4.6-.89 1.15-1.47 1.64l-6.55 5.56c-2.73 2.33-3.61 6.2-2.09 9.46.11.23.22.47.33.71v.06h.02l.13.29.3.66v.08h.03l.11.26v.04h.02c.09.22.19.44.28.65v.09h.04l.11.27v.03h.01c.1.23.19.46.28.69v.05h.02l.57 1.44v.04h.01c.15.38.29.76.43 1.15v.04h.02l.13.37v.08h.03l.12.34v.11h.04c.14.39.27.78.41 1.18v.01l.15.44v.01c.2.62.4 1.24.59 1.86v.06h.02l.13.43v.01l.14.49v.1h.03l.12.41v.03h.01l.14.5v.09h.03l.27 1.01v.03h.01c.1.38.2.76.29 1.14v.04h.01c.05.19.09.38.14.57v.02h.01c.05.2.1.41.14.61v.13h.03l.12.52v.07h.02l.13.61v.13h.03l.12.59v.01c.07.32.13.65.19.97.68 3.54 3.66 6.17 7.24 6.46l8.56.67.3.03v.01h.11c.26.03.52.08.77.14v.01h.04c.45.11.88.25 1.3.43v.02h.05c.29.13.57.27.84.43v.02h.03c.14.08.28.17.41.26v.04h.06a7.91 7.91 0 0 1 1.87 1.78c.1.13.2.27.29.41v.03h.02c.15.23.29.47.42.72v.02h.01c.05.09.09.18.14.27v.02h.01c.11.23.2.46.29.69v.05h.02c.05.14.09.27.13.41v.03h.01c.05.18.1.37.14.56v.19h.04c.05.27.09.55.11.84v1.29l-.44 5.57v.01l-.29 3.69v.03l-.29 3.67v.05l-.27 3.35-.01.15h-.01v.14c-.03.25-.07.51-.12.75h-.02v.1c-.07.32-.16.63-.27.93h-.02v.06c-.09.23-.18.46-.29.68h-.01v.02c-.17.35-.37.69-.58 1.02h-.05v.01c-.45.67-1 1.26-1.62 1.76h-.01c-.13.1-.25.2-.38.29h-.06v.04c-.48.34-1 .62-1.54.85h-.09v.03c-.44.17-.89.31-1.36.41h-.12v.02c-.31.06-.63.1-.95.12h-1.12l-.09-.01-8.55-.69c-3.6-.28-6.95 1.83-8.18 5.22-.12.32-.23.64-.35.96h-.02v.05c-.09.23-.18.46-.27.7h-.03v.08l-.14.37h-.01v.01l-.11.28h-.04v.09l-.14.36h-.01v.01l-.12.28h-.03v.08c-.09.22-.18.44-.28.66h-.02v.05l-.3.69c-.19.45-.39.89-.59 1.33v.01l-.13.29h-.02v.03l-.12.26h-.03v.06l-.11.24h-.04v.08c-.6 1.27-1.23 2.53-1.89 3.77h-.04v.07l-.12.23h-.02v.05l-.14.25h-.01v.02c-.18.34-.37.68-.56 1.01h-.03v.05l-.14.24h-.01v.02c-.19.34-.39.68-.59 1.02v.01c-.14.25-.29.49-.44.74h-.01v.01l-.72 1.17h-.02v.03l-.26.41h-.02v.06c-.15.23-.29.46-.44.68v.01l-.29.44h-.01v.02l-.29.43h-.01v.02c-.12.18-.24.35-.36.53-2.03 2.97-1.78 6.94.56 9.67l5.57 6.53c.16.19.31.38.44.57v.01h.01c.1.14.2.29.29.44v.01c.16.27.31.54.44.82v.06h.03c.04.09.08.18.12.28v.02h.01c.11.28.21.56.29.85v.04h.01c.05.19.1.39.14.58v.16h.03c.07.41.11.82.12 1.23v.29c-.01.43-.05.86-.13 1.29h-.02v.12c-.07.36-.17.71-.28 1.06h-.01v.04c-.08.24-.18.47-.28.7h-.01v.03c-.09.19-.18.38-.29.56h-.01v.02c-.08.14-.17.29-.26.43h-.04v.06a8.05 8.05 0 0 1-1.51 1.7l-12.52 10.67a6.8 6.8 0 0 1-.6.46h-.04v.03c-.14.09-.27.18-.41.27h-.03v.02c-.27.16-.54.3-.81.43h-.08v.03c-.09.04-.18.08-.27.11h-.02v.01c-.29.11-.58.21-.87.29h-.02c-.22.06-.43.11-.65.14h-.09v.02c-.88.15-1.79.14-2.67 0v-.01h-.08c-.22-.04-.44-.09-.66-.15-.15-.04-.29-.08-.44-.13v-.02h-.06c-.13-.04-.26-.09-.39-.14v-.01h-.02c-.4-.16-.79-.35-1.17-.58v-.02h-.03c-.14-.08-.28-.17-.42-.27v-.03h-.04c-.19-.13-.37-.27-.55-.42v-.02h-.02l-.12-.11v-.04h-.05c-.27-.24-.53-.5-.77-.78l-1.85-2.18-3.7-4.36c-2.34-2.73-6.21-3.61-9.47-2.09-.38.18-.76.35-1.15.53h-.05v.02l-.28.13h-.02v.01c-.22.1-.44.19-.66.29h-.08v.04l-.26.11h-.03v.01c-.22.1-.45.19-.67.28h-.07v.03l-.29.12h-.01c-.24.1-.48.2-.72.29h-.02v.01c-.24.1-.49.19-.73.29h-.01c-.39.15-.77.3-1.16.44h-.02v.01l-.38.14h-.06v.02l-.34.12h-.1v.04c-.25.09-.49.18-.74.26l-.43.15h-.01l-.42.14h-.02v.01l-.43.14h-.02v.01l-.44.14c-.47.15-.95.3-1.42.44h-.06v.02l-.44.13h-.01l-.5.15h-.09v.03l-.43.12h-.02l-.52.14h-.08v.02c-.35.09-.69.19-1.04.28l-.58.15h-.01c-.2.05-.39.1-.59.14h-.01l-.61.15h-.13v.03l-.51.12h-.08v.02l-.58.13h-.16v.04l-.53.11h-.06v.01c-.22.05-.44.09-.66.13h-.09v.06c-.22.04-.43.09-.65.13-3.54.67-6.16 3.65-6.46 7.24l-.68 8.56c-.01.17-.03.34-.06.5v.02c-.04.24-.08.48-.14.72h-.01v.04c-.11.45-.26.88-.43 1.29h-.01v.02c-.13.3-.28.59-.44.87-.09.15-.18.3-.28.44h-.01v.02c-.55.8-1.24 1.5-2.04 2.05h-.04v.02c-.14.09-.28.19-.42.27h-.02v.02c-.26.16-.54.3-.82.43h-.07v.03c-.09.04-.19.08-.28.12h-.01v.01c-.29.11-.58.21-.89.29h-.15v.04c-.17.04-.35.08-.52.11h-.07v.01c-.63.1-1.29.14-1.95.08l-16.4-1.32c-.22-.01-.42-.03-.62-.06z" clip-rule="evenodd" class="colora2caff svgShape"></path><path fill="#1bb1f9" d="M643.21 149.28h54.73c23.16 0 41.92 18.77 41.92 41.92v9.48c0 23.16-18.77 41.92-41.92 41.92l-.37 15.18-21.98-15.18c-2.6 0-37.52-.24-39.99-.69-19.52-3.57-34.32-20.67-34.32-41.23v-9.48c0-23.15 18.77-41.92 41.93-41.92" class="colorf9a11b svgShape"></path><path fill="#a2e1ff" fill-rule="evenodd" d="m624.74 327.51-9.48-6.37-.21-.14H582.2c-.89-.01-1.77-.04-2.65-.11v-.04h-.47c-.44-.04-.87-.08-1.3-.13v-.02h-.15c-.3-.04-.59-.07-.89-.12v-.03h-.23c-.22-.03-.44-.07-.66-.1v-.04h-.27c-.26-.04-.51-.09-.77-.14v-.01h-.05c-.63-.12-1.26-.25-1.88-.4v-.04h-.17c-.14-.03-.28-.07-.42-.1v-.05h-.18c-.14-.04-.27-.07-.41-.11v-.04h-.13c-.15-.04-.31-.08-.46-.13v-.02h-.07c-.47-.14-.94-.28-1.41-.43v-.01h-.03c-.14-.04-.27-.09-.41-.13v-.01h-.04c-.14-.05-.27-.1-.41-.14v-.01h-.01l-.28-.1v-.05h-.14c-.1-.04-.2-.08-.31-.11v-.03h-.09l-.36-.14v-.01h-.03c-.24-.09-.47-.19-.71-.28v-.01h-.03c-.34-.14-.67-.28-1-.43v-.02h-.04c-.08-.04-.17-.07-.25-.11v-.04h-.08c-1.19-.54-2.35-1.13-3.47-1.77v-.01h-.01c-.15-.08-.29-.17-.43-.25v-.04h-.07l-.22-.13v-.02h-.03c-.14-.08-.28-.17-.42-.25v-.04h-.07l-.23-.14v-.01h-.01c-.14-.09-.29-.18-.43-.27v-.02h-.04c-.44-.28-.87-.58-1.3-.87v-.01h-.02c-.19-.13-.38-.27-.57-.41v-.04h-.05c-.13-.1-.26-.19-.39-.29v-.01h-.01l-.14-.1v-.05h-.06c-.13-.1-.26-.2-.38-.29-.05-.04-.1-.07-.15-.11v-.04h-.05c-.18-.14-.36-.29-.55-.44v-.01h-.01c-.3-.24-.59-.48-.88-.73v-.01h-.01c-.05-.04-.09-.08-.14-.12v-.03h-.04l-.11-.1v-.05h-.06c-.33-.29-.66-.59-.98-.89l-.15-.14v-.01h-.01l-.14-.13v-.02h-.02l-.12-.12v-.03h-.03l-.12-.12v-.03h-.03c-.29-.28-.58-.57-.86-.86v-.03h-.03l-.12-.12v-.03h-.03l-.12-.12v-.02h-.02l-.13-.14v-.01h-.01l-.14-.15c-.3-.32-.6-.65-.89-.98v-.06h-.05l-.1-.11v-.04h-.03l-.12-.14v-.01h-.01c-.25-.29-.49-.58-.73-.88v-.01h-.01c-.15-.18-.29-.36-.44-.55v-.05h-.04l-.11-.15c-.1-.13-.2-.26-.3-.38v-.06h-.05l-.1-.14v-.01h-.01c-.1-.13-.19-.26-.29-.39v-.05h-.04c-.14-.19-.27-.38-.41-.57v-.02h-.02c-.3-.43-.59-.86-.87-1.3v-.04h-.02c-.09-.14-.18-.29-.27-.43v-.01h-.01l-.14-.23V301h-.04c-.09-.14-.17-.28-.25-.42v-.03h-.02l-.13-.22v-.07h-.04c-.09-.14-.17-.29-.25-.44v-.01c-.64-1.13-1.23-2.28-1.77-3.47v-.08h-.04c-.04-.08-.07-.17-.11-.26v-.04h-.02c-.15-.33-.29-.67-.43-1v-.03h-.01c-.1-.23-.19-.47-.28-.71v-.03h-.01c-.05-.12-.09-.24-.14-.36v-.09h-.03c-.04-.1-.08-.2-.11-.31v-.14h-.05c-.03-.09-.07-.19-.1-.28V293c-.05-.14-.1-.27-.14-.41v-.04h-.01c-.05-.14-.09-.28-.13-.41v-.03h-.01c-.15-.47-.3-.94-.43-1.41v-.07h-.02c-.04-.15-.08-.31-.13-.46v-.13h-.04c-.04-.14-.08-.28-.11-.42v-.18h-.04c-.04-.14-.07-.28-.1-.42v-.17h-.04c-.15-.62-.28-1.25-.4-1.88v-.04h-.01c-.05-.26-.1-.52-.14-.78v-.26h-.04c-.04-.22-.07-.45-.11-.67v-.21h-.03l-.12-.91v-.13h-.01c-.05-.44-.1-.88-.13-1.33v-.45h-.04c-.07-.95-.11-1.9-.11-2.87v-9.95c.01-.97.04-1.93.11-2.89h.04v-.43c.04-.45.08-.9.14-1.35h.01v-.11l.12-.92h.03v-.2c.03-.23.07-.46.11-.69h.04v-.24c.05-.27.09-.53.14-.8v-.02c.08-.44.17-.88.27-1.31h.03v-.12c.04-.16.07-.32.11-.47h.04v-.15c.04-.15.07-.29.11-.44h.04v-.16c.04-.15.08-.29.12-.43h.03v-.11c.04-.16.09-.32.13-.48h.02V258c.09-.33.19-.66.3-.98.05-.15.1-.3.14-.44v-.01c.05-.14.09-.29.14-.43h.01v-.02c.08-.24.17-.48.25-.72h.04v-.12l.12-.33h.03v-.07c.05-.13.09-.25.14-.38h.01v-.01c.09-.24.19-.49.29-.73h.01v-.02c.14-.34.29-.68.43-1.02h.01v-.02l.12-.27h.03v-.07c.04-.08.07-.15.11-.23h.04v-.09c.45-.98.94-1.94 1.47-2.88h.01v-.02c.14-.24.27-.48.41-.72h.03v-.06l.14-.24h.01v-.01c.09-.15.17-.29.26-.43h.03v-.05c.14-.23.29-.46.43-.69h.01v-.02c.09-.14.19-.28.28-.43h.02v-.02c.19-.29.39-.58.59-.86.14-.2.28-.39.42-.59h.02v-.03l.41-.56h.03v-.04c.14-.18.28-.37.42-.55h.02v-.03c.43-.54.86-1.08 1.32-1.6h.02v-.02c.04-.04.08-.08.11-.13h.04v-.04l.1-.11h.05v-.06c.34-.38.68-.76 1.03-1.13h.01v-.01l.14-.14h.01v-.01l.13-.14h.02v-.02l.13-.13h.02v-.02l.57-.57h.02v-.02l.13-.13h.01v-.01l.14-.13h.01v-.01l.14-.14h.01v-.01c.37-.35.75-.69 1.13-1.03h.06v-.05l.11-.1h.04V238l.13-.11h.02v-.02c.52-.45 1.06-.89 1.6-1.32h.03v-.02c.18-.14.37-.28.55-.42h.04v-.03c.19-.14.37-.28.56-.41h.03v-.02c.48-.35.97-.69 1.46-1.02h.02v-.01c.14-.1.29-.19.43-.28h.01v-.01c.23-.15.46-.29.69-.44h.05v-.03c.15-.09.29-.18.44-.27l.25-.15h.05v-.03c.24-.14.48-.28.73-.42h.01v-.01c.74-.41 1.49-.81 2.26-1.18h.12v-.05l.2-.09h.09v-.04l.22-.1h.07v-.03c.08-.04.16-.08.25-.11h.05v-.02c.1-.04.19-.08.29-.13h.01c.46-.2.93-.4 1.4-.59h.08v-.03c.23-.09.46-.18.69-.26h.05v-.02c.11-.04.23-.09.34-.13h.1v-.03l.32-.11h.12v-.04c.72-.25 1.45-.49 2.19-.7h.03v-.01c.17-.05.34-.09.51-.14h.08v-.02c.15-.04.31-.09.46-.13h.13v-.03c.16-.04.32-.08.47-.12h.12v-.03l.51-.12h.08v-.02c.45-.1.9-.19 1.35-.28h.13v-.02l.7-.12h.19v-.03c.25-.04.5-.08.76-.12h.28v-.04c.28-.04.57-.08.86-.11h.03c.48-.06.97-.1 1.45-.14h.62v-.04c.93-.06 1.87-.1 2.81-.1h54.73c.97 0 1.94.04 2.9.1v.04h.54c.47.04.93.08 1.39.14v.01h.1l.94.12v.03h.2c.23.03.46.07.69.11v.04h.25c.26.04.52.09.78.14v.01h.05c.48.09.96.19 1.43.3.2.04.39.09.59.14v.01h.04c.14.03.27.07.41.1v.05h.2c.13.03.26.07.4.11v.04h.15c.15.04.3.08.44.12v.03h.1l.5.15c.3.09.59.18.89.28v.02h.06c.13.04.26.08.39.13v.02h.07c.13.04.25.09.38.13v.02h.04c.13.05.27.09.4.14v.01h.02l.28.1v.05h.12l.32.12v.02h.07c.13.05.25.1.38.15.8.32 1.59.66 2.37 1.03v.01h.02c.09.04.19.09.28.13v.02h.04c.09.04.17.09.26.13v.02h.04l.26.13v.02h.04c.09.04.17.08.26.13v.02h.04c.09.04.17.09.25.13v.01h.03l.27.14v.01h.01c.34.18.69.37 1.03.56v.03h.05l.24.14v.01h.02c.14.08.29.17.43.25v.04h.07c.07.04.15.09.22.13v.02h.03c.14.08.28.17.42.26v.04h.06c.23.14.46.29.68.44v.01h.01c.29.19.59.39.88.59h.01l.59.41v.03h.05c.13.1.27.19.4.29v.01h.01l.14.1v.05h.06l.38.29v.01h.01l.14.11v.04h.05l.54.42v.02h.03c.24.19.48.39.71.58v.01h.01c.4.33.79.67 1.18 1.02v.02h.02l.13.12v.03h.03l.11.11v.04h.05l.1.1v.05h.06c.75.7 1.47 1.42 2.17 2.17v.05h.05l.1.11v.04h.04l.11.12v.03h.03l.12.14v.01h.01c.56.62 1.1 1.26 1.62 1.91v.01h.01c.15.18.29.37.44.56v.03h.03c.14.18.28.37.42.55v.04h.03l.42.57v.02h.02c.4.57.79 1.14 1.17 1.73v.05h.03c.09.14.18.28.26.42v.02h.01c.04.07.09.14.14.22v.08h.05c.08.14.16.28.25.41v.03h.02l.13.22v.08h.04c.08.15.17.29.25.44v.01c.53.93 1.02 1.89 1.48 2.87v.09h.04l.1.22v.07h.03l.11.26v.04h.02c.25.57.49 1.14.72 1.72v.06h.02c.04.11.08.22.13.33v.11h.04c.04.09.07.18.11.28v.02h.01c.05.13.09.26.14.39v.05h.02l.13.37v.08h.03l.12.36v.09h.03c.15.44.28.88.42 1.33l.15.51v.09h.02l.12.46v.13h.04c.04.15.08.29.11.44v.15h.04c.04.15.08.3.11.46v.14h.03c.04.17.08.35.11.52v.07h.01c.1.47.2.93.28 1.41v.22h.04c.04.22.07.44.11.66v.23h.04c.04.26.08.52.11.79v.25H679c.12.94.21 1.89.26 2.85v.85h.04c.02.54.03 1.09.03 1.64v9.48c0 .54-.01 1.08-.03 1.62h-.04v.87c-.06.95-.14 1.9-.26 2.83h-.04v.27c-.03.26-.07.51-.11.77h-.04v.25c-.03.21-.07.43-.11.64h-.04v.24c-.12.67-.26 1.33-.41 1.98h-.04v.16c-.03.15-.07.29-.11.44h-.04v.17c-.04.14-.07.28-.11.42h-.04v.15c-.04.15-.08.3-.12.44h-.03v.1c-.05.16-.09.33-.14.49h-.01v.02c-.17.59-.36 1.18-.56 1.76h-.03v.09c-.04.12-.08.23-.12.35h-.03v.07c-.04.12-.09.25-.13.37h-.01v.04c-.09.24-.18.47-.27.7h-.03v.07c-.19.47-.38.94-.59 1.41h-.01v.02l-.12.28h-.03v.06l-.11.24h-.04v.09c-.49 1.08-1.04 2.14-1.62 3.17h-.01v.02l-.42.72h-.03v.05c-.05.08-.1.17-.15.25-.09.15-.18.3-.27.44h-.02v.04c-.08.14-.17.27-.25.41h-.04v.07c-.14.23-.29.45-.44.67-.23.35-.47.69-.71 1.03h-.03v.04c-.1.14-.2.27-.29.4l-.11.15h-.04v.06c-.1.13-.19.26-.29.39v.01l-.11.14h-.04v.05l-.42.54h-.02v.03c-.48.6-.97 1.18-1.47 1.75h-.01v.01l-.12.14h-.02v.03l-.11.12h-.04v.05l-.1.1h-.05v.06c-.78.85-1.6 1.68-2.46 2.46h-.06v.06l-.1.09h-.05v.05l-.11.1h-.04v.03l-.13.12h-.02v.02a37.76 37.76 0 0 1-1.91 1.61h-.01v.01c-.19.15-.38.29-.56.44h-.03v.02c-.19.14-.37.28-.56.42h-.03v.02c-.19.14-.39.28-.58.42h-.01v.01c-.43.3-.86.6-1.3.88h-.03v.02l-.42.27h-.02v.01c-.23.15-.46.29-.69.43h-.05v.03c-.23.14-.47.28-.7.41h-.04v.02c-.52.3-1.04.59-1.58.86h-.05v.03c-.08.04-.15.08-.23.12h-.07v.04c-.08.04-.15.07-.23.11h-.07v.03l-.23.11h-.07v.03c-.08.04-.15.08-.23.11h-.06v.03c-.08.04-.17.08-.25.12h-.05v.02l-.27.13h-.03v.01c-.1.04-.19.09-.29.14-.57.26-1.15.5-1.74.74h-.04v.01c-.11.04-.23.09-.34.13h-.1v.04l-.29.11h-.01c-.13.05-.26.1-.38.14h-.06v.02c-.12.04-.24.08-.36.13h-.08v.03c-.11.04-.22.08-.34.12h-.11v.04c-.43.14-.85.28-1.28.41h-.05v.01c-.33.1-.65.19-.98.28h-.05v.01c-.16.04-.33.09-.49.13h-.1v.03l-.5.12h-.09v.02c-.18.04-.35.09-.53.13h-.06v.01c-.45.1-.91.2-1.36.28h-.12v.02c-.23.04-.47.09-.7.13h-.19v.03c-.25.04-.5.08-.74.12h-.29v.04c-.27.04-.55.07-.82.11h-.07v.01c-.46.05-.92.1-1.39.14h-.39v.03c-.9.07-1.81.1-2.73.11h-.46v15.02l-12.7-8.53z" clip-rule="evenodd" class="colora2caff svgShape"></path><path fill="#ffffff" fill-rule="evenodd" d="M580.25 266.77c3.88 0 7.02 3.14 7.02 7.02 0 3.88-3.15 7.02-7.02 7.02-3.88 0-7.02-3.15-7.02-7.02-.01-3.88 3.14-7.02 7.02-7.02m30.44 0c3.88 0 7.02 3.14 7.02 7.02 0 3.88-3.15 7.02-7.02 7.02-3.88 0-7.02-3.15-7.02-7.02-.01-3.88 3.14-7.02 7.02-7.02m30.44 0c3.88 0 7.02 3.14 7.02 7.02 0 3.88-3.15 7.02-7.02 7.02-3.88 0-7.02-3.15-7.02-7.02 0-3.88 3.14-7.02 7.02-7.02m-1-78.15c3.89 0 7.02 3.15 7.02 7.03 0 3.88-3.14 7.02-7.02 7.02-3.88 0-7.02-3.15-7.02-7.02 0-3.89 3.14-7.03 7.02-7.03m30.44 0c3.88 0 7.02 3.15 7.02 7.03 0 3.88-3.15 7.02-7.02 7.02-3.88 0-7.02-3.15-7.02-7.02 0-3.89 3.14-7.03 7.02-7.03m30.44 0c3.88 0 7.02 3.15 7.02 7.03 0 3.88-3.15 7.02-7.02 7.02-3.88 0-7.02-3.15-7.02-7.02 0-3.89 3.15-7.03 7.02-7.03" clip-rule="evenodd" class="colorfff svgShape"></path><path fill="#1bb1f9" fill-rule="evenodd" d="M803.27 495.71v92.3H648.09v-92.3l79.26-79.94z" clip-rule="evenodd" class="colorf9a11b svgShape"></path><path fill="#f6fbfd" fill-rule="evenodd" d="M670.49 452.56h108.36v124.08H670.49z" clip-rule="evenodd" class="colorf6fbfd svgShape"></path><path fill="#42c0fd" fill-rule="evenodd" d="m648.09 495.71 76.42 68.04 78.76-68.04v92.3H648.09z" clip-rule="evenodd" class="colorfdbe42 svgShape"></path><path fill="#8edaff" fill-rule="evenodd" d="m648.09 588.01 78.26-54.85 76.92 54.85z" clip-rule="evenodd" class="colorffd88e svgShape"></path><path fill="#8ecfee" fill-rule="evenodd" d="M689.76 467.12h26.93c1.81 0 3.29 1.48 3.29 3.28 0 1.81-1.48 3.29-3.29 3.29h-26.93c-1.8 0-3.28-1.48-3.28-3.29s1.48-3.28 3.28-3.28m.01 15.09h69.62c1.81 0 3.29 1.48 3.29 3.29a3.29 3.29 0 0 1-3.29 3.28h-69.62c-1.81 0-3.29-1.48-3.29-3.28 0-1.81 1.48-3.29 3.29-3.29m0 14.99h69.62c1.81 0 3.29 1.48 3.29 3.28a3.29 3.29 0 0 1-3.29 3.28h-69.62c-1.81 0-3.29-1.48-3.29-3.28 0-1.8 1.48-3.28 3.29-3.28m0 14.99h69.62c1.81 0 3.29 1.48 3.29 3.28 0 1.81-1.48 3.29-3.29 3.29h-69.62c-1.81 0-3.29-1.48-3.29-3.29 0-1.8 1.48-3.28 3.29-3.28" clip-rule="evenodd" class="color8ec9ee svgShape"></path><path fill="#a2e1ff" fill-rule="evenodd" d="M1292.52 559.36c-7.18 1.64-14.52 4.07-21.08 7.54 1.42 1.74 2.93 3.41 4.53 5 8.58 8.58 19.21 14.75 30.86 17.89-.17-.2-.34-.39-.5-.59v-.05h-.04l-.11-.13V589h-.01c-.15-.18-.29-.35-.43-.53v-.06h-.05l-.1-.13v-.02h-.02l-.43-.55v-.04h-.03c-.14-.18-.28-.36-.41-.55v-.04h-.03c-.39-.53-.78-1.08-1.15-1.63-.1-.15-.2-.29-.3-.44-.15-.22-.3-.45-.44-.68v-.06h-.04l-.26-.4v-.04h-.03c-.09-.14-.18-.29-.27-.44v-.01h-.01c-.15-.24-.29-.48-.44-.73v-.01h-.01c-.2-.33-.39-.67-.58-1v-.03h-.02c-.19-.34-.39-.69-.57-1.03l-.15-.27v-.03h-.01c-.68-1.27-1.32-2.55-1.91-3.83v-.02h-.01l-.23-.49c-.17-.37-.34-.75-.5-1.13v-.01c-.1-.23-.2-.45-.29-.68v-.06h-.03l-.12-.29v-.01c-.1-.23-.2-.47-.29-.7v-.04h-.02c-.3-.73-.59-1.47-.87-2.21v-.01h-.01l-.14-.38v-.07h-.02c-.09-.24-.18-.49-.27-.73v-.01l-.15-.4v-.04h-.01c-.47-1.3-.91-2.61-1.32-3.93v-.07h-.02l-.13-.41v-.04h-.01c-.15-.48-.29-.96-.43-1.44v-.04h-.01c-.1-.33-.19-.66-.29-.99v-.04h-.01c-.1-.34-.19-.69-.28-1.03v-.01l-.15-.54v-.05h-.01c-.14-.42-.24-.82-.34-1.22zm85.91 7.54c-6.56-3.47-13.9-5.9-21.08-7.54-.12.45-.23.9-.36 1.35h-.02v.06l-.15.54v.01c-.09.34-.19.69-.29 1.03h-.01v.03c-.24.83-.48 1.66-.74 2.49v.01l-.13.43h-.01v.04c-.37 1.18-.76 2.35-1.17 3.51h-.01v.03l-.15.41c-.14.39-.29.79-.43 1.18h-.01v.03c-.15.39-.29.77-.44 1.16-.1.25-.19.49-.29.74v.01c-.14.34-.28.69-.42 1.03h-.02v.06c-.1.23-.19.46-.29.68h-.01v.02c-.24.57-.5 1.14-.76 1.71l-.57 1.23v.01l-.14.29h-.01v.02l-.13.28h-.01v.03l-.13.27h-.02v.03l-.13.26h-.02v.04l-.13.26h-.02v.03l-.13.26h-.01v.03c-.32.63-.66 1.27-1.01 1.9h-.03v.05l-.14.24h-.01v.02c-.19.34-.38.68-.58 1.01h-.01v.02c-.29.49-.58.98-.88 1.46h-.01v.01c-.09.14-.18.29-.27.43h-.02v.04c-.09.14-.17.27-.26.41h-.04v.05c-.08.13-.17.26-.26.39h-.04v.06l-.26.38h-.04v.06c-.47.69-.95 1.36-1.45 2.02h-.04v.05l-.42.54h-.03v.03l-.09.11h-.06v.07c-.14.17-.28.35-.42.52h-.03v.03c-.25.3-.5.6-.76.9 11.64-3.14 22.28-9.32 30.86-17.89 1.6-1.56 3.12-3.23 4.54-4.97zm-20.2-76.7c7.58-1.87 15.57-4.56 22.34-8.51a68.993 68.993 0 0 0-6.67-7.73c-8.58-8.57-19.21-14.74-30.86-17.89.26.3.51.6.76.9v.05h.04l.11.13v.01h.01c.15.18.29.36.43.55v.05h.04l.11.14v.01c.15.19.3.38.44.58v.01h.01c.15.19.29.39.43.59.62.85 1.21 1.72 1.78 2.61v.05h.03l.26.42v.03h.02c.3.48.59.96.87 1.44v.04h.02c.14.24.28.49.42.74l.15.26v.04h.02c.25.44.48.88.72 1.32v.01h.01c.25.48.5.95.74 1.43v.05h.02l.12.25v.05h.02l.12.25v.04h.02l.13.26v.03h.02l.13.28v.02h.01l.14.29c.15.31.29.62.43.92.1.23.21.46.31.69v.01h.01c.15.33.29.67.44 1v.03h.01c.09.22.19.44.28.67v.07h.03l.12.28v.01h.01c.1.24.19.47.29.71v.03h.01c.1.24.19.48.29.72v.02h.01c.3.77.6 1.55.88 2.34v.03h.01l.14.38v.06h.02l.13.36v.09h.03l.12.34v.11h.04c.35 1.01.68 2.04 1 3.06v.05h.02l.13.43v.01l.15.48v.11h.03l.11.39v.06h.02c.09.32.19.65.28.97v.06h.02c.09.33.19.67.28 1v.03h.01c.31 1.14.6 2.29.88 3.44v.12h.03l.12.51v.08h.02l.13.56v.04h.01c.06.34.12.63.19.93zm-88.93-8.52c6.77 3.95 14.75 6.64 22.34 8.51l.3-1.33h.01v-.04l.13-.55h.02v-.08l.12-.51h.02v-.1l.12-.49h.03v-.11c.19-.75.38-1.51.59-2.26v-.02c.09-.34.19-.68.28-1.02h.02v-.05c.09-.33.19-.66.28-.98h.01v-.05l.12-.39h.03v-.11l.14-.48v-.01l.13-.43h.02v-.05c.36-1.17.74-2.34 1.15-3.5h.04v-.11l.12-.33h.03v-.09l.13-.36h.02v-.06l.14-.39h.01v-.02c.32-.89.66-1.77 1.01-2.65h.03v-.07c.09-.23.18-.45.27-.68h.02v-.05c.09-.23.19-.46.29-.69h.01v-.02l.12-.27h.03v-.08c.09-.22.19-.44.29-.66h.01v-.02c.17-.38.33-.75.5-1.13l.08-.18h.01v-.01c.63-1.38 1.31-2.76 2.05-4.14h.02v-.04l.14-.25h.01v-.02c.19-.34.37-.68.57-1.02h.03v-.05l.14-.25h.01v-.01c.14-.24.28-.49.43-.73h.02v-.03c.38-.64.77-1.27 1.18-1.9h.01v-.01c.09-.15.19-.29.29-.43h.01v-.02c.09-.14.19-.29.29-.43h.01v-.01c.1-.14.2-.29.29-.43.24-.35.49-.69.74-1.03v-.01c.14-.2.29-.39.44-.59h.01v-.01l.1-.14h.04v-.06l.42-.54h.03v-.04l.09-.11h.06v-.08c.14-.17.28-.35.42-.52h.02v-.03c.21-.26.43-.52.65-.77a69.221 69.221 0 0 0-30.86 17.89c-2.43 2.42-4.65 5-6.68 7.73zm52.04 12.24v-39.7c-7.81 2.37-13.51 11.91-16.61 18.69-2.71 5.96-4.67 12.37-6.09 18.77 7.49 1.36 15.1 2.07 22.7 2.24zm-21.79 64.02c1.32 5.12 3.01 10.21 5.19 15.02 3.1 6.78 8.8 16.32 16.61 18.69v-35.79c-7.3.16-14.61.83-21.8 2.08zm28.98-2.08v35.79c7.81-2.37 13.51-11.91 16.61-18.69 2.18-4.81 3.87-9.89 5.2-15.02-7.21-1.25-14.52-1.92-21.81-2.08zm0-101.64v39.7c7.6-.17 15.21-.88 22.69-2.24-1.42-6.4-3.39-12.81-6.09-18.77-3.09-6.78-8.8-16.32-16.6-18.69zm56.02 33.44-.28.17h-.03v.02c-.33.19-.67.39-1 .58h-.03v.02l-.23.13h-.06v.04l-.2.11h-.09v.05l-.18.1h-.12v.06l-.16.08h-.14v.08l-.14.07h-.16v.08l-.12.06h-.03v.01l-.25.13h-.04v.02l-.24.13h-.05v.03l-.24.12h-.06v.03l-.23.12h-.06v.03l-.23.12h-.06v.03l-.24.12h-.06v.03l-.24.12h-.05v.03l-.25.12h-.04v.02l-.27.13h-.03v.01c-.41.2-.83.39-1.25.58h-.08v.04l-.24.11h-.05v.02l-.28.12h-.02v.01l-.32.14h-.12v.05l-.22.09h-.08v.03l-.27.12h-.18v.07l-.17.07h-.12v.05l-.23.1h-.06v.03l-.3.12h-.15v.06l-.22.09h-.08v.03l-.29.12h-.01l-.37.14h-.08v.03c-.23.09-.46.18-.68.27h-.06v.02c-.24.09-.48.18-.73.27h-.01l-.39.14h-.06v.02l-.35.13h-.1v.03l-.32.11h-.13v.05l-.29.1h-.01l-.42.15h-.03v.01l-.41.14h-.04v.01l-.4.13h-.05v.02l-.4.13h-.05v.02l-.41.13h-.04v.01l-.42.14h-.02v.01l-.44.14c-.82.26-1.64.5-2.46.74h-.06v.02l-.46.13h-.14v.04l-.39.11h-.05v.01l-.49.13h-.11v.03l-.44.12h-.15v.04l-.41.11h-.18v.05l-.39.1h-.05v.01l-.53.13h-.06v.01l-.54.13h-.05v.01l-.56.13h-.03v.01l-.34.08.04.27v.09h.01c.05.28.09.55.13.83v.21h.03l.12.75v.43h.06l.08.57v.62h.09l.06.43v.75h.1l.05.36v.68h.09l.06.5v.68h.08l.07.58v.61h.07l.08.76v.43h.04c.04.36.07.71.1 1.07v.12h.01c.05.52.09 1.04.14 1.56v.66h.05l.09 1.27v1.4h.09l.06.96v1.71h.08l.06 1.62v1.05h.03l.03 1.14h32.46c-.55-11.17-3.8-22-9.51-31.65zm-56.02 31.68h25.94c-.16-6.9-.76-13.81-1.88-20.62-.41.07-.82.15-1.23.22-.29.05-.58.1-.88.15h-.16v.03l-.75.12h-.14v.02c-.27.04-.54.08-.81.13h-.08v.01c-1.02.15-2.04.3-3.06.43h-.06v.01c-.37.05-.74.1-1.12.14h-.22v.02l-1.04.12h-.15v.02c-.4.05-.8.09-1.2.13h-.13v.01c-1 .1-2 .2-3 .28h-.26v.02c-.55.04-1.09.09-1.64.13h-.29v.02c-1.68.12-3.36.21-5.04.28h-.59v.02c-.75.03-1.49.05-2.24.06v18.25zm-33.13 0h25.94V501.1l-2.13-.06v-.03h-.69c-1-.04-2.01-.09-3.01-.15h-.04c-.68-.04-1.35-.08-2.03-.13v-.02h-.24c-.56-.04-1.12-.08-1.68-.13v-.02h-.21c-.52-.04-1.04-.09-1.57-.14v-.01h-.09c-.46-.04-.93-.09-1.39-.14v-.01h-.09l-1.1-.12v-.03h-.25c-.36-.04-.72-.08-1.08-.13v-.02h-.17c-.34-.04-.68-.08-1.01-.13v-.02h-.16c-.69-.09-1.38-.19-2.06-.28v-.01h-.08c-.32-.05-.64-.09-.95-.14v-.01h-.04c-.28-.04-.57-.09-.85-.13v-.02h-.1c-.26-.04-.53-.08-.79-.13v-.02h-.12c-.26-.04-.51-.09-.77-.13v-.02h-.1c-.41-.07-.82-.14-1.23-.22-1.15 6.83-1.74 13.74-1.91 20.64zm-39.64 0h32.47l.01-.4h.01v-.21c.02-.82.05-1.64.08-2.45h.07v-1.48l.06-1.18h.09v-1.39l.09-1.27h.06v-.78c.08-1.03.17-2.05.27-3.07h.02v-.24c.03-.31.06-.63.1-.94h.05v-.47l.08-.71h.07v-.59l.05-.45h.09v-.76l.05-.43h.09v-.71l.06-.47h.08v-.6l.08-.59h.06v-.43l.11-.75h.03v-.22c.04-.27.09-.54.13-.82h.02v-.11l.09-.54-.98-.24h-.01l-.59-.14h-.01l-.43-.11v-.04h-.15l-.44-.11v-.03h-.13l-.46-.12v-.03h-.1l-.49-.13v-.02h-.06l-.39-.11v-.04h-.15l-.44-.12v-.02h-.09l-.51-.14h-.01c-.49-.14-.98-.29-1.47-.43v-.01h-.03l-.41-.13v-.02h-.07l-.38-.12v-.03h-.1l-.35-.11v-.04h-.12l-.32-.1v-.04h-.14l-.31-.1v-.05h-.14l-.3-.1v-.05h-.14l-.3-.1v-.05h-.14l-.31-.11v-.04h-.12l-.32-.11v-.04h-.1l-.34-.12v-.03h-.08l-.37-.13v-.02h-.04l-.4-.15h-.01c-.39-.14-.79-.29-1.18-.44h-.01c-.25-.09-.49-.19-.73-.28v-.01h-.03l-.27-.11v-.04h-.11l-.34-.14v-.01h-.03l-.26-.11v-.04h-.1l-.2-.08v-.07h-.16l-.28-.12v-.03h-.07l-.22-.09v-.05h-.13l-.32-.14v-.01h-.03l-.27-.12v-.03h-.07l-.22-.1v-.05h-.11l-.33-.15-.29-.13v-.02h-.04l-.26-.12v-.03h-.07c-.52-.24-1.05-.49-1.56-.74h-.01l-.29-.14v-.01h-.01l-.28-.14v-.01h-.02l-.28-.14v-.01h-.02l-.28-.14v-.01h-.01l-.14-.07v-.08h-.15l-.14-.07v-.07h-.14l-.15-.08v-.07h-.13l-.17-.09v-.06h-.11l-.18-.1v-.05h-.09l-.2-.11v-.04h-.07l-.22-.12v-.03h-.05l-.25-.14v-.01h-.02c-.14-.08-.28-.16-.43-.24v-.06h-.1l-.2-.11v-.04h-.06l-.23-.13v-.01h-.02c-.18-.1-.36-.21-.54-.32a68.984 68.984 0 0 0-9.54 31.65zm32.47 7.18h-32.47a69.203 69.203 0 0 0 11.36 34.57c.32-.18.64-.35.97-.52h.01v-.01l.27-.14h.03v-.01l.26-.13h.04v-.02l.25-.13h.05v-.02l.24-.12h.05v-.03l.24-.12h.06v-.03l.24-.12h.06v-.03l.24-.12h.05v-.03l.25-.12h.04v-.02l.26-.13h.03v-.02l.28-.13h.02v-.01l.29-.14c.54-.25 1.08-.5 1.63-.74.23-.1.45-.2.68-.3h.06v-.03l.28-.12h.01v-.01l.34-.14h.11v-.04l.25-.1h.05v-.02l.31-.13h.13v-.05l.23-.09h.06v-.03l.31-.12h.14v-.06l.24-.09h.06v-.02l.32-.12h.13v-.05l.26-.1h.04v-.01l.35-.13h.09v-.03c.23-.09.47-.18.71-.26h.04v-.01c.68-.25 1.37-.49 2.06-.73h.01l.43-.14h.02v-.01l.43-.14h.01l.44-.14h.15v-.05l.31-.1h.14v-.04l.33-.1h.11v-.04l.36-.11h.08v-.03l.4-.12h.04v-.01c.49-.15.98-.29 1.47-.43h.01c.53-.15 1.06-.3 1.58-.44h.05v-.01l.51-.14h.08v-.02l.48-.13h.11v-.03l.47-.12h.12v-.03l.47-.12h.12v-.03l.48-.12h.11v-.03l.51-.12h.08v-.02l.77-.18-.18-.93v-.06h-.01c-.05-.25-.09-.49-.14-.74v-.15h-.03l-.12-.68v-.21h-.04l-.11-.65v-.1h-.02l-.13-.79v-.1h-.02c-.04-.28-.09-.55-.13-.83v-.06h-.01c-.1-.64-.2-1.28-.29-1.92l-.15-1.06v-.12h-.02c-.05-.34-.09-.67-.13-1.01v-.18h-.02c-.04-.34-.08-.68-.13-1.02v-.16h-.02c-.04-.38-.09-.76-.13-1.13v-.05h-.01c-.11-.96-.2-1.93-.29-2.9v-.21h-.02c-.05-.51-.09-1.02-.13-1.53v-.39h-.03l-.12-1.65v-.13h-.01c-.05-.81-.1-1.62-.14-2.44v-.53h-.03c-.05-1.16-.09-2.32-.12-3.47v-.08l.04-.61zm9.74 24.42.87-.15h.23v-.04c.22-.04.44-.07.66-.11h.38v-.06l.54-.09h.5v-.08l.46-.07h.72v-.11l.29-.04h.75v-.11l.31-.04h.87v-.12l.25-.03h.79v-.1l.41-.05h.63v-.07l.66-.07h.53v-.06l.86-.09h.17v-.02c.45-.05.91-.09 1.36-.13h.27v-.02l1.46-.12h1.21v-.09l.8-.06h1.72v-.11l.79-.04h1.73v-.08c.66-.03 1.32-.05 1.98-.07h.53v-.01l.65-.02v-22.16h-25.94c.19 8.17.99 16.39 2.56 24.42zm53.93 0c1.57-8.03 2.37-16.25 2.56-24.42h-25.94v22.16l.61.01v.02h.58c.65.02 1.29.04 1.94.07v.08h1.78c.3.02.59.03.89.05v.1h1.61l.91.06v.08h1.1l1.41.12v.03h.31c.44.04.88.08 1.32.13v.02h.22c.32.03.65.07.97.1v.05h.42l.61.07v.08h.67l.36.04v.1h.83l.35.05v.1h.77l.27.04v.11h.79l.39.06v.09h.62l.42.06v.08h.54l.5.08v.07h.43c.25.04.51.08.76.13v.02h.12c.3.06.59.11.88.16zm42.19-24.42h-32.46c-.01.53-.02 1.07-.04 1.6h-.02v.58c-.03.99-.08 1.98-.13 2.98h-.02v.37c-.04.72-.08 1.43-.13 2.15h-.02v.23c-.04.52-.07 1.03-.12 1.55h-.03v.4l-.12 1.38h-.03v.3c-.05.49-.09.98-.15 1.47v.03l-.12 1.16h-.02v.21c-.04.33-.07.65-.11.98h-.03v.29c-.04.3-.07.6-.11.9h-.04v.28l-.12.91h-.03v.2c-.05.33-.09.66-.14.98h-.01v.06l-.15.97v.02c-.04.29-.09.58-.14.87h-.01v.08c-.04.27-.09.54-.13.81h-.02v.1l-.11.64h-.04v.23l-.11.66h-.03v.19c-.04.23-.08.47-.13.7h-.02v.11l-.15.78v.01l-.13.69 1.91.45v.04h.16l.44.11v.04h.16l.44.11v.04h.14l.45.12v.03h.12l.48.13v.02h.08l.52.14v.01h.03c.68.19 1.36.38 2.05.59v.01h.02l.42.13v.02h.07l.37.11v.04h.12l.33.1v.05h.15l.44.14v.01h.03l.42.13v.01h.04l.4.13v.02h.05l.39.13v.02h.05l.39.13v.02h.05l.4.14v.01h.04l.41.14v.01h.02c.54.19 1.08.38 1.61.58v.01h.03c.24.09.47.18.71.27v.03h.08l.37.14v.01h.02l.28.11v.04h.1l.34.14v.01h.03l.27.11v.04h.1l.34.14v.01h.02l.27.11v.04h.09c.22.09.44.18.65.27v.02h.05l.69.3c.55.24 1.09.48 1.63.73v.01h.02l.27.13v.02h.04l.25.12v.03h.06l.23.11v.04h.08l.22.11v.04h.09l.21.1v.05h.1l.2.1v.05h.1l.2.1v.05h.1l.2.1v.05h.1l.2.1v.05h.09l.2.1v.04h.08l.21.11v.04h.07l.22.12v.03h.06l.24.13v.02h.04l.26.14v.01h.02c.14.07.28.15.41.23 6.8-10.4 10.71-22.29 11.33-34.64zm-73.55 72.71h-.07c-.62-.04-1.24-.08-1.86-.13v-.02h-.23c-.92-.08-1.83-.17-2.73-.28v-.01h-.12c-.36-.04-.71-.09-1.07-.14v-.01h-.06c-.62-.09-1.24-.18-1.86-.28v-.02h-.09c-.27-.04-.53-.09-.8-.13v-.01h-.07l-.81-.15c-.49-.09-.99-.19-1.48-.29h-.01c-.44-.09-.88-.19-1.32-.29v-.01h-.04c-.98-.22-1.95-.47-2.92-.73v-.01h-.05l-.54-.15h-.01c-.34-.1-.69-.19-1.03-.3-.64-.19-1.28-.39-1.92-.59-.15-.05-.3-.09-.44-.14h-.01c-.14-.05-.29-.1-.43-.14h-.01c-.14-.05-.29-.1-.43-.15h-.01c-.54-.19-1.08-.38-1.62-.58v-.01h-.04c-.38-.14-.77-.29-1.15-.43v-.01h-.03c-.24-.09-.48-.19-.71-.28v-.02h-.04c-.58-.23-1.16-.47-1.74-.72v-.02h-.04c-.33-.14-.66-.29-.99-.44v-.01h-.02c-.64-.29-1.28-.58-1.91-.89h-.01l-.29-.14v-.01h-.02l-.28-.14v-.01h-.02l-.27-.14v-.01h-.03l-.27-.13v-.01h-.03l-.27-.14v-.01h-.02l-.27-.14v-.01h-.02l-.28-.14h-.01c-.54-.28-1.08-.57-1.62-.87v-.02h-.04l-.26-.14h-.01c-.34-.19-.69-.39-1.03-.58v-.01h-.02c-.74-.43-1.48-.87-2.21-1.32v-.01h-.01c-.14-.09-.29-.18-.43-.27v-.03h-.04c-.38-.24-.76-.49-1.14-.74-.15-.1-.3-.19-.44-.29-.5-.33-.99-.67-1.48-1.01v-.02h-.03c-.14-.1-.27-.2-.41-.29-.8-.57-1.59-1.16-2.37-1.76v-.02h-.02c-.24-.19-.48-.38-.72-.56v-.03h-.04c-.49-.39-.97-.78-1.45-1.18v-.01h-.01c-.35-.29-.69-.58-1.03-.88v-.01h-.01l-.13-.12v-.03h-.04c-.34-.29-.67-.59-1-.89-.97-.87-1.92-1.77-2.84-2.7-1.28-1.28-2.5-2.59-3.67-3.94v-.02h-.02l-.13-.15c-.25-.29-.5-.58-.74-.87v-.02h-.02c-.24-.29-.49-.58-.72-.88v-.01h-.01c-.2-.24-.39-.49-.59-.73v-.01h-.01c-.15-.18-.29-.37-.44-.55v-.04h-.03c-.19-.24-.38-.49-.56-.73v-.01h-.01c-.4-.53-.79-1.06-1.18-1.6v-.03h-.02c-.24-.34-.48-.68-.72-1.03v-.01h-.01l-.29-.42v-.02h-.02c-.29-.43-.59-.87-.87-1.31v-.03h-.02l-.28-.43v-.01h-.01c-.25-.39-.49-.78-.73-1.17v-.02h-.01c-.3-.48-.59-.97-.88-1.46v-.02h-.01c-.2-.34-.39-.68-.58-1.02v-.02h-.01c-.25-.44-.49-.88-.73-1.32v-.01h-.01a72.03 72.03 0 0 1-1.92-3.83v-.02h-.01l-.14-.3c-.15-.33-.3-.65-.44-.98v-.06h-.03l-.12-.28v-.02h-.01c-.15-.34-.29-.68-.44-1.02v-.02h-.01c-.2-.47-.4-.95-.59-1.43v-.05h-.02c-.09-.23-.19-.47-.28-.71v-.04h-.01c-.15-.38-.29-.77-.43-1.15v-.03h-.01c-.66-1.8-1.25-3.62-1.77-5.47v-.01l-.15-.52v-.07h-.02c-.15-.54-.29-1.08-.43-1.63-.1-.41-.2-.82-.3-1.24v-.1h-.02l-.13-.55v-.04h-.01c-.05-.21-.09-.43-.14-.64v-.1h-.02c-.15-.72-.29-1.44-.42-2.16v-.06h-.01c-.05-.26-.09-.52-.14-.78v-.11h-.02c-.04-.27-.09-.53-.13-.8v-.09h-.01c-.1-.66-.2-1.32-.28-1.98v-.09h-.01c-.05-.37-.09-.75-.14-1.12v-.06h-.01c-.05-.46-.1-.91-.14-1.37v-.11h-.01c-.05-.56-.1-1.12-.14-1.68v-.24h-.02c-.06-.87-.1-1.74-.13-2.61v-.95h-.03c-.01-.54-.02-1.09-.02-1.64 0-.54.01-1.08.02-1.62h.03v-.96c.03-.87.07-1.73.13-2.6h.02v-.26c.04-.56.09-1.11.14-1.67h.01v-.13c.04-.45.09-.9.14-1.36h.01v-.08c.04-.37.09-.74.13-1.11h.01v-.11l.15-1.08v-.01c.04-.29.09-.59.13-.88h.02v-.1c.04-.26.08-.52.13-.79h.02v-.12c.04-.26.09-.51.14-.77h.01v-.07c.18-.97.37-1.93.58-2.89h.01v-.05l.12-.54h.03v-.11l.15-.63c.05-.2.1-.4.14-.59v-.01l.15-.58c.09-.35.18-.69.27-1.03h.02v-.08l.14-.51h.01v-.02c.1-.34.19-.68.29-1.01v-.01c.49-1.64 1.03-3.27 1.63-4.88v-.01c.09-.25.18-.49.28-.73h.02v-.05c.42-1.08.86-2.15 1.32-3.21h.01v-.03c.19-.44.39-.87.59-1.3h.01v-.01c.86-1.86 1.79-3.68 2.8-5.47h.02v-.03c.19-.34.38-.67.57-1h.02v-.03c.28-.49.57-.97.87-1.45h.02v-.03c.15-.24.29-.47.44-.71l.28-.44h.01v-.02c.47-.74.96-1.47 1.46-2.2h.02v-.02c.1-.14.19-.28.29-.42v-.01c.24-.35.49-.69.74-1.03h.01v-.01c.29-.4.58-.79.87-1.18h.01v-.02c.15-.19.29-.38.44-.57h.01v-.01c.19-.25.38-.49.57-.73h.02v-.02c.39-.49.78-.98 1.18-1.46.29-.35.58-.69.88-1.04h.01V473l.12-.13h.03v-.04c.29-.34.59-.67.88-1 .72-.8 1.46-1.59 2.22-2.37l.14-.15.14-.14h.01v-.01l.14-.14h.01v-.01l.12-.12.17-.17h.01v-.01l.14-.14.15-.14.15-.15a76.34 76.34 0 0 1 3.38-3.11h.03v-.03l.14-.12h.01v-.01c.29-.25.58-.49.87-.73h.02v-.02c.29-.24.58-.48.88-.72h.01v-.01c.24-.2.48-.39.73-.58h.01v-.01c.18-.15.37-.29.55-.43h.04v-.03c.24-.19.49-.38.73-.56h.01c.53-.4 1.07-.79 1.61-1.18h.02v-.02c.34-.24.68-.49 1.03-.72h.01l.43-.29h.02v-.01c.44-.3.87-.59 1.32-.88h.02v-.01c.38-.25.76-.49 1.15-.73h.04v-.02c.15-.09.29-.18.44-.27h.01c.49-.3.98-.6 1.48-.89l.26-.15h.04v-.02c.25-.14.49-.28.74-.42l.26-.15h.03v-.02c.44-.25.88-.49 1.33-.72h.01l.28-.15h.02v-.01l.26-.14h.04v-.02l.25-.13h.04v-.02c1.2-.62 2.42-1.2 3.65-1.75h.05v-.02l.28-.12h.02v-.01c.33-.15.67-.29 1.01-.44h.03v-.01c.97-.41 1.95-.8 2.93-1.17h.03v-.01c.53-.2 1.06-.39 1.6-.58h.03v-.01l.39-.14h.05v-.02l.39-.13h.06v-.02l.38-.13h.06v-.02c.13-.04.26-.09.4-.13h.05v-.02l.41-.13h.03v-.01l.44-.14c.67-.21 1.34-.4 2.01-.59h.06v-.02c.34-.1.69-.19 1.03-.28h.01c.39-.1.77-.2 1.16-.29h.02v-.01c.19-.05.39-.1.58-.14h.01c.43-.1.86-.2 1.29-.29h.04v-.01c.98-.21 1.96-.41 2.95-.58h.02c.28-.05.56-.1.85-.15h.04v-.01c.3-.05.59-.1.89-.14l1.01-.15h.03c.36-.05.72-.1 1.09-.14h.1v-.01c.39-.05.79-.09 1.19-.14l1.51-.15h.12v-.01c.62-.05 1.24-.1 1.86-.14h.21v-.01c1.51-.09 3.03-.13 4.55-.13 1.55 0 3.1.05 4.64.14v.01h.12c.6.04 1.21.08 1.81.13v.01h.17c.49.04.97.09 1.46.14v.01h.05c.38.04.76.08 1.14.13v.02h.15c.35.04.69.09 1.04.14v.01h.07c.62.09 1.24.18 1.85.28v.01h.09c.27.04.53.09.8.14v.01h.06c.97.17 1.94.36 2.9.57v.02h.08l.66.15h.01c.2.04.39.09.59.14v.01h.05c.58.14 1.15.28 1.72.43v.01h.05l.54.15h.01c.34.09.69.19 1.03.29v.01h.03c.34.1.67.19 1 .3 1.34.41 2.68.85 4 1.33h.01c.39.14.78.29 1.17.44v.01h.02c.24.09.48.19.72.28v.02h.04c.48.19.96.39 1.44.59v.01h.01c.34.14.68.29 1.02.44v.01h.02c.44.19.88.39 1.32.59h.01c1.5.69 2.98 1.43 4.44 2.22h.01c.44.24.89.48 1.33.73v.01h.01a81.472 81.472 0 0 1 2.95 1.77v.01h.02c1.05.66 2.08 1.34 3.09 2.05v.02h.03l.41.29h.01c.55.39 1.09.78 1.62 1.19.45.34.89.68 1.33 1.02v.01h.02l.72.57v.02h.02c.24.19.48.39.72.59v.01h.01c.3.24.59.49.88.74l.15.13v.02h.03c.34.29.68.58 1.01.88v.01h.01c.6.53 1.19 1.07 1.77 1.62v.01h.01l.14.13v.02h.02l.13.12v.02h.02l.12.12v.03h.03c.36.35.72.7 1.08 1.06.38.38.74.75 1.11 1.14v.03h.03l.12.13v.02h.02l.13.13v.01h.01l.13.14v.01c.5.53.99 1.07 1.48 1.61v.02h.02l.13.15c.3.34.59.68.89 1.02v.02h.01c.5.58.99 1.17 1.47 1.77v.01h.01l.59.74c.15.19.3.38.44.57v.02h.02c.45.58.89 1.17 1.32 1.76v.01h.01c.25.34.49.69.73 1.03v.01c.1.14.2.28.29.42v.02h.02c.4.58.79 1.16 1.17 1.75v.03h.02c.09.14.19.29.28.44v.01h.01c.25.39.49.78.74 1.18v.01h.01c.3.49.59.98.88 1.48l.15.26v.04h.02c.19.34.38.67.57 1.01v.03h.02c.3.54.59 1.08.87 1.62v.01l.14.27v.02h.01l.14.27v.03h.01l.13.26v.03h.02l.13.26v.04h.02l.13.26v.04h.02l.13.26v.03h.02l.13.27v.03h.01l.14.28v.01h.01l.14.29c.25.53.5 1.07.74 1.61v.02h.01c.15.33.29.66.44.99v.04h.02c.25.58.49 1.16.72 1.75v.03h.01c.1.24.19.48.29.72v.02h.01c.15.39.3.78.44 1.17v.02h.01c.54 1.46 1.03 2.94 1.47 4.43v.01c.1.33.2.67.29 1v.03h.01c.15.53.3 1.07.44 1.6v.03h.01c.1.38.2.77.29 1.15v.03h.01c.05.2.09.39.14.59v.01l.15.63v.11h.02l.12.57v.02c.16.73.3 1.46.44 2.2v.02c.05.27.1.53.14.8v.09h.01c.05.27.09.53.13.8v.09h.01c.05.29.09.58.13.87v.02c.05.34.1.69.14 1.03v.15h.02c.04.34.09.68.13 1.03v.16h.02c.11.95.2 1.9.28 2.85v.26h.02c.05.69.09 1.38.13 2.08v.14h.01c.05 1.18.08 2.36.08 3.55s-.03 2.38-.08 3.56h-.01v.13c-.03.7-.08 1.4-.13 2.09h-.02v.24c-.08.96-.17 1.91-.28 2.87h-.02v.15c-.04.35-.08.69-.13 1.04h-.02v.14l-.15 1.04v.01c-.04.29-.09.59-.14.88h-.01v.08c-.04.27-.09.54-.14.81h-.01v.07c-.05.27-.1.54-.15.82v.01c-.05.24-.09.49-.14.73h-.01v.05c-.05.23-.09.46-.14.69h-.01v.04c-.05.23-.1.46-.15.7v.01c-.04.19-.08.39-.13.58h-.02v.09c-.09.41-.19.83-.29 1.24h-.01v.02c-.09.39-.19.78-.29 1.16v.01l-.27 1.02h-.02v.09c-.05.17-.1.34-.14.51h-.01v.02c-.52 1.84-1.12 3.67-1.78 5.46v.01c-.09.25-.18.49-.27.73h-.02v.06l-.15.39c-.1.25-.19.49-.29.74h-.01v.02c-.1.24-.2.48-.29.72v.01c-.14.34-.29.69-.43 1.03h-.01v.03c-.14.34-.29.67-.44 1.01v.01l-.13.29h-.02v.04c-.24.53-.49 1.06-.74 1.59l-.14.3h-.01v.01l-.14.28h-.01v.02l-.14.28h-.01v.02l-.14.27h-.01v.03l-.14.27h-.01v.02l-.14.27h-.01v.02l-.14.28v.01c-.33.64-.68 1.28-1.03 1.92h-.01v.01c-.19.34-.38.68-.58 1.02h-.01v.03c-.2.34-.39.68-.59 1.01-.24.4-.48.79-.72 1.18h-.02v.03c-.24.39-.48.77-.73 1.15h-.01v.01c-.38.59-.78 1.18-1.18 1.76h-.01v.01c-.24.34-.48.69-.72 1.03h-.02v.03c-.38.54-.77 1.07-1.17 1.6h-.01v.02c-.14.19-.29.38-.44.58h-.01v.01c-.19.25-.38.49-.57.73h-.02v.03c-.39.49-.78.97-1.18 1.45h-.01v.01c-.24.29-.49.59-.74.88l-.12.15h-.02v.03c-.29.34-.59.67-.88 1.01h-.01v.01c-.53.6-1.08 1.19-1.63 1.77l-.14.15h-.01v.01l-.13.14h-.01v.01l-.13.13h-.02v.02l-.12.13h-.02v.03c-.27.28-.54.55-.82.83-.26.26-.52.52-.79.77h-.03v.03l-.13.12h-.02v.02l-.13.13h-.02v.02l-.14.13h-.01v.01l-.14.14c-.58.55-1.17 1.09-1.77 1.63h-.01v.01c-.33.3-.66.59-1 .88h-.04v.03l-.14.12h-.01v.01c-.58.5-1.18.99-1.77 1.47l-.74.59c-.19.15-.38.3-.57.44h-.02v.02c-.58.45-1.17.89-1.76 1.32h-.01v.01c-.34.25-.68.49-1.03.73h-.01v.01l-.42.29h-.03v.02c-.73.5-1.46.99-2.2 1.46h-.02v.01c-.39.25-.77.49-1.16.73h-.02v.01c-.48.3-.97.59-1.46.88h-.02v.01c-.34.2-.68.39-1.02.58h-.02v.01c-.44.25-.89.49-1.33.73-1.69.9-3.41 1.74-5.16 2.52h-.02v.01a75.756 75.756 0 0 1-3.96 1.61h-.03v.01c-.39.15-.79.29-1.18.43h-.01l-.42.15h-.03v.01l-.4.14h-.05v.02l-.39.13h-.05v.02c-.13.04-.26.09-.39.13h-.05v.02c-.13.04-.27.09-.4.13h-.04v.01l-.42.13h-.02v.01c-.48.15-.96.3-1.44.44h-.04v.01c-.33.1-.66.19-.99.28h-.05v.01c-.54.15-1.08.29-1.62.43h-.01l-.59.15-1.25.3h-.08v.02c-.19.04-.39.09-.58.13h-.01l-.68.15h-.06v.01c-.48.1-.95.19-1.43.28h-.05v.01c-.26.05-.51.09-.77.14h-.12v.02c-.9.16-1.8.3-2.7.42h-.11v.02c-.34.05-.68.09-1.02.13h-.16v.02c-.38.05-.76.09-1.14.13h-.04c-.5.05-1 .1-1.5.14h-.13v.01c-.65.05-1.3.1-1.95.14h-.12v.01c-1.44.08-2.89.12-4.34.12-1.5-.03-2.97-.07-4.43-.16zm-789.27-81.52-9.48-6.37-9.48-6.37-8.83-5.93h-7.86a56.3 56.3 0 0 1-3.91-.14v-.01h-.12c-1-.07-2-.17-2.99-.29v-.01h-.08c-.97-.12-1.93-.26-2.88-.43v-.01h-.07c-1.18-.21-2.34-.46-3.49-.74h-.01c-.74-.18-1.48-.38-2.22-.59v-.01h-.02c-.49-.14-.98-.29-1.46-.44-.15-.05-.29-.1-.44-.14v-.01h-.02c-.14-.05-.29-.09-.43-.14v-.01h-.03c-.14-.05-.28-.1-.42-.14h-.01c-.54-.19-1.08-.38-1.62-.59v-.01h-.01c-1.3-.5-2.58-1.04-3.84-1.62v-.01h-.01c-1-.47-1.98-.96-2.95-1.48-.7-.38-1.39-.77-2.07-1.18h-.01c-.25-.15-.49-.29-.73-.44-1.06-.65-2.1-1.34-3.11-2.06v-.02h-.02c-.34-.24-.68-.49-1.01-.74-.45-.33-.89-.68-1.33-1.02v-.01h-.01c-.55-.43-1.08-.88-1.61-1.33-.4-.34-.79-.69-1.18-1.04-2.13-1.92-4.11-4-5.92-6.22-.2-.24-.4-.49-.59-.73v-.01h-.01c-.61-.77-1.2-1.56-1.77-2.36v-.01h-.01c-.61-.87-1.2-1.75-1.77-2.65v-.01h-.01c-.46-.73-.9-1.47-1.32-2.21v-.01c-.3-.54-.6-1.08-.88-1.62v-.01l-.14-.28v-.02h-.01l-.14-.26v-.03h-.02c-.25-.49-.49-.98-.72-1.48-.53-1.12-1.02-2.25-1.48-3.41a58.82 58.82 0 0 1-1.63-4.74l-.3-1.03c-.21-.77-.41-1.55-.59-2.33v-.04h-.01c-.22-.96-.41-1.93-.58-2.9v-.06h-.01c-.36-2.06-.6-4.15-.73-6.28v-.09h-.01c-.07-1.13-.11-2.27-.11-3.42v-25.74c0-1.15.04-2.3.11-3.43v-.08c.09-1.47.24-2.93.43-4.37h.01v-.07c.09-.62.18-1.24.29-1.85h.01v-.05c.17-.98.37-1.95.59-2.92h.01v-.03c.04-.19.09-.38.14-.57h.01v-.05c1.02-4.24 2.52-8.29 4.43-12.1h.01v-.02c.05-.09.09-.19.14-.28h.01v-.02l.14-.28h.01v-.01a54.63 54.63 0 0 1 2.37-4.14 56.502 56.502 0 0 1 5.03-6.81h.01v-.02a57.69 57.69 0 0 1 6.05-6.06h.02v-.02a58.026 58.026 0 0 1 4.13-3.23h.01v-.01c.86-.61 1.75-1.2 2.65-1.77h.02v-.01c.72-.46 1.46-.9 2.21-1.32h.02v-.01c.44-.25.88-.49 1.33-.73l.28-.15h.02v-.01c1.2-.63 2.43-1.22 3.68-1.77h.02v-.01c.34-.15.68-.29 1.03-.44h.01c.24-.1.48-.2.71-.29h.03v-.01c.92-.37 1.86-.71 2.81-1.03h.01c1.92-.65 3.89-1.19 5.89-1.63h.03v-.01c.73-.16 1.46-.31 2.19-.44h.03v-.01c.29-.05.58-.1.86-.14h.02c.68-.11 1.36-.21 2.05-.29h.03c1.02-.13 2.05-.22 3.08-.29h.03c1.29-.09 2.59-.14 3.91-.14h38.2c1.28 0 2.56.05 3.82.13v.01h.11c1.01.07 2.01.16 3 .28v.01h.11c.36.04.71.09 1.07.14h.02c.89.13 1.77.27 2.64.44h.01c.69.13 1.38.27 2.06.43v.01h.05c2.63.61 5.18 1.4 7.65 2.36v.01h.03a55.69 55.69 0 0 1 7.97 3.84v.01h.02c1.57.91 3.1 1.9 4.57 2.96.6.43 1.19.87 1.77 1.33v.01h.01c.86.67 1.69 1.36 2.51 2.07.55.48 1.09.98 1.63 1.48.05.05.1.09.15.14v.01h.01l.14.13v.02h.02c.55.53 1.09 1.06 1.61 1.61v.02h.02l.13.13v.02h.01l.13.14v.01h.01c.5.53.99 1.07 1.48 1.62v.01h.01c1.83 2.09 3.51 4.31 5.03 6.65v.01h.01c.56.87 1.1 1.76 1.62 2.66.3.53.6 1.08.89 1.62v.01l.14.27v.02h.01c.35.68.7 1.37 1.02 2.07v.01a55.12 55.12 0 0 1 2.07 5.02v.02h.01c.43 1.21.83 2.44 1.18 3.69v.01c.27.96.52 1.94.74 2.93v.04h.01c.16.71.3 1.42.44 2.14v.08h.02c.16.91.31 1.82.43 2.74v.07h.01c.05.39.1.78.14 1.17v.02l.15 1.52v.11h.01c.06.78.11 1.57.14 2.35v.31h.01c.02.65.04 1.3.04 1.95v25.74c0 .65-.01 1.3-.04 1.94h-.01v.32c-.03.78-.08 1.57-.14 2.34h-.01v.12c-.04.5-.09 1.01-.14 1.51v.03c-.04.39-.09.77-.14 1.15h-.01v.09c-.22 1.67-.52 3.33-.88 4.95h-.01v.05c-.22.98-.46 1.95-.73 2.91h-.01v.02c-.68 2.43-1.53 4.8-2.52 7.09-.24.55-.48 1.09-.73 1.63h-.01v.02c-.42.9-.86 1.78-1.33 2.65v.01c-.24.45-.48.89-.73 1.33h-.01v.01c-.43.75-.87 1.48-1.33 2.21-.09.15-.19.29-.28.44h-.02v.06a58.519 58.519 0 0 1-3.4 4.71 55.85 55.85 0 0 1-2.96 3.4c-.04.05-.09.1-.13.14h-.01v.02c-.67.7-1.35 1.39-2.05 2.06h-.02v.02l-.14.13h-.01v.01l-.15.14c-.48.45-.97.9-1.47 1.33h-.01v.01c-.81.71-1.65 1.4-2.5 2.06h-.02v.02c-.58.45-1.17.89-1.76 1.32h-.02v.01c-.63.45-1.27.89-1.93 1.32a56.534 56.534 0 0 1-8.13 4.44h-.02v.01c-1.07.47-2.15.92-3.25 1.33h-.01c-1.16.43-2.35.83-3.54 1.18h-.01c-.34.1-.67.2-1.01.29h-.02v.01c-1.45.4-2.91.74-4.4 1.03h-.04v.01c-.25.05-.49.1-.74.14-.97.17-1.96.32-2.94.44h-.02c-1.01.13-2.03.22-3.05.29h-.06c-1.31.09-2.63.14-3.97.14v20.38l-2.61-1.68z" clip-rule="evenodd" class="colora2caff svgShape"></path><path fill="#ffffff" fill-rule="evenodd" d="m520.64 421.98.03 6.23h9.77l.95-6.23h-10.75zm-15.45 6.23h9.91l-.02-6.23h-11.51l1.62 6.23zm-12.51 0h6.81l-1.62-6.23h-7.22l2.03 6.23zm9.68 11.08-1.45-5.59h-6.42l1.83 5.59h6.04zm12.77-.01-.02-5.57h-8.5l1.44 5.57h7.08zm13.62 0 .84-5.57h-8.91l.02 5.57h8.05zm13.47-5.57h-7.01l-.85 5.57h4.15c.11 0 .23.01.35.02h2.44l.92-5.59zm1.93-11.73H537l-.96 6.23h7.08l1.03-6.23zm-5.45-11.22-.86 5.67h7.22l.93-5.67h-7.29zm-18.09 0 .02 5.67h11.61l.87-5.67h-12.5zm-19.95 0 1.47 5.67h12.94l-.02-5.67h-14.39zm-11.84 5.66h7.61l-1.47-5.67h-2.84c-1.82 0-3.31-1.48-3.31-3.31s1.49-3.31 3.31-3.31h61.68l-6.09 36.9a5.83 5.83 0 0 1-5.75 4.89H501.7c-3.45.32-3.97 1.84-6.42 4.29-1.49 1.49-1.98 2.77-2.38 4.45.85.45 1.58 1.1 2.13 1.89h34.94a6.056 6.056 0 0 1 11.03 3.46c0 3.34-2.71 6.06-6.06 6.06-2.68 0-4.96-1.74-5.75-4.16H495.8a6.056 6.056 0 0 1-5.75 4.16 6.056 6.056 0 0 1-4.77-9.79c1.06-4.53 3.42-8.83 6.72-11.72a5.85 5.85 0 0 1-1.79-2.65l-13.79-42.09a2.008 2.008 0 0 0-1.91-1.39h-4.9c-1.83 0-3.31-1.48-3.31-3.31s1.49-3.31 3.31-3.31h4.9c3.73 0 7.04 2.4 8.21 5.95l6.1 18.66z" clip-rule="evenodd" class="colorfff svgShape"></path></svg>