<svg xmlns="http://www.w3.org/2000/svg" enable-background="new 0 0 450 450" viewBox="0 0 450 450" width="550" height="550"><ellipse cx="214.36" cy="371.181" fill="#edf3ff" rx="175" ry="15.906" class="coloredf3ff svgShape"></ellipse><path fill="#edf3ff" d="M409.454 226.447c-1.75 16.78-10.73 32.08-21.86 44.76-25.03 28.54-61.52 45.88-99.14 50.85-37.63 4.98-76.27-1.87-111.46-16.1-7.38-2.98-14.69-6.36-21.77-10.15-5.55-2.96-10.96-6.19-16.16-9.68-17.25-11.61-32.17-26.21-42.09-44.37-21.21-38.86-14.51-90.79 15.22-123.61 24.04-26.53 61.8-29.51 97.03-35.26 15.89-2.59 32.49.18 43.68 11.76 1.88 1.94 3.62 3.99 5.25 6.12 8.12 10.58 13.53 23.19 19.75 35.1 6.42 12.31 14.47 24.63 25.97 32.01a44.24 44.24 0 0 0 5.87 3.19c25.06 11.21 57.21-3.15 80.5 11.38 14.31 8.93 20.97 27.22 19.21 44z" opacity=".5" class="coloredf3ff svgShape"></path><path fill="#edf3ff" d="M349.008 159.507c.452 1.057-12.015 7.61-28.612.871-46.978-18.834-36.87-98.395-111.837-94.243-2.083.105-3.175.013-3.237-.275-.42-1.946 39.107-12.446 65.933 23.105 18.25 24.147 32.537 77.508 74.528 70.755 2.024-.357 3.102-.509 3.225-.213zM325.618 328.99c.191 1.183-42.587 10.035-77.446 11.885-127.612 6.951-198.73-93.923-178.657-183.28 3.779-14.839 1.416.34.653 13.274-5.902 81.178 54.595 169.21 177.807 165.045 37.07-1.2 77.372-8.607 77.643-6.924z" class="coloredf3ff svgShape"></path><path fill="#d5e1fa" d="M307.637 83.915v273.267c0 8.06-6.557 14.594-14.617 14.594H163.968c-8.06 0-14.594-6.534-14.594-14.594V83.915c0-8.083 6.534-14.618 14.594-14.618H293.02c8.06 0 14.617 6.535 14.617 14.618z" class="colord5e1fa svgShape"></path><path fill="#ffffff" d="M303.084 92.84v255.416c0 5.533-4.509 10.041-10.064 10.041H163.968c-5.532 0-10.04-4.508-10.04-10.041V92.84c0-5.556 4.508-10.064 10.04-10.064H293.02c5.555 0 10.064 4.508 10.064 10.064z" class="colorfff svgShape"></path><path fill="#c7d6f2" d="M308.474 155.482h-.837v23.736h.837a3.216 3.216 0 0 0 3.214-3.214v-17.307a3.21 3.21 0 0 0-3.214-3.215zM149.371 114.977v23.737h-.837a3.21 3.21 0 0 1-3.214-3.215v-17.307a3.216 3.216 0 0 1 3.214-3.215h.837zM148.534 141.981h.837v23.737h-.837a3.21 3.21 0 0 1-3.214-3.215v-17.307a3.216 3.216 0 0 1 3.214-3.215z" class="colorc7d6f2 svgShape"></path><path fill="#383838" d="M180.268 102.594a.593.593 0 0 1-.187-.445v-3.547l-3.325-4.66a.71.71 0 0 1-.112-.376c0-.176.059-.327.174-.452a.574.574 0 0 1 .439-.188c.231 0 .418.107.556.32l2.908 4.23 2.907-4.23c.14-.213.325-.32.556-.32.176 0 .325.063.446.188.12.125.175.276.167.452a.71.71 0 0 1-.112.376l-3.338 4.66v3.547c0 .177-.061.325-.181.445-.121.12-.27.181-.445.181s-.328-.06-.453-.18zM186.466 102.385a3.113 3.113 0 0 1-1.245-1.3c-.292-.56-.438-1.203-.438-1.926 0-.724.146-1.366.438-1.927a3.113 3.113 0 0 1 1.245-1.3c.538-.307 1.164-.46 1.878-.46.705 0 1.326.153 1.864.46.538.305.955.739 1.252 1.3.297.56.445 1.203.445 1.927 0 .723-.148 1.365-.445 1.926a3.16 3.16 0 0 1-1.252 1.3c-.538.307-1.16.46-1.864.46-.714 0-1.34-.153-1.878-.46zm2.97-.96c.348-.175.635-.454.863-.834.226-.38.34-.862.34-1.447 0-.574-.114-1.052-.34-1.432-.228-.38-.515-.657-.864-.829a2.473 2.473 0 0 0-2.197 0c-.348.172-.633.449-.855.829-.223.38-.334.858-.334 1.432 0 .585.111 1.067.334 1.447.222.38.507.659.855.834a2.405 2.405 0 0 0 2.197 0zM194.764 102.483a2.356 2.356 0 0 1-.863-.987 3.16 3.16 0 0 1-.299-1.378v-3.95c0-.176.063-.325.188-.446.125-.12.276-.18.452-.18s.324.06.445.18c.12.121.181.27.181.446v3.811c0 1.132.51 1.697 1.53 1.697.464 0 .88-.12 1.245-.362.367-.24.712-.565 1.037-.974v-4.172c0-.176.062-.325.188-.446a.629.629 0 0 1 .452-.18c.176 0 .324.06.444.18.122.121.182.27.182.446v5.967c0 .176-.06.328-.182.453a.592.592 0 0 1-.444.187.616.616 0 0 1-.452-.187.614.614 0 0 1-.188-.453v-.57c-.353.39-.733.7-1.141.932-.408.232-.89.347-1.446.347-.511 0-.954-.12-1.33-.36zM202.324 102.594a.605.605 0 0 1-.18-.445v-5.968a.63.63 0 0 1 1.078-.452.617.617 0 0 1 .187.452v.599c.65-.872 1.378-1.308 2.185-1.308h.069c.176 0 .322.06.438.181a.62.62 0 0 1 .174.445c0 .176-.06.32-.18.431a.653.653 0 0 1-.46.167h-.07c-.444 0-.852.11-1.223.327s-.682.517-.933.898v4.228a.631.631 0 0 1-.64.626.608.608 0 0 1-.445-.18zM211.089 102.177c-.112-.046-.204-.123-.279-.23s-.11-.22-.11-.34c0-.158.052-.295.16-.411a.534.534 0 0 1 .41-.174c.092 0 .18.019.263.056a6.65 6.65 0 0 0 2.741.57c1.623 0 2.435-.533 2.435-1.6 0-.278-.105-.51-.314-.695s-.465-.33-.772-.438a18.928 18.928 0 0 0-1.308-.383 16.739 16.739 0 0 1-1.822-.563 3.18 3.18 0 0 1-1.196-.814c-.334-.361-.501-.844-.501-1.446 0-.53.14-1.01.418-1.44.278-.431.688-.774 1.231-1.03.542-.255 1.194-.383 1.954-.383 1.02 0 1.943.153 2.769.46.259.093.39.277.39.556a.61.61 0 0 1-.154.403.502.502 0 0 1-.403.182.641.641 0 0 1-.223-.056 6.786 6.786 0 0 0-2.24-.376c-.733 0-1.328.14-1.787.417-.46.278-.689.668-.689 1.169 0 .334.109.605.327.813.218.21.492.372.82.488s.777.239 1.344.368c.732.177 1.323.352 1.773.53.45.175.835.448 1.154.82.32.37.48.872.48 1.502 0 .52-.148.986-.445 1.398-.296.413-.714.735-1.251.967-.539.232-1.16.347-1.865.347a8.246 8.246 0 0 1-3.31-.667zM219.768 101.008v-4.312h-.987a.255.255 0 0 1-.187-.076.253.253 0 0 1-.078-.189c0-.091.042-.17.126-.236l1.892-1.85c.083-.084.162-.125.236-.125s.137.028.188.083.077.121.077.195v1.113h1.571a.525.525 0 0 1 .543.543.53.53 0 0 1-.153.382.512.512 0 0 1-.39.16h-1.571v4.201c0 .362.085.592.257.689.172.097.388.146.647.146.186 0 .37-.028.556-.084l.12-.027a.784.784 0 0 1 .158-.014c.13 0 .246.048.349.146a.474.474 0 0 1 .152.354c0 .214-.106.376-.32.487-.361.167-.746.25-1.154.25-1.354 0-2.032-.61-2.032-1.836zM225.34 102.594a1.973 1.973 0 0 1-.827-.73 2.01 2.01 0 0 1-.306-1.106c0-.686.27-1.233.813-1.641.542-.408 1.338-.612 2.386-.612h1.684v-.112c0-.612-.152-1.053-.452-1.321-.302-.27-.773-.403-1.413-.403-.352 0-.666.027-.939.083s-.577.14-.911.25a.779.779 0 0 1-.18.028.49.49 0 0 1-.362-.153.507.507 0 0 1-.153-.375c0-.251.12-.427.36-.53.789-.333 1.592-.5 2.408-.5.64 0 1.18.13 1.62.389.44.26.766.597.974 1.009.209.413.313.86.313 1.343v3.936a.632.632 0 0 1-.64.626.605.605 0 0 1-.445-.18.602.602 0 0 1-.18-.446v-.361c-.687.705-1.559 1.056-2.617 1.056-.408 0-.785-.083-1.133-.25zm2.79-1.16c.38-.2.7-.448.96-.746V99.52h-1.517c-1.4 0-2.1.366-2.1 1.099 0 .334.113.603.34.806.227.205.605.307 1.134.307.408 0 .802-.1 1.183-.299zM232.734 101.008v-4.312h-.987c-.075 0-.138-.025-.189-.076s-.076-.113-.076-.189c0-.091.042-.17.125-.236l1.892-1.85c.084-.084.162-.125.237-.125.074 0 .137.028.188.083s.076.121.076.195v1.113h1.572c.157 0 .287.05.39.153a.528.528 0 0 1 .153.39.534.534 0 0 1-.543.542H234v4.201c0 .362.086.592.258.689.17.097.386.146.646.146.186 0 .371-.028.557-.084l.118-.027a.78.78 0 0 1 .16-.014c.13 0 .245.048.348.146a.475.475 0 0 1 .153.354c0 .214-.107.376-.32.487-.362.167-.746.25-1.155.25-1.354 0-2.03-.61-2.03-1.836zM238.055 101.878c-.635-.645-.953-1.551-.953-2.72 0-.658.12-1.266.362-1.822a3.098 3.098 0 0 1 1.113-1.349c.501-.344 1.117-.515 1.85-.515.686 0 1.28.16 1.78.48s.882.747 1.141 1.28.39 1.115.39 1.745a.62.62 0 0 1-.174.446.615.615 0 0 1-.466.18h-4.715c.073.65.314 1.155.722 1.517s.979.543 1.711.543c.39 0 .73-.037 1.023-.112.293-.074.578-.181.856-.32a.547.547 0 0 1 .25-.056c.149 0 .278.051.39.154a.504.504 0 0 1 .167.39c0 .204-.121.374-.363.514a5.049 5.049 0 0 1-1.07.46c-.353.1-.807.151-1.364.151-1.13 0-2.015-.32-2.65-.966zm4.431-3.304c-.028-.454-.146-.834-.354-1.14a1.93 1.93 0 0 0-.773-.676 2.175 2.175 0 0 0-.931-.215 2.18 2.18 0 0 0-.933.215c-.306.145-.562.37-.765.675-.204.307-.32.687-.347 1.14h4.103zM245.588 102.594a.605.605 0 0 1-.18-.445v-5.968a.63.63 0 0 1 1.077-.452.617.617 0 0 1 .188.452v.57c.26-.37.573-.676.94-.917s.84-.362 1.425-.362c.52 0 .965.139 1.336.417.37.279.635.618.793 1.016.574-.955 1.428-1.433 2.56-1.433.518 0 .952.13 1.3.389.348.26.605.594.772 1.002s.25.835.25 1.28v4.006c0 .177-.063.325-.188.445s-.275.181-.452.181a.608.608 0 0 1-.445-.18.605.605 0 0 1-.181-.446v-3.756c0-.602-.106-1.046-.32-1.328-.213-.283-.58-.425-1.099-.425-.473 0-.864.123-1.175.37a3.535 3.535 0 0 0-.828.966v4.173a.632.632 0 0 1-.64.626.605.605 0 0 1-.445-.18.602.602 0 0 1-.18-.446v-3.756c0-.602-.108-1.046-.32-1.328-.215-.283-.58-.425-1.1-.425-.473 0-.865.123-1.175.37-.31.245-.587.567-.828.966v4.173c0 .177-.063.325-.188.445s-.276.181-.452.181-.324-.06-.445-.18zM258.7 101.878c-.636-.645-.953-1.551-.953-2.72 0-.658.12-1.266.361-1.822a3.103 3.103 0 0 1 1.113-1.349c.5-.344 1.118-.515 1.85-.515.687 0 1.28.16 1.78.48.501.32.882.747 1.142 1.28.259.533.389 1.115.389 1.745a.615.615 0 0 1-.174.446.613.613 0 0 1-.466.18h-4.716c.074.65.316 1.155.724 1.517s.978.543 1.71.543c.39 0 .731-.037 1.023-.112s.577-.181.856-.32a.55.55 0 0 1 .25-.056c.148 0 .278.051.39.154a.504.504 0 0 1 .166.39c0 .204-.12.374-.361.514a5.07 5.07 0 0 1-1.071.46c-.353.1-.807.151-1.364.151-1.131 0-2.014-.32-2.65-.966zm4.43-3.304c-.028-.454-.146-.834-.355-1.14a1.927 1.927 0 0 0-.771-.676c-.307-.143-.617-.215-.933-.215s-.626.072-.932.215c-.306.145-.561.37-.765.675-.204.307-.32.687-.348 1.14h4.104zM266.232 102.594a.602.602 0 0 1-.18-.445v-5.968c0-.175.06-.327.18-.452a.593.593 0 0 1 .446-.187c.175 0 .326.062.452.187a.617.617 0 0 1 .187.452v.57c.353-.389.733-.7 1.14-.931.41-.232.891-.348 1.447-.348.51 0 .953.12 1.33.362s.662.57.862.987c.199.418.298.877.298 1.378v3.95a.631.631 0 0 1-.64.626.608.608 0 0 1-.445-.18.605.605 0 0 1-.18-.446v-3.811c0-1.131-.51-1.698-1.53-1.698-.464 0-.88.121-1.246.363s-.712.565-1.036.973v4.173a.632.632 0 0 1-.64.626.605.605 0 0 1-.445-.18zM274.773 101.008v-4.312h-.987a.255.255 0 0 1-.188-.076.253.253 0 0 1-.077-.189c0-.091.042-.17.126-.236l1.892-1.85c.083-.084.162-.125.236-.125s.137.028.188.083.077.121.077.195v1.113h1.571a.525.525 0 0 1 .543.543.53.53 0 0 1-.153.382.512.512 0 0 1-.39.16h-1.571v4.201c0 .362.085.592.257.689.172.097.387.146.647.146.186 0 .37-.028.556-.084l.119-.027a.784.784 0 0 1 .16-.014c.13 0 .245.048.348.146a.474.474 0 0 1 .152.354c0 .214-.106.376-.32.487-.361.167-.746.25-1.154.25-1.354 0-2.032-.61-2.032-1.836z" class="color383838 svgShape"></path><path fill="#edf3ff" d="M230.715 209.406h-62.251a6.406 6.406 0 0 1-6.407-6.406v-69.748a6.406 6.406 0 0 1 6.407-6.406h62.251a6.406 6.406 0 0 1 6.407 6.406V203a6.406 6.406 0 0 1-6.407 6.406z" class="coloredf3ff svgShape"></path><path fill="#4052f2" d="M318.514 191.791h-62.252a6.406 6.406 0 0 1-6.406-6.406v-52.133a6.406 6.406 0 0 1 6.406-6.406h62.252a6.406 6.406 0 0 1 6.406 6.406v52.133a6.406 6.406 0 0 1-6.406 6.406z" class="color4052f2 svgShape"></path><path fill="#d5e1fa" d="M237.122 138.57v-5.318a6.406 6.406 0 0 0-6.407-6.406h-62.251a6.406 6.406 0 0 0-6.407 6.406v5.319h75.065z" class="colord5e1fa svgShape"></path><path fill="#2943e2" d="M324.92 138.57v-5.318a6.406 6.406 0 0 0-6.406-6.406h-62.252a6.406 6.406 0 0 0-6.406 6.406v5.319h75.064z" class="color2943e2 svgShape"></path><path fill="#383838" d="M174.55 201.072c-.211.318-.512.572-.9.762-.39.188-.84.298-1.351.327v.79a.328.328 0 0 1-.095.24.34.34 0 0 1-.25.093c-.097 0-.177-.03-.24-.089s-.094-.14-.094-.244v-.79a6.803 6.803 0 0 1-2.245-.523.508.508 0 0 1-.223-.182.47.47 0 0 1 .04-.6.425.425 0 0 1 .327-.14c.074 0 .145.015.211.044.6.267 1.23.415 1.89.445v-2.557c-.504-.134-.928-.278-1.273-.433s-.631-.376-.862-.662c-.23-.286-.344-.647-.344-1.084 0-.385.094-.74.284-1.067.188-.326.47-.597.844-.812s.825-.344 1.35-.39v-.777c0-.096.033-.178.096-.245a.312.312 0 0 1 .239-.1.33.33 0 0 1 .244.1.33.33 0 0 1 .1.245v.767c.727.03 1.372.151 1.935.366.207.075.31.223.31.446 0 .118-.04.225-.121.322a.4.4 0 0 1-.323.144.504.504 0 0 1-.177-.045 5.493 5.493 0 0 0-1.623-.3v2.647c.533.126.976.263 1.328.411.352.149.646.368.884.661s.356.681.356 1.163c0 .392-.106.749-.317 1.067zm-4.025-3.925c.248.178.614.33 1.095.456v-2.446c-.444.06-.8.194-1.067.406-.267.211-.4.487-.4.828 0 .326.124.578.372.756zm3.341 2.791c0-.289-.132-.514-.394-.673-.264-.159-.655-.31-1.173-.45v2.39c1.045-.073 1.567-.496 1.567-1.267zM177.546 201.972a.486.486 0 0 1-.145-.355.59.59 0 0 1 .068-.268l3.056-6.08h-4.035a.458.458 0 0 1-.339-.14.463.463 0 0 1-.14-.34c0-.132.047-.247.14-.343a.449.449 0 0 1 .34-.145h4.535c.178 0 .326.055.445.166s.177.252.177.423c0 .163-.037.326-.111.49l-3.157 6.459c-.044.082-.112.148-.2.2s-.182.078-.278.078a.487.487 0 0 1-.356-.145zM183.26 201.528a.632.632 0 0 1-.166-.162.426.426 0 0 1-.056-.238c0-.134.04-.247.123-.34a.41.41 0 0 1 .322-.139c.081 0 .16.019.234.056a3.749 3.749 0 0 0 1.778.467c.704 0 1.242-.119 1.612-.356.371-.237.556-.64.556-1.212 0-.459-.153-.822-.461-1.09-.308-.266-.729-.4-1.262-.4-.615 0-1.186.16-1.712.478a3.196 3.196 0 0 0-.128.073.516.516 0 0 1-.261.061.78.78 0 0 1-.523-.178.58.58 0 0 1-.21-.467c0-.09.006-.178.02-.267l.502-2.957a.65.65 0 0 1 .194-.406.56.56 0 0 1 .395-.15h3.569c.133 0 .246.046.339.14s.139.204.139.338-.046.245-.14.334-.205.133-.338.133h-3.225l-.355 2.357a3.893 3.893 0 0 1 1.879-.456c.548 0 1.016.108 1.406.322.389.215.684.512.884.89s.3.812.3 1.3c0 .75-.256 1.355-.767 1.818-.512.464-1.271.696-2.28.696-.904 0-1.693-.215-2.367-.645zM189.992 203.64a.333.333 0 0 1-.095-.233.31.31 0 0 1 .167-.278c.186-.112.326-.242.423-.39.096-.148.145-.362.145-.645h-.045a.595.595 0 0 1-.439-.183.595.595 0 0 1-.183-.439v-.067c0-.17.06-.316.183-.439a.595.595 0 0 1 .439-.183h.111c.171 0 .317.06.44.183a.6.6 0 0 1 .183.439v.656c0 .712-.305 1.253-.912 1.623a.35.35 0 0 1-.188.056.305.305 0 0 1-.229-.1zM193.339 201.094c-.516-.72-.773-1.69-.773-2.913 0-1.223.257-2.194.773-2.913.514-.719 1.261-1.078 2.24-1.078.97 0 1.716.36 2.234 1.078s.779 1.69.779 2.913c0 1.223-.26 2.194-.779 2.913-.518.72-1.263 1.079-2.234 1.079-.979 0-1.726-.36-2.24-1.079zm3.724-.668c.345-.54.517-1.289.517-2.245 0-.949-.172-1.693-.517-2.235-.344-.54-.84-.812-1.484-.812s-1.14.272-1.484.812c-.345.542-.517 1.286-.517 2.235 0 .956.172 1.705.517 2.245.344.542.84.813 1.484.813s1.14-.27 1.484-.813zM200.32 201.094c-.515-.72-.772-1.69-.772-2.913 0-1.223.257-2.194.772-2.913.515-.719 1.262-1.078 2.24-1.078.971 0 1.716.36 2.235 1.078s.778 1.69.778 2.913c0 1.223-.26 2.194-.778 2.913-.519.72-1.264 1.079-2.235 1.079-.978 0-1.725-.36-2.24-1.079zm3.725-.668c.344-.54.516-1.289.516-2.245 0-.949-.172-1.693-.516-2.235-.345-.54-.84-.812-1.485-.812s-1.14.272-1.484.812c-.345.542-.517 1.286-.517 2.235 0 .956.172 1.705.517 2.245.345.542.84.813 1.484.813s1.14-.27 1.485-.813zM207.303 201.094c-.516-.72-.774-1.69-.774-2.913 0-1.223.258-2.194.774-2.913.514-.719 1.261-1.078 2.24-1.078.97 0 1.715.36 2.234 1.078.519.719.778 1.69.778 2.913 0 1.223-.26 2.194-.778 2.913-.52.72-1.263 1.079-2.234 1.079-.979 0-1.726-.36-2.24-1.079zm3.723-.668c.345-.54.518-1.289.518-2.245 0-.949-.173-1.693-.518-2.235-.345-.54-.839-.812-1.483-.812-.646 0-1.14.272-1.485.812-.344.542-.517 1.286-.517 2.235 0 .956.173 1.705.517 2.245.345.542.84.813 1.485.813.644 0 1.138-.27 1.483-.813z" class="color383838 svgShape"></path><path fill="#ffffff" d="M263.003 183.526c-.211.318-.512.572-.9.762-.39.188-.84.298-1.351.327v.79a.328.328 0 0 1-.095.24.34.34 0 0 1-.25.093c-.097 0-.177-.03-.24-.089s-.094-.14-.094-.244v-.79a6.803 6.803 0 0 1-2.245-.523.508.508 0 0 1-.223-.182.47.47 0 0 1 .04-.6.425.425 0 0 1 .328-.14c.073 0 .144.015.21.045.601.266 1.23.415 1.89.444v-2.557c-.504-.134-.928-.278-1.272-.433s-.632-.376-.863-.662c-.23-.286-.343-.647-.343-1.084 0-.385.093-.74.283-1.067.188-.326.47-.597.845-.811s.824-.345 1.35-.39v-.778c0-.096.032-.178.095-.245a.312.312 0 0 1 .24-.1.33.33 0 0 1 .243.1.33.33 0 0 1 .1.245v.767c.727.03 1.372.152 1.935.366.207.075.31.223.31.446 0 .118-.04.225-.121.322a.4.4 0 0 1-.322.145.504.504 0 0 1-.178-.045 5.493 5.493 0 0 0-1.623-.3v2.646c.533.126.976.263 1.328.411.352.149.646.369.884.662s.356.68.356 1.162c0 .392-.106.749-.317 1.067zm-4.025-3.925c.248.178.614.33 1.095.456v-2.446c-.444.06-.8.194-1.067.406-.267.211-.4.488-.4.828 0 .327.124.578.372.756zm3.341 2.791c0-.289-.132-.513-.394-.673-.264-.159-.655-.31-1.173-.45v2.39c1.045-.073 1.567-.496 1.567-1.267zM265.999 184.426a.486.486 0 0 1-.145-.355.59.59 0 0 1 .068-.268l3.056-6.08h-4.035a.458.458 0 0 1-.339-.14.463.463 0 0 1-.14-.34c0-.132.048-.247.14-.343a.449.449 0 0 1 .34-.144h4.535c.178 0 .327.054.445.166s.177.251.177.422c0 .163-.037.327-.11.49l-3.158 6.459c-.044.082-.111.148-.2.2s-.182.078-.278.078a.487.487 0 0 1-.356-.145zM271.714 183.982a.632.632 0 0 1-.167-.162.426.426 0 0 1-.056-.238c0-.134.041-.247.123-.34a.41.41 0 0 1 .322-.139c.081 0 .16.019.234.056a3.749 3.749 0 0 0 1.778.467c.704 0 1.242-.119 1.612-.356.371-.237.556-.64.556-1.212 0-.459-.153-.822-.46-1.09-.308-.266-.73-.4-1.263-.4-.615 0-1.186.16-1.712.479a3.196 3.196 0 0 0-.127.072.516.516 0 0 1-.262.061.78.78 0 0 1-.523-.178.58.58 0 0 1-.21-.467c0-.089.006-.178.02-.267l.502-2.957a.65.65 0 0 1 .194-.406.56.56 0 0 1 .395-.15h3.57c.132 0 .245.046.338.14s.139.204.139.338-.046.245-.139.334-.206.133-.339.133h-3.225l-.355 2.357a3.893 3.893 0 0 1 1.879-.456c.548 0 1.017.108 1.406.322.389.215.684.512.884.89s.3.812.3 1.3c0 .75-.256 1.355-.767 1.818-.512.464-1.271.696-2.28.696-.903 0-1.692-.215-2.367-.645zM278.445 186.094a.333.333 0 0 1-.095-.233.31.31 0 0 1 .167-.278c.186-.112.327-.242.423-.39.096-.147.145-.362.145-.645h-.045a.595.595 0 0 1-.439-.183.595.595 0 0 1-.183-.439v-.067c0-.17.06-.316.183-.438a.595.595 0 0 1 .439-.184h.111c.171 0 .318.06.44.184a.6.6 0 0 1 .183.438v.656c0 .712-.304 1.253-.912 1.623a.35.35 0 0 1-.188.056.305.305 0 0 1-.229-.1zM281.792 183.548c-.516-.72-.773-1.69-.773-2.913 0-1.223.257-2.194.773-2.913.514-.718 1.262-1.078 2.24-1.078.97 0 1.716.36 2.234 1.078s.779 1.69.779 2.913c0 1.223-.26 2.194-.779 2.913-.518.72-1.263 1.079-2.234 1.079-.978 0-1.726-.36-2.24-1.079zm3.724-.667c.345-.54.517-1.29.517-2.246 0-.949-.172-1.693-.517-2.235-.344-.54-.84-.811-1.484-.811s-1.14.271-1.484.811c-.345.542-.517 1.286-.517 2.235 0 .956.172 1.705.517 2.246.344.542.84.812 1.484.812s1.14-.27 1.484-.812zM288.773 183.548c-.515-.72-.772-1.69-.772-2.913 0-1.223.257-2.194.772-2.913.515-.718 1.262-1.078 2.24-1.078.971 0 1.716.36 2.235 1.078s.778 1.69.778 2.913c0 1.223-.26 2.194-.778 2.913-.519.72-1.264 1.079-2.234 1.079-.979 0-1.726-.36-2.24-1.079zm3.725-.667c.345-.54.516-1.29.516-2.246 0-.949-.171-1.693-.516-2.235-.345-.54-.84-.811-1.484-.811s-1.14.271-1.485.811c-.345.542-.516 1.286-.516 2.235 0 .956.171 1.705.516 2.246.345.542.84.812 1.485.812s1.14-.27 1.484-.812zM295.756 183.548c-.516-.72-.774-1.69-.774-2.913 0-1.223.258-2.194.774-2.913.514-.718 1.261-1.078 2.24-1.078.97 0 1.715.36 2.234 1.078.519.72.779 1.69.779 2.913 0 1.223-.26 2.194-.779 2.913-.52.72-1.263 1.079-2.234 1.079-.979 0-1.726-.36-2.24-1.079zm3.723-.667c.345-.54.518-1.29.518-2.246 0-.949-.173-1.693-.518-2.235-.344-.54-.839-.811-1.483-.811-.646 0-1.14.271-1.484.811-.345.542-.518 1.286-.518 2.235 0 .956.173 1.705.518 2.246.344.542.838.812 1.484.812.644 0 1.139-.27 1.483-.812z" class="colorfff svgShape"></path><path fill="#d5e1fa" d="M198.358 186.638c-10.636 0-19.289-8.652-19.289-19.288s8.653-19.288 19.289-19.288 19.288 8.652 19.288 19.288-8.653 19.288-19.288 19.288zm0-36.166c-9.307 0-16.879 7.571-16.879 16.878s7.572 16.878 16.879 16.878 16.878-7.571 16.878-16.878-7.572-16.878-16.878-16.878z" class="colord5e1fa svgShape"></path><path fill="#4052f2" d="M198.358 186.638c-10.636 0-19.289-8.652-19.289-19.288s8.653-19.288 19.289-19.288a1.205 1.205 0 0 1 0 2.41c-9.307 0-16.879 7.571-16.879 16.878s7.572 16.878 16.879 16.878c7.045 0 13.413-4.44 15.845-11.05a1.205 1.205 0 0 1 2.262.832c-2.78 7.554-10.056 12.628-18.107 12.628z" class="color4052f2 svgShape"></path><path fill="#d5e1fa" d="M209.293 158.238c5.024 6.03 4.206 15.023-1.824 20.047-6.03 5.024-15.022 4.206-20.046-1.824-5.024-6.03-4.206-15.022 1.823-20.046 6.03-5.024 15.022-4.206 20.047 1.823zm-20.018 16.68c4.173 5.009 11.643 5.688 16.651 1.515 5.009-4.173 5.688-11.643 1.515-16.652-4.174-5.008-11.643-5.688-16.652-1.514-5.008 4.173-5.688 11.643-1.514 16.652z" class="colord5e1fa svgShape"></path><path fill="#32b5b3" d="M209.293 158.238c5.024 6.03 4.206 15.023-1.824 20.047-6.03 5.024-15.022 4.206-20.046-1.824a1.205 1.205 0 0 1 1.852-1.542c4.173 5.008 11.643 5.687 16.651 1.514 5.009-4.173 5.688-11.643 1.515-16.652-4.174-5.008-11.643-5.688-16.652-1.514a1.205 1.205 0 0 1-1.543-1.852c6.03-5.024 15.022-4.206 20.047 1.823z" class="color32b5b3 svgShape"></path><path fill="#1939d1" d="M319.893 147.464c.085.01.152.478.023 1.407-.136.92-.487 2.325-1.483 3.961a11.55 11.55 0 0 1-5.423 4.627c-1.344.562-2.915.94-4.637.954-1.751.053-3.526-.505-5.197-.707-1.427-.21-2.707.037-3.916.771-1.203.717-2.228 1.767-3.168 2.942-.95 1.175-1.844 2.473-2.946 3.683a15.318 15.318 0 0 1-3.862 3.061c-2.874 1.608-6.289 2.281-9.564 1.796a15.633 15.633 0 0 1-4.703-1.465c-1.473-.713-2.849-1.757-3.987-2.837-1.329-1.27-2.527-2.336-3.845-2.643-1.305-.34-2.657.003-3.743.586-2.23 1.198-3.331 3.202-4.007 4.812-.673 1.635-1.003 2.962-1.276 3.828-.263.872-.435 1.303-.532 1.284-.094-.018-.107-.48-.017-1.394.102-.91.265-2.287.832-4.086.292-.895.704-1.896 1.36-2.918a9.05 9.05 0 0 1 2.915-2.807c1.272-.756 2.989-1.307 4.84-.902 1.87.392 3.345 1.73 4.673 2.929 1.119 1.055 2.252 1.904 3.579 2.557a13.86 13.86 0 0 0 4.164 1.297c2.888.428 5.892-.163 8.446-1.589a13.53 13.53 0 0 0 3.414-2.707c.996-1.09 1.873-2.356 2.876-3.6.998-1.245 2.166-2.475 3.644-3.355a7.817 7.817 0 0 1 2.44-.959c.884-.173 1.78-.155 2.605-.047 1.959.297 3.504.839 4.986.83a11.124 11.124 0 0 0 4.085-.683 10.979 10.979 0 0 0 5.085-3.848c1.032-1.412 1.52-2.668 1.818-3.503.292-.843.413-1.288.521-1.275z" class="color1939d1 svgShape"></path><path fill="#ffffff" d="M319.319 145.112c.084.01.151.478.022 1.408-.136.92-.487 2.324-1.483 3.96a11.55 11.55 0 0 1-5.423 4.627c-1.344.562-2.915.94-4.637.955-1.751.052-3.525-.506-5.197-.707-1.427-.21-2.707.036-3.916.77-1.203.717-2.228 1.767-3.168 2.943-.95 1.174-1.844 2.472-2.946 3.682a15.318 15.318 0 0 1-3.862 3.062c-2.874 1.608-6.289 2.28-9.563 1.796a15.633 15.633 0 0 1-4.703-1.466c-1.474-.713-2.85-1.756-3.987-2.837-1.33-1.269-2.528-2.336-3.846-2.642-1.305-.34-2.657.002-3.743.585-2.23 1.198-3.33 3.202-4.007 4.812-.673 1.636-1.003 2.963-1.275 3.828-.264.872-.436 1.303-.533 1.284-.094-.017-.107-.48-.017-1.393.102-.91.265-2.287.832-4.087.292-.895.705-1.895 1.36-2.918a9.05 9.05 0 0 1 2.916-2.807c1.271-.755 2.988-1.307 4.839-.901 1.87.392 3.345 1.729 4.673 2.928 1.119 1.055 2.252 1.905 3.579 2.557a13.859 13.859 0 0 0 4.164 1.298c2.888.427 5.892-.164 8.446-1.59a13.53 13.53 0 0 0 3.414-2.706c.996-1.09 1.874-2.357 2.876-3.601.998-1.244 2.166-2.474 3.644-3.355a7.817 7.817 0 0 1 2.44-.958c.885-.174 1.78-.156 2.605-.048 1.959.298 3.504.84 4.986.831a11.123 11.123 0 0 0 4.085-.684 10.978 10.978 0 0 0 5.086-3.847c1.032-1.413 1.52-2.668 1.817-3.504.292-.843.414-1.288.522-1.275z" class="colorfff svgShape"></path><path fill="#3fc4bd" d="M204.83 226.516v11.563a3.423 3.423 0 0 1-3.419 3.418H189.85a3.423 3.423 0 0 1-3.418-3.418v-11.563a3.423 3.423 0 0 1 3.418-3.418h11.562a3.423 3.423 0 0 1 3.418 3.418z" class="color3fc4bd svgShape"></path><path fill="#ffcf4e" d="M270.58 226.728v11.562a3.424 3.424 0 0 1-3.425 3.419H235.85a3.423 3.423 0 0 1-3.419-3.419v-11.562a3.423 3.423 0 0 1 3.419-3.418h31.305a3.424 3.424 0 0 1 3.425 3.418z" class="colorffcf4e svgShape"></path><path fill="#6ed9ff" d="M227.83 226.48v11.563a3.423 3.423 0 0 1-3.418 3.418h-11.563a3.423 3.423 0 0 1-3.418-3.418V226.48a3.423 3.423 0 0 1 3.418-3.419h11.563a3.423 3.423 0 0 1 3.418 3.419z" class="color6ed9ff svgShape"></path><path fill="#ffffff" d="M256.315 232.512a1.02 1.02 0 0 1-1.018 1.017h-2.774v2.775c0 .563-.455 1.018-1.018 1.018a1.016 1.016 0 0 1-1.018-1.018v-2.775h-2.774a1.02 1.02 0 0 1-1.018-1.017c0-.563.455-1.018 1.018-1.018h2.774v-2.781c0-.563.455-1.018 1.018-1.018s1.018.455 1.018 1.018v2.781h2.774c.564 0 1.018.455 1.018 1.018zM199.32 231.908a1.024 1.024 0 0 1-1.438 0l-1.234-1.235v5.93c0 .563-.455 1.017-1.018 1.017a1.016 1.016 0 0 1-1.018-1.017v-5.93l-1.234 1.235a1.024 1.024 0 0 1-.72.299c-.257 0-.522-.102-.719-.299-.4-.4-.4-1.045 0-1.438l2.972-2.979a1.024 1.024 0 0 1 1.438 0l2.972 2.979c.4.393.4 1.038 0 1.438zM214.503 232.873a1.024 1.024 0 0 1 1.438 0l1.235 1.235v-5.93c0-.563.455-1.017 1.018-1.017s1.017.454 1.017 1.017v5.93l1.235-1.235c.197-.197.462-.299.72-.299.257 0 .522.102.718.299.4.4.4 1.045 0 1.438l-2.971 2.979c-.4.393-1.038.393-1.438 0l-2.972-2.979c-.4-.393-.4-1.038 0-1.438z" class="colorfff svgShape"></path><path fill="#edf3ff" d="M292.394 263.076v77.225a6.755 6.755 0 0 1-6.764 6.764H172.127a6.76 6.76 0 0 1-6.764-6.764v-77.225a6.766 6.766 0 0 1 6.764-6.764H285.63a6.76 6.76 0 0 1 6.764 6.764z" class="coloredf3ff svgShape"></path><circle cx="182.198" cy="278.437" r="9.103" fill="#3fc4bd" class="color3fc4bd svgShape"></circle><circle cx="182.198" cy="304.391" r="9.103" fill="#6ed9ff" class="color6ed9ff svgShape"></circle><circle cx="182.198" cy="328.94" r="9.103" fill="#4052f2" class="color4052f2 svgShape"></circle><path fill="#383838" d="M260.245 280.577a2.219 2.219 0 0 1-.9.762c-.39.188-.84.297-1.352.327v.79a.328.328 0 0 1-.094.239.341.341 0 0 1-.25.094.332.332 0 0 1-.239-.09.318.318 0 0 1-.095-.243v-.79a6.803 6.803 0 0 1-2.246-.523.508.508 0 0 1-.222-.182.477.477 0 0 1 .039-.601.427.427 0 0 1 .328-.14c.074 0 .144.016.21.045.601.267 1.231.415 1.891.445v-2.557a8.38 8.38 0 0 1-1.273-.434 2.301 2.301 0 0 1-.862-.66c-.229-.287-.344-.648-.344-1.085 0-.385.094-.74.283-1.067.19-.326.47-.597.846-.812.374-.214.824-.344 1.35-.39v-.778a.34.34 0 0 1 .095-.244.311.311 0 0 1 .238-.1.33.33 0 0 1 .245.1c.067.067.1.149.1.244v.768c.727.03 1.371.151 1.935.366.208.074.311.223.311.446a.49.49 0 0 1-.122.322.402.402 0 0 1-.322.144.503.503 0 0 1-.179-.045 5.493 5.493 0 0 0-1.623-.3v2.647c.534.126.977.263 1.33.411.35.149.646.368.883.661s.355.681.355 1.162c0 .393-.105.75-.316 1.068zm-4.025-3.925c.249.178.613.33 1.095.456v-2.446c-.445.06-.8.194-1.067.406-.267.211-.4.487-.4.828 0 .326.124.578.372.756zm3.341 2.791c0-.289-.131-.514-.395-.673-.263-.159-.654-.31-1.173-.45v2.39c1.045-.074 1.568-.496 1.568-1.267zM261.93 281.405a.553.553 0 0 1-.167-.417c0-.386.112-.741.338-1.067.226-.327.5-.614.823-.862.323-.248.747-.543 1.273-.884.452-.289.812-.534 1.078-.734.268-.2.49-.418.667-.655.179-.238.268-.49.268-.757 0-.422-.14-.757-.417-1.006-.279-.248-.725-.372-1.34-.372-.667 0-1.3.133-1.901.4a.473.473 0 0 1-.211.056.42.42 0 0 1-.423-.434.44.44 0 0 1 .245-.412 5.439 5.439 0 0 1 2.468-.566c.474 0 .906.094 1.295.283.39.19.697.454.922.795.227.34.34.734.34 1.179 0 .437-.129.843-.383 1.217a4.418 4.418 0 0 1-.918.984c-.356.281-.819.607-1.39.979-.519.348-.91.627-1.173.838-.263.212-.446.43-.55.65h3.87c.132 0 .245.048.338.14s.139.205.139.34c0 .132-.046.243-.139.332s-.206.134-.339.134h-4.292a.58.58 0 0 1-.421-.161zM268.973 281.416a.595.595 0 0 1-.184-.439v-.067c0-.17.06-.317.184-.439a.595.595 0 0 1 .438-.183h.111c.171 0 .318.06.44.183a.6.6 0 0 1 .183.439v.067a.6.6 0 0 1-.183.439.596.596 0 0 1-.44.183h-.111a.595.595 0 0 1-.438-.183zM271.856 281.232a.475.475 0 0 1-.21-.161.428.428 0 0 1-.079-.26.47.47 0 0 1 .128-.329.415.415 0 0 1 .318-.139c.066 0 .136.015.21.044a4.695 4.695 0 0 0 1.768.323c.578 0 1.065-.094 1.462-.284.396-.188.595-.505.595-.95 0-.934-.819-1.401-2.457-1.401h-.178c-.126 0-.235-.046-.328-.139s-.139-.202-.139-.328.046-.235.139-.328.202-.139.328-.139h.067c.74 0 1.308-.113 1.7-.339.394-.226.59-.561.59-1.006a.98.98 0 0 0-.445-.845c-.296-.207-.733-.312-1.311-.312-.623 0-1.198.123-1.724.368a.534.534 0 0 1-.2.044.403.403 0 0 1-.288-.117.39.39 0 0 1-.123-.295c0-.17.074-.296.222-.378a4.638 4.638 0 0 1 2.201-.566c.853 0 1.512.174 1.98.522.467.35.7.841.7 1.479 0 .512-.128.913-.384 1.206s-.576.51-.962.65c.423.097.8.3 1.13.607.328.307.493.764.493 1.373 0 .682-.268 1.21-.805 1.584s-1.229.561-2.073.561a6.084 6.084 0 0 1-2.325-.445zM279.144 280.6c-.515-.72-.772-1.691-.772-2.914s.257-2.194.772-2.913c.515-.719 1.262-1.078 2.24-1.078.971 0 1.716.36 2.235 1.078s.778 1.69.778 2.913c0 1.223-.26 2.194-.778 2.913-.519.719-1.264 1.078-2.234 1.078-.979 0-1.726-.359-2.24-1.078zm3.725-.669c.345-.54.517-1.289.517-2.245 0-.949-.172-1.693-.517-2.235-.345-.54-.84-.812-1.484-.812s-1.14.272-1.485.812c-.344.542-.516 1.286-.516 2.235 0 .956.172 1.705.516 2.245.345.542.84.813 1.485.813s1.14-.27 1.484-.813zM260.245 306.966a2.219 2.219 0 0 1-.9.762c-.39.189-.84.298-1.352.327v.79a.328.328 0 0 1-.094.24.341.341 0 0 1-.25.093.332.332 0 0 1-.239-.088.318.318 0 0 1-.095-.245v-.79a6.803 6.803 0 0 1-2.246-.522.508.508 0 0 1-.222-.183.477.477 0 0 1 .039-.6.427.427 0 0 1 .328-.14c.074 0 .144.016.21.045.601.267 1.231.415 1.891.444v-2.556a8.38 8.38 0 0 1-1.273-.434 2.301 2.301 0 0 1-.862-.661c-.229-.286-.344-.648-.344-1.084 0-.386.094-.741.283-1.067.19-.327.47-.597.846-.812.374-.215.824-.345 1.35-.39v-.778a.34.34 0 0 1 .095-.244.311.311 0 0 1 .238-.1.33.33 0 0 1 .245.1c.067.066.1.148.1.244v.768c.727.029 1.371.151 1.935.366.208.074.311.222.311.445a.49.49 0 0 1-.122.322.402.402 0 0 1-.322.145.503.503 0 0 1-.179-.045 5.493 5.493 0 0 0-1.623-.3v2.647c.534.126.977.262 1.33.41.35.15.646.369.883.662s.355.68.355 1.162c0 .393-.105.75-.316 1.067zm-4.025-3.924c.249.177.613.33 1.095.456v-2.447c-.445.06-.8.195-1.067.407-.267.21-.4.487-.4.828 0 .326.124.578.372.756zm3.341 2.79c0-.288-.131-.513-.395-.672-.263-.16-.654-.31-1.173-.45v2.39c1.045-.074 1.568-.497 1.568-1.267zM262.674 307.822a.452.452 0 0 1-.133-.333c0-.134.044-.246.133-.339s.2-.14.334-.14h1.323v-5.636l-1.135.556a.691.691 0 0 1-.255.067c-.141 0-.256-.045-.344-.134s-.134-.203-.134-.345c0-.207.096-.36.289-.455l1.512-.79a.692.692 0 0 1 .311-.077h.233c.149 0 .275.052.378.155s.157.23.157.378v6.281h1.1c.133 0 .246.047.34.14s.138.205.138.339c0 .133-.046.244-.139.333s-.206.134-.339.134h-3.435a.453.453 0 0 1-.334-.134zM268.973 307.805a.595.595 0 0 1-.184-.438v-.068c0-.17.06-.316.184-.438a.595.595 0 0 1 .438-.184h.111c.171 0 .318.06.44.184a.6.6 0 0 1 .183.438v.068a.6.6 0 0 1-.183.438.596.596 0 0 1-.44.184h-.111a.595.595 0 0 1-.438-.184zM271.567 304.087c0-.645.107-1.27.318-1.88a3.4 3.4 0 0 1 1.039-1.517c.482-.403 1.104-.605 1.868-.605.415 0 .778.044 1.09.132.31.09.603.205.878.345a.456.456 0 0 1 .167.167.453.453 0 0 1-.062.55.424.424 0 0 1-.328.14.546.546 0 0 1-.189-.034 3.452 3.452 0 0 0-1.478-.322c-.838 0-1.427.292-1.768.878a4.275 4.275 0 0 0-.567 1.968c.223-.281.519-.515.89-.7.37-.186.834-.279 1.39-.279.503 0 .946.108 1.327.323.382.215.68.52.896.912.215.392.322.852.322 1.379 0 .466-.111.892-.334 1.278-.221.385-.54.69-.956.911-.415.223-.9.334-1.456.334-2.031 0-3.047-1.327-3.047-3.98zm3.964 2.818a1.54 1.54 0 0 0 .817-1.384c0-.504-.14-.908-.422-1.212-.282-.303-.694-.456-1.234-.456-.964 0-1.664.408-2.101 1.223.2 1.364.878 2.046 2.034 2.046.34 0 .643-.073.906-.217zM278.55 304.087c0-.645.105-1.27.316-1.88a3.402 3.402 0 0 1 1.04-1.517c.482-.403 1.105-.605 1.867-.605.415 0 .779.044 1.09.132s.605.205.879.345a.447.447 0 0 1 .166.167.445.445 0 0 1-.06.55.427.427 0 0 1-.329.14.556.556 0 0 1-.19-.034 3.445 3.445 0 0 0-1.478-.322c-.837 0-1.426.292-1.767.878s-.53 1.241-.568 1.968c.223-.281.52-.515.89-.7.371-.186.834-.279 1.39-.279.504 0 .947.108 1.329.323.382.215.68.52.894.912s.323.852.323 1.379c0 .466-.112.892-.333 1.278-.223.385-.541.69-.956.911-.415.223-.9.334-1.457.334-2.03 0-3.046-1.327-3.046-3.98zm3.964 2.818a1.53 1.53 0 0 0 .605-.584c.14-.244.21-.51.21-.8 0-.504-.14-.908-.42-1.212-.283-.303-.694-.456-1.235-.456-.964 0-1.664.408-2.102 1.223.2 1.364.879 2.046 2.035 2.046.341 0 .643-.073.907-.217zM260.245 331.08a2.219 2.219 0 0 1-.9.761c-.39.189-.84.298-1.352.328v.79a.328.328 0 0 1-.094.239.341.341 0 0 1-.25.094.332.332 0 0 1-.239-.09.318.318 0 0 1-.095-.243v-.79a6.803 6.803 0 0 1-2.246-.523.508.508 0 0 1-.222-.182.477.477 0 0 1 .039-.601.427.427 0 0 1 .328-.14c.074 0 .144.016.21.045.601.267 1.231.415 1.891.445v-2.557a8.38 8.38 0 0 1-1.273-.434 2.301 2.301 0 0 1-.862-.66c-.229-.287-.344-.648-.344-1.085 0-.386.094-.741.283-1.067.19-.326.47-.597.846-.812.374-.215.824-.344 1.35-.39v-.778a.34.34 0 0 1 .095-.244.311.311 0 0 1 .238-.1.33.33 0 0 1 .245.1c.067.067.1.149.1.244v.768c.727.03 1.371.151 1.935.366.208.074.311.223.311.445a.49.49 0 0 1-.122.323.402.402 0 0 1-.322.144.503.503 0 0 1-.179-.045 5.493 5.493 0 0 0-1.623-.3v2.647c.534.126.977.263 1.33.411.35.149.646.368.883.661s.355.68.355 1.162c0 .393-.105.75-.316 1.068zm-4.025-3.925c.249.178.613.33 1.095.456v-2.446c-.445.06-.8.194-1.067.406-.267.21-.4.487-.4.828 0 .326.124.578.372.756zm3.341 2.791c0-.29-.131-.514-.395-.673-.263-.16-.654-.31-1.173-.45v2.39c1.045-.074 1.568-.497 1.568-1.267zM262.674 331.935a.452.452 0 0 1-.133-.333c0-.134.044-.246.133-.339s.2-.14.334-.14h1.323v-5.636l-1.135.557a.691.691 0 0 1-.255.066c-.141 0-.256-.045-.344-.134s-.134-.203-.134-.344c0-.208.096-.36.289-.456l1.512-.79a.692.692 0 0 1 .311-.077h.233c.149 0 .275.052.378.156s.157.229.157.377v6.282h1.1c.133 0 .246.047.34.14s.138.204.138.338c0 .133-.046.244-.139.333s-.206.134-.339.134h-3.435a.453.453 0 0 1-.334-.134zM268.973 331.919a.595.595 0 0 1-.184-.439v-.067c0-.17.06-.317.184-.439a.595.595 0 0 1 .438-.183h.111c.171 0 .318.06.44.183a.6.6 0 0 1 .183.439v.067a.6.6 0 0 1-.183.439.596.596 0 0 1-.44.183h-.111a.595.595 0 0 1-.438-.183zM272.924 332.047a4.771 4.771 0 0 1-.878-.345.46.46 0 0 1-.167-.166.454.454 0 0 1 .39-.69c.066 0 .128.011.188.034.46.214.952.322 1.478.322.838 0 1.427-.293 1.769-.878a4.29 4.29 0 0 0 .566-1.968 2.586 2.586 0 0 1-.89.7c-.37.186-.832.278-1.389.278-.504 0-.946-.108-1.328-.323s-.68-.518-.896-.91-.322-.853-.322-1.38c0-.466.111-.892.334-1.278.222-.386.541-.69.956-.912.415-.222.9-.333 1.456-.333 2.032 0 3.047 1.326 3.047 3.98 0 .645-.106 1.27-.317 1.878a3.389 3.389 0 0 1-1.04 1.518c-.482.404-1.104.606-1.867.606a3.99 3.99 0 0 1-1.09-.133zm3.29-4.859c-.2-1.363-.877-2.046-2.033-2.046-.341 0-.644.073-.907.217a1.53 1.53 0 0 0-.605.584 1.572 1.572 0 0 0-.212.8c0 .505.14.909.423 1.213.281.303.692.455 1.234.455.963 0 1.663-.407 2.1-1.223zM278.839 331.735a.475.475 0 0 1-.211-.161.422.422 0 0 1-.078-.26c0-.127.043-.236.128-.329s.19-.139.316-.139c.067 0 .138.015.212.044a4.687 4.687 0 0 0 1.767.323c.579 0 1.066-.094 1.462-.284.397-.188.595-.506.595-.95 0-.934-.82-1.401-2.457-1.401h-.178c-.126 0-.235-.046-.328-.139s-.138-.202-.138-.328.045-.235.138-.328.202-.139.328-.139h.067c.741 0 1.308-.113 1.7-.339.394-.226.59-.561.59-1.007a.98.98 0 0 0-.445-.844c-.296-.207-.733-.312-1.311-.312-.623 0-1.197.123-1.724.367a.535.535 0 0 1-.2.045.403.403 0 0 1-.289-.117.388.388 0 0 1-.122-.295c0-.17.074-.296.222-.378a4.638 4.638 0 0 1 2.202-.566c.851 0 1.512.174 1.978.522s.7.841.7 1.479c0 .512-.127.913-.382 1.206-.256.293-.577.51-.962.65.422.097.799.3 1.128.607.33.307.495.764.495 1.373 0 .681-.269 1.21-.806 1.584-.538.374-1.228.561-2.074.561a6.082 6.082 0 0 1-2.323-.445z" class="color383838 svgShape"></path><path fill="#d5e1fa" d="M359.698 83.908s-7.512 9.015-24.79 9.015v14.62c0 11.23 4.877 22.06 13.707 28.998 3.124 2.457 6.81 4.57 11.083 5.837 4.273-1.268 7.957-3.38 11.083-5.837 8.83-6.939 13.707-17.768 13.707-28.998v-14.62c-17.278 0-24.79-9.015-24.79-9.015z" class="colord5e1fa svgShape"></path><path fill="#3fc4bd" d="M359.698 137.747c-2.914-1.028-5.72-2.595-8.36-4.67-7.529-5.917-12.023-15.462-12.023-25.534v-10.4c10.079-.869 16.74-4.593 20.383-7.344 3.644 2.75 10.304 6.475 20.383 7.344v10.4c0 10.072-4.494 19.617-12.023 25.534-2.64 2.075-5.447 3.642-8.36 4.67z" class="color3fc4bd svgShape"></path><path fill="#ffffff" d="M356.24 123.271a2.804 2.804 0 0 1-1.995-.826l-4.785-4.785a2.26 2.26 0 1 1 3.197-3.198l3.584 3.583 13.109-13.109a2.261 2.261 0 0 1 3.197 3.198l-14.31 14.31a2.804 2.804 0 0 1-1.997.827z" class="colorfff svgShape"></path><path fill="#3fc4bd" d="M339.959 347.318a65.5 65.5 0 0 0-5.103-5.92c-5.508-5.666-12.053-10.324-18.382-14.83l.295-.414c6.347 4.519 12.911 9.191 18.451 14.89a66.01 66.01 0 0 1 5.143 5.966l-.404.308z" class="color3fc4bd svgShape"></path><path fill="#3fc4bd" d="M335.496 341.696c-3.382-.743-7.452-1.483-10.017-3.782-2.393-2.142-3.84-5.243-6.5-7.05-.825-.56-1.767-.997-2.396-1.768s-.795-2.046-.02-2.673c8.052 5.622 16.53 10.91 18.933 15.273z" class="color3fc4bd svgShape"></path><path fill="#25a59f" d="M345.616 351.755c-1.818-5.705-3.936-10.476-6.476-14.583-3.005-4.861-6.608-8.793-10.709-11.684l.293-.416c4.157 2.932 7.807 6.913 10.849 11.832 2.561 4.144 4.697 8.951 6.528 14.697l-.485.154z" class="color25a59f svgShape"></path><path fill="#3fc4bd" d="M333.875 328.408c-1.21 1.68-3.635 1.18-5.697 1.004-2.108-.18-4.118-1.863-5.93-2.904 1.31-.737 2.734-.693 4.046-1.43a7.188 7.188 0 0 0-4.792.007l-4.203-5.079 3.7-.43c-1.644.07-3.212-.83-4.328-2.04-1.124-1.218-1.858-2.72-2.584-4.192-.353-.712-2.35-3.615-1.06-3.847.507-.091 1.82.881 2.302 1.11.78.371 1.57.724 2.362 1.071 1.372.6 2.755 1.18 4.12 1.796.289.129.575.26.861.393 3.57 1.666 7.133 3.83 9.501 6.897l.065.085c.62.816 1.157 1.696 1.588 2.646.32.707.564 1.491.645 2.271.098.944-.046 1.877-.596 2.642z" class="color3fc4bd svgShape"></path><path fill="#32b5b3" d="M332.097 320.764c-2.21-.081-4.422-.166-6.632-.25-2.221-2.216-4.124-4.725-5.929-7.308.09.007.182.017.273.026.646.063 1.286.146 1.927.242.288.129.574.26.86.393 3.57 1.666 7.133 3.83 9.501 6.897zM334.395 325.766c-2.476-1.012-5.402-2.38-7.345-3.835 1.733-.211 3.444-.552 5.112-1.082.62.816 1.157 1.696 1.588 2.646.32.707.564 1.491.645 2.271z" class="color32b5b3 svgShape"></path><path fill="#25a59f" d="M346.124 347.643c-.02-.139-2.04-14.04-3.695-28.994-2.196-19.803-2.757-32.07-1.667-36.46l.006-.02c.032-.13.066-.25.1-.366l.488.146a7.388 7.388 0 0 0-.099.358l-.005.02c-1.055 4.287-.473 16.826 1.682 36.266a964.854 964.854 0 0 0 3.693 28.977l-.503.073z" class="color25a59f svgShape"></path><path fill="#25a59f" d="m344.77 308.557-2.089 10.064c-1.657-14.946-2.974-31.127-1.672-36.371l.001-.004.225-.438a18.13 18.13 0 0 0 .664 8.938c1.064 3.155 3.001 6.026 3.558 9.31.477 2.82-.105 5.7-.687 8.501z" class="color25a59f svgShape"></path><path fill="#3fc4bd" d="M362.944 323.45c2.258-1.387 4.863-2.073 7.348-2.994s4.981-2.178 6.52-4.336c-.697 2.997-2.598 5.587-4.795 7.74-2.197 2.154-4.715 3.95-7.033 5.972a47.442 47.442 0 0 0-8.024 9.052 47.791 47.791 0 0 0-6.57 14.237c.28-1.023.048-2.427.177-3.507.143-1.198.37-2.386.676-3.553a26.359 26.359 0 0 1 2.82-6.76c.832-1.4 1.978-2.601 2.36-4.217.51-2.163.603-4.188 1.629-6.227 1.105-2.197 2.79-4.116 4.892-5.407zM384.143 272.054l-.011.098c-1.28.103-2.554.267-3.82.492 1.24.11 2.476.255 3.707.431a48.392 48.392 0 0 1-1.098 5.642c-4.721 1.45-9.066 4.135-12.451 7.736a47.824 47.824 0 0 1 11.782-5.332c-.033.113-.067.226-.102.337-.861 2.796-1.91 5.523-3.062 8.211-4.427.43-8.752 1.93-12.47 4.375 3.45-.848 7.683-1.787 11.48-2.125-1.034 2.304-2.126 4.587-3.216 6.862-.385.803-.771 1.608-1.16 2.41l-.021.004a32.006 32.006 0 0 0-14.148 6.21c4.353-1.213 8.502-3.1 12.886-4.197.111-.027.223-.056.334-.081-1.758 3.539-3.65 7.01-5.991 10.174l-8.544 1.616c2.267.385 4.55.5 6.843.435-4.333 4.393-13.736 9.08-13.83 9.124l-.002.002c-3.51-3.11-5.15-7.631-5.565-12.309l7.872-8.561c-2.254.47-5.197 2.679-7.958 4.976.227-5.283 2.16-10.41 4.899-14.945l.207-.34c2.88.441 5.76.885 8.638 1.328a63.952 63.952 0 0 0-7.298-3.38 63.06 63.06 0 0 1 3.982-5.147l3.863 5.103a50.985 50.985 0 0 1-2.128-7.082 153.338 153.338 0 0 1 3.262-3.498 155.638 155.638 0 0 1 3.813-3.86l2.775 6.761-1.058-8.398a83.317 83.317 0 0 1 1.885-1.706c1.832-1.607 3.737-3.133 5.743-4.514.55.89 1.098 1.781 1.646 2.67l-.308-3.562c.148-.096.295-.19.444-.283 1.813-1.138 4.516-3.104 6.823-2.397 2.529.774 1.565 4.788 1.357 6.72z" class="color3fc4bd svgShape"></path><path fill="#25a59f" d="M349.264 349.804c-1.31-8.384-.471-17.862 2.492-28.17 2.392-8.32 6.173-17.217 11.238-26.446 8.17-14.883 17.315-26.301 19.924-29.446l.13-.158.165.126.26.152c-.014.024-.014.024-.164.204-6.55 7.897-38.951 49.044-33.542 83.66l-.503.078z" class="color25a59f svgShape"></path><path fill="#edf3ff" d="m351.455 324.627-.207-.152-.243-.061c7.04-27.706 27.818-53.735 31.911-58.671l.133-.16.164.127.26.15c-.014.025-.014.025-.165.208-18.272 22.032-29.176 45.903-31.853 58.56z" class="coloredf3ff svgShape"></path><path fill="#3fc4bd" d="m310 287.827.021.076a32.292 32.292 0 0 1 3.069-.065c-.965.233-1.92.494-2.87.78a38.577 38.577 0 0 0 1.534 4.316 22.933 22.933 0 0 1 10.732 4.62 38.119 38.119 0 0 0-9.919-2.805l.12.254c1.01 2.101 2.161 4.126 3.388 6.109 3.54-.187 7.127.482 10.347 1.969-2.82-.26-6.267-.497-9.3-.314a242.388 242.388 0 0 0 3.349 5.027c.398.588.798 1.177 1.2 1.763h.017a25.51 25.51 0 0 1 11.888 3.217c-3.575-.44-7.07-1.436-10.655-1.78-.09-.008-.183-.018-.273-.024 1.806 2.58 3.709 5.091 5.93 7.308l6.925.26c-1.74.573-3.528.934-5.342 1.155 3.936 2.949 11.903 5.528 11.983 5.551l.001.002c2.4-2.868 3.155-6.626 2.927-10.362l-7.22-5.815c1.833.104 4.414 1.495 6.862 2.978-.805-4.136-2.937-7.948-5.633-11.197l-.204-.244-6.65 2.07a50.983 50.983 0 0 1 5.35-3.528 50.265 50.265 0 0 0-3.749-3.585l-2.439 4.48c.42-1.92.7-3.872.838-5.834a122.128 122.128 0 0 0-2.987-2.37 124.009 124.009 0 0 0-3.463-2.59l-1.385 5.658-.162-6.745a66.394 66.394 0 0 0-1.689-1.121 49.752 49.752 0 0 0-5.062-2.877l-.98 2.3-.18-2.844a24.031 24.031 0 0 0-.384-.17c-1.564-.682-3.927-1.911-5.661-1.08-1.902.91-.666 3.96-.273 5.457z" class="color3fc4bd svgShape"></path><path fill="#25a59f" d="m346.766 344.972-.509-.002c.16-28.495-32.607-58.586-36.344-61.923-.142-.127-.142-.127-.159-.148l.198-.16.18-.18c.012.013.053.049.12.109 2.43 2.17 10.995 10.087 19.203 20.853 5.09 6.676 9.127 13.244 12 19.521 3.562 7.78 5.349 15.159 5.31 21.93z" class="color25a59f svgShape"></path><path fill="#edf3ff" d="M341.966 325.425c-3.788-9.905-15.355-27.464-32.051-42.377-.144-.129-.144-.129-.16-.15l.197-.159.18-.18.121.11c3.814 3.406 23.286 21.464 32.125 42.477l-.232.097-.18.182z" class="coloredf3ff svgShape"></path><path fill="#ffcf4e" d="M362.059 346.747v18.073c0 5.34-4.33 9.669-9.67 9.669h-12.74c-5.34 0-9.669-4.33-9.669-9.67v-18.072h32.079z" class="colorffcf4e svgShape"></path><path fill="#ffcf4e" d="M362.268 346.747h-32.495a1.333 1.333 0 0 1-1.333-1.333v-.399c0-.736.597-1.333 1.333-1.333h32.495c.736 0 1.333.597 1.333 1.333v.399c0 .736-.597 1.333-1.333 1.333z" class="colorffcf4e svgShape"></path><path fill="#ffbd39" d="M362.059 346.747v18.073c0 5.34-4.33 9.669-9.67 9.669h-5.213a67.608 67.608 0 0 0 1.523-1.981c2.066-2.81 3.837-6.09 3.67-9.574-.177-3.757-2.69-7.161-5.954-9.032-3.263-1.872-7.174-2.362-10.924-2.058-1.859.15-3.696.486-5.51.913v-6.01h32.078z" class="colorffbd39 svgShape"></path><path fill="#fcafaf" d="M155.55 175.858c2.256 1.618 4.46 3.2 6.715 4.835.394-.647.77-1.259 1.146-1.87.454-.744.9-1.479 1.355-2.213.743-1.19 1.46-2.396 2.247-3.55.35-.507.7-1.006.954-1.557-.158-.026-.298-.06-.446-.096-1.89-.507-3.472-1.932-4.346-3.681a8.452 8.452 0 0 1-.534-1.347c-.41.604-.77 1.25-1.145 1.872-1.4 2.317-2.947 4.529-4.853 6.462-.359.367-.708.743-1.093 1.145z" class="colorfcafaf svgShape"></path><path fill="#ffc5c5" d="M46.477 253.238c.322.162.498.674.702 1.046.147.274.238.576.358.871.133.358.358.569.758.597.393.028.639.19.723.639.169.962.808 1.6 1.573 2.141.133.091.21.281.288.435.267.541.737.611 1.123.14.513-.61.562-1.326.436-2.07-.021-.134-.092-.274-.064-.394.218-.926.415-1.86.695-2.766.127-.4.471-.73.689-1.102.491-.829.955-1.657 1.432-2.493.534-.934 1.074-1.868 1.643-2.872.133.218.28.422.393.646.337.653.414 1.355.443 2.093.028.884.624 1.467 1.348 1.895.19.113.533.141.709.043.133-.078.154-.422.168-.646.014-.429-.112-.892.007-1.285.408-1.341-.372-2.507-.484-3.764-.112-1.327-.8-2.443-1.313-3.616-.302-.695-.674-1.362-1.04-2.022-.343-.625-.54-1.264-.554-1.98v-.042c-.035-1.418-.19-2.844-.147-4.262.042-1.629.245-3.25.386-5a7214.17 7214.17 0 0 0-8.63-3.306c.043.54.07 1.025.12 1.51.253 2.429.548 4.851.737 7.288.12 1.523-.19 3.012-.772 4.43-.014.042-.035.077-.05.12-.428.996-.968 1.951-1.32 2.976-.315.92-.449 1.896-.638 2.858-.183.948-.351 1.896-.506 2.844-.154.955-.337 1.903-.407 2.857-.056.8.28 1.749 1.194 2.191z" class="colorffc5c5 svgShape"></path><path fill="#fcafaf" d="M48.204 239.392a12.188 12.188 0 0 1 8.306-.66c-.035-1.418-.19-2.844-.147-4.262.042-1.629.245-3.25.386-5a7214.17 7214.17 0 0 0-8.63-3.306c.043.54.07 1.025.12 1.51.253 2.429.548 4.851.737 7.288.12 1.523-.19 3.012-.772 4.43z" class="colorfcafaf svgShape"></path><path fill="#1f2123" d="M108.494 363.944c-.172.074-5.313 8.18-1.39 10.093s26.922 3.985 29.431-2.091c.418-1.025-.242-2.148-1.095-3.073-1.104-1.199-2.546-2.032-4.11-2.491-4.871-1.429-19.884-5.128-22.685-2.748" class="color1f2123 svgShape"></path><path fill="#ffc5c5" d="M124.159 366.91c-1.25 2.006-14.196 2.602-15.657.178-.42-.699-.563-1.806-.553-3.035.01-3.05.315-6.82.346-6.948l10.1.424.024 4.495-.006.936s6.995 1.941 5.746 3.95z" class="colorffc5c5 svgShape"></path><path fill="#fcafaf" d="m118.394 357.529.025 4.495c-.484-.092-.98-.12-1.47-.148-1.852-.101-3.732-.162-5.531.287-1.287.326-2.54.953-3.469 1.89.01-3.05.315-6.82.346-6.948l10.1.424z" class="colorfcafaf svgShape"></path><path fill="#1f2123" d="M70.005 364.805c-.171.075-5.313 8.18-1.39 10.094 3.922 1.913 26.922 3.984 29.432-2.092.418-1.025-.243-2.148-1.095-3.073-1.105-1.199-2.547-2.032-4.111-2.49-4.871-1.43-19.884-5.129-22.685-2.749" class="color1f2123 svgShape"></path><path fill="#ffc5c5" d="M85.67 367.772c-1.25 2.006-14.196 2.602-15.657.177-.42-.699-.562-1.805-.553-3.034.01-3.05.315-6.82.346-6.948l10.1.423.024 4.495-.006.936s6.995 1.942 5.746 3.951z" class="colorffc5c5 svgShape"></path><path fill="#fcafaf" d="m79.906 358.39.024 4.495c-.484-.091-.98-.119-1.47-.147-1.851-.102-3.732-.163-5.53.286-1.288.326-2.54.953-3.47 1.89.01-3.05.315-6.82.346-6.947l10.1.423z" class="colorfcafaf svgShape"></path><path fill="#061437" d="M78.38 165.145H60.57c10.703-13.755 17.842-30.275 20.44-47.513l20.832 23.287c-4.018 8.71-10.549 16.243-18.6 21.455a50.353 50.353 0 0 1-4.863 2.771z" class="color061437 svgShape"></path><path fill="#061437" d="M91.765 132.894c-.049 5.926 1.075 12.09 4.62 16.844 2.45 3.286 5.983 5.737 9.893 6.973 3.918 1.221 8.187 1.228 12.133.098a27.833 27.833 0 0 0 2.605-.899 60.178 60.178 0 0 1-2.506-7.759c1.593 1.966 3.201 3.954 5.167 5.547.274.225.555.443.85.653 1.432-.674 2.857-1.355 4.325-1.938-7.05-6.164-11.129-15.53-11.066-24.883h-5.427v-2.261l-20.594 7.625z" class="color061437 svgShape"></path><path fill="#061437" d="m79.983 120.98.024-.103c.77-2.327 1.658-4.992 2.748-7.496 2.403-5.518 9.879-12.727 22.071-10.146 12.193 2.58 12.905 15.13 13.172 26.788.04 1.74.232 3.327.51 4.795H77.526c1.544-4.503 1.986-9.055 2.458-13.837z" class="color061437 svgShape"></path><path fill="#ffc5c5" d="M88.745 127.797c.062.81.017 11.242-1.121 20.351h11.71l1.347-7.515s6.835.785 8.72-6.363c1.886-7.149 2.043-21.76 1.571-23.018-.471-1.256-12.804-7.62-18.932-1.65-6.127 5.971-5.813 12.491-6.049 13.827-.227 1.287-.661 4.752 2.754 4.368z" class="colorffc5c5 svgShape"></path><path fill="#383838" d="M106.808 121.67a.327.327 0 0 0 .288-.532 1.78 1.78 0 0 0-2.508-.259.328.328 0 0 0 .415.509 1.125 1.125 0 0 1 1.585.164c.056.07.137.11.22.119zM95.7 121.313a.327.327 0 0 0 .223-.115 1.123 1.123 0 0 1 1.588-.139.328.328 0 1 0 .422-.502 1.785 1.785 0 0 0-2.198-.075c-.115.084-.22.183-.313.293a.328.328 0 0 0 .279.538zM100.554 129.793c.345.036.728.029 1.096-.074a.69.69 0 0 0 .422-.359c.646-1.187-.403-5.628-.416-5.67a.328.328 0 0 0-.626.194c.258.893.92 4.846.434 5.208-.837.232-1.85-.2-1.86-.205a.328.328 0 1 0-.262.601c.033.014.555.237 1.212.305z" class="color383838 svgShape"></path><path fill="#fcafaf" d="M103.283 132.709c-.3 1.402-1.491 2.395-2.813 2.258-1.322-.136-2.286-1.351-2.292-2.785l5.105.527z" class="colorfcafaf svgShape"></path><path fill="#383838" d="M96.326 124.467c.025.445.289.798.59.78.308-.017.529-.397.503-.843-.026-.451-.289-.797-.596-.78-.301.018-.523.392-.497.843zM105.392 124.954c-.046.444.158.834.458.865.306.031.585-.309.631-.752.046-.45-.158-.834-.464-.865-.3-.031-.579.302-.625.752z" class="color383838 svgShape"></path><path fill="#061437" d="M100.752 117.097c-1.848 1.055-3.956 1.54-6.022 2.05-2.066.51-4.166 1.074-5.934 2.256-1.77 1.183-3.178 3.106-3.199 5.234-1.116-3.354-.404-7.125 1.3-10.221 1.706-3.096 3.272-6.828 6.054-9.008 2.027-1.59 5.298-1.842 7.833-2.302 2.307-.418 5.62.218 6.804 2.498-1.653 1.204-1.517 2.695-2.305 4.457a11.048 11.048 0 0 1-4.531 5.036z" class="color061437 svgShape"></path><path fill="#061437" d="M112.803 124.978a9.97 9.97 0 0 0-2.85-6.055c-.96-.95-2.133-1.732-2.804-2.915-.419-.736-.614-1.584-.96-2.366-.344-.783-.912-1.537-1.732-1.77l2.03-4.57c1.444-.084 4.407 2.204 5.515 3.135 1.1.932 1.323 2.525 1.416 3.96.205 3.539 0 7.097-.615 10.58z" class="color061437 svgShape"></path><path fill="#fcafaf" d="M93.936 137.124s.447 6.2 6.235 6.539l.514-3.03s-4.835-.128-6.749-3.509z" class="colorfcafaf svgShape"></path><path fill="#2b2b2b" d="M68.236 286.89c-.274 35.47 0 73.014 0 73.014s8.727 2.886 12.28 0c3.539-2.879 8.18-38.365 8.454-44.908.274-6.551 4.64-48.848 4.64-48.848s3.273 20.467 5.183 27.292c1.916 6.825 6.824 62.525 9.008 65.25 2.184 2.73 11.038 0 11.038 0 8.853-13.37 3.152-77.804 3.152-82.993 0-2.689-1.84-16.837-3.532-30.058-1.186-9.31-2.303-18.164-2.654-22.23-.119-1.292-.154-2.1-.091-2.289l-3.02.113-40.92 1.53c-1.376 3.378-2.373 6.453-3.082 9.416-3.321 13.958-.239 25.445-.456 54.71z" class="color2b2b2b svgShape"></path><path fill="#1f2123" d="M68.692 232.179c3.764-.92 7.878-.59 11.768-.021 13.376 1.98 26.351 6.607 38 13.48-1.187-9.31-2.304-18.163-2.655-22.229a43.308 43.308 0 0 0-3.11-2.176l-40.92 1.53c-1.377 3.378-2.374 6.453-3.083 9.416z" class="color1f2123 svgShape"></path><path fill="#ffbd39" d="M48.778 195.289c.163-.817 6.718-23.25 13.25-34.934 1.942-3.473 5.09-6.103 8.839-7.447 3.294-1.18 7.54-2.565 10.17-2.902.194-.023.378-.082.545-.176.246-.132.451-.333.589-.585l3.494-6.513c.304-.563.934-.87 1.56-.753 3.175.58 12.496 2.331 13.568 2.99 1.291.794 1.095 6.765 1.095 6.765s.117.017.334.056c2.179.389 14.473 2.884 19.357 10.48.563.877 1.154 1.936 1.758 3.117l.32 31.254c-2.961-3.527-5.59-3.956-6.254-4.87-.129-.181-.202-.275-.202-.275s-1.326 12.786-1.013 22.318c.108 3.251.407 6.402 1.013 9.008 2.39 10.265-43.359 4.261-46.346 0 0 0 3.883-21.506 1.35-35.156a31.693 31.693 0 0 0-.471-2.155c-.25-.978-.542-1.9-.879-2.75 0 0-.15.26-.416.712-1.61 2.8-7.426 12.976-7.939 15.198-.597 2.589-2.785 32.623-3.777 34.609-.809 1.62-8.56-.173-11.45-.905a1.34 1.34 0 0 1-1.008-1.388c.404-6.036 2.337-34.805 2.513-35.698z" class="colorffbd39 svgShape"></path><path fill="#ffae1f" d="M58.722 233.608a.327.327 0 0 1-.293-.475c.568-1.135 1.65-13.047 2.442-21.745.572-6.296 1.066-11.732 1.31-12.79.495-2.145 5.74-11.407 7.974-15.289a.327.327 0 1 1 .568.326c-4.62 8.033-7.574 13.681-7.903 15.11-.234 1.015-.726 6.431-1.297 12.703-1.067 11.747-1.93 20.824-2.508 21.978a.327.327 0 0 1-.293.182zM117.403 192.1a.328.328 0 0 1-.312-.43c1.964-5.961.79-10.928-3.807-16.105a.328.328 0 1 1 .49-.435c4.77 5.372 5.986 10.536 3.94 16.744a.33.33 0 0 1-.31.225z" class="colorffae1f svgShape"></path><path fill="#ffae1f" d="M70.44 183.8c-.012 0-.025 0-.038-.002a.329.329 0 0 1-.289-.363l1.11-9.866c.02-.18.17-.307.363-.29.18.021.308.184.289.364l-1.11 9.866a.33.33 0 0 1-.326.291zM70.855 222.822c2.987 4.261 48.736 10.265 46.346 0-.606-2.606-.905-5.757-1.013-9.008-2.357 1.646-5.339 2.451-8.244 2.434-4.061-.024-7.994-1.473-11.596-3.353-11.39-5.948-20.26-16.546-24.108-28.805l-.506 1.42c.178.692.334 1.412.471 2.156 2.533 13.65-1.35 35.156-1.35 35.156z" class="colorffae1f svgShape"></path><path fill="#ffbd39" d="M81.582 149.83c6.938-.076 13.846.346 20.561 2.015l.079-.056c-.217-.038-.334-.055-.334-.055s.196-5.971-1.095-6.765c-1.072-.659-10.393-2.41-13.568-2.99a1.472 1.472 0 0 0-1.56.753l-3.494 6.513a1.453 1.453 0 0 1-.589.585z" class="colorffbd39 svgShape"></path><path fill="#ffae1f" d="M102.143 152.173a.313.313 0 0 1-.079-.01c-5.857-1.454-12.357-2.109-20.478-2.005h-.004a.328.328 0 0 1-.004-.656c8.175-.09 14.732.555 20.644 2.025a.328.328 0 0 1-.079.646zM70.476 183.595a.326.326 0 0 1-.308-.44c.2-.545.508-1.057.805-1.552.295-.491.574-.955.751-1.44.3-.816.609-1.66 1.101-2.414.398-.614 1.09-1.414 2.123-1.753a.329.329 0 0 1 .205.623c-.851.28-1.437.963-1.78 1.487-.45.693-.746 1.501-1.033 2.283-.2.544-.507 1.056-.805 1.551-.295.491-.573.955-.751 1.44a.327.327 0 0 1-.308.215z" class="colorffae1f svgShape"></path><path fill="#ffbd39" d="M122.034 194.934s12.958 14.13 19.568 15.165c6.615 1.04 25.538-36.034 25.538-36.034l-7-5.442-20.478 23.47-16.205-26.322-1.423 29.163z" class="colorffbd39 svgShape"></path><path fill="#061437" d="m171.365 182.075-28.534-1.169c-1.203-.05-2.03-1.055-1.847-2.247l6.368-41.609c.183-1.192 1.306-2.118 2.508-2.069l28.534 1.169c1.203.05 2.03 1.055 1.847 2.247l-6.368 41.609c-.183 1.192-1.306 2.118-2.508 2.069z" class="color061437 svgShape"></path><path fill="#ffc5c5" d="M181.332 159.39c-.817 4.94-4.258 8.35-5.498 8.145-1.24-.205-1.583-4.377-.765-9.317s2.485-8.78 3.725-8.574c1.24.205 3.356 4.806 2.538 9.746z" class="colorffc5c5 svgShape"></path><path fill="#edf3ff" d="m348.172 201.814-21.363 53.342h2.173l21.362-53.342zM353.653 201.814l-21.362 53.342h2.172l21.362-53.342zM359.135 201.814l-21.363 53.342h2.172l21.363-53.342zM364.616 201.814l-21.362 53.342h2.172l21.362-53.342zM370.097 201.814l-21.362 53.342h2.172l21.363-53.342zM375.579 201.814l-21.362 53.342h2.172l21.362-53.342zM381.06 201.814l-21.362 53.342h2.172l21.363-53.342zM386.542 201.814l-21.363 53.342h2.173l21.362-53.342zM392.023 201.814l-21.362 53.342h2.172l21.362-53.342zM397.505 201.814l-21.363 53.342h2.172l21.363-53.342zM402.986 201.814l-21.362 53.342h2.172l21.362-53.342zM408.467 201.814l-21.362 53.342h2.172l21.363-53.342z" class="coloredf3ff svgShape"></path><circle cx="355.825" cy="226.583" r="21.121" fill="#ffbd48" class="colorffbd48 svgShape"></circle><path fill="#ffcf4e" d="M376.946 226.583a21.1 21.1 0 0 1-1.162 6.922 20.88 20.88 0 0 1-2.675 5.215 20.926 20.926 0 0 1-3.076 3.487c-.22.208-.45.402-.679.597a21.08 21.08 0 0 1-13.529 4.9c-11.666 0-21.12-9.455-21.12-21.121a21.003 21.003 0 0 1 3.015-10.88 20.917 20.917 0 0 1 4.373-5.164 19.37 19.37 0 0 1 1.81-1.392c.04-.026.074-.051.113-.077a21.076 21.076 0 0 1 11.81-3.608c11.666 0 21.12 9.454 21.12 21.12z" class="colorffcf4e svgShape"></path><circle cx="355.825" cy="226.583" r="17.016" fill="#ffae1f" class="colorffae1f svgShape"></circle><circle cx="355.825" cy="226.583" r="15.057" fill="#ffbd39" class="colorffbd39 svgShape"></circle><path fill="#ffab3e" d="M362.18 232.606c-.414.626-1.002 1.124-1.766 1.494-.764.371-1.647.585-2.65.644v1.549a.639.639 0 0 1-.185.468.667.667 0 0 1-.491.186.659.659 0 0 1-.469-.175c-.123-.116-.185-.276-.185-.48v-1.548a13.366 13.366 0 0 1-4.406-1.026.989.989 0 0 1-.435-.359.914.914 0 0 1-.175-.534c0-.247.084-.462.25-.644s.383-.272.644-.272c.145 0 .284.03.414.087a10.16 10.16 0 0 0 3.708.872v-5.016c-.989-.262-1.82-.545-2.497-.85a4.515 4.515 0 0 1-1.69-1.298c-.451-.56-.676-1.268-.676-2.126 0-.756.185-1.454.556-2.094s.923-1.17 1.657-1.592 1.617-.676 2.65-.763v-1.527c0-.188.062-.348.185-.48a.618.618 0 0 1 .469-.196c.19 0 .35.066.48.197s.196.29.196.48v1.504c1.425.059 2.69.298 3.795.72.407.145.61.436.61.872 0 .233-.08.444-.24.633a.785.785 0 0 1-.631.283c-.088 0-.204-.03-.35-.087a10.772 10.772 0 0 0-3.184-.589v5.19c1.047.248 1.916.517 2.606.807.69.291 1.269.724 1.734 1.298.465.574.698 1.334.698 2.28 0 .77-.207 1.468-.621 2.092zm-7.894-7.698c.486.35 1.203.647 2.148.894v-4.797c-.873.116-1.57.381-2.093.795s-.785.957-.785 1.625c0 .64.243 1.134.73 1.483zm6.554 5.474c0-.567-.26-1.006-.775-1.319-.516-.312-1.283-.607-2.3-.884v4.689c2.05-.145 3.075-.974 3.075-2.486z" class="colorffab3e svgShape"></path><path fill="#ffffff" d="M361.543 232.012c-.414.626-1.003 1.124-1.767 1.495-.763.37-1.646.584-2.65.643v1.549a.639.639 0 0 1-.185.469.667.667 0 0 1-.491.185.659.659 0 0 1-.469-.175c-.123-.116-.184-.276-.184-.48v-1.548a13.366 13.366 0 0 1-4.407-1.025.989.989 0 0 1-.435-.36.914.914 0 0 1-.175-.534c0-.247.084-.462.251-.643s.382-.273.644-.273c.144 0 .283.03.414.087a10.16 10.16 0 0 0 3.708.872v-5.016c-.99-.261-1.822-.544-2.497-.85a4.515 4.515 0 0 1-1.69-1.298c-.452-.56-.677-1.268-.677-2.126 0-.756.185-1.454.556-2.094s.923-1.17 1.657-1.592 1.618-.675 2.65-.763v-1.527c0-.188.062-.348.185-.479a.618.618 0 0 1 .469-.196c.19 0 .35.065.48.196s.197.291.197.48v1.504c1.425.059 2.69.298 3.795.72.406.146.61.437.61.872 0 .234-.08.444-.24.633a.785.785 0 0 1-.632.283c-.088 0-.204-.03-.35-.087a10.772 10.772 0 0 0-3.183-.589v5.19c1.047.248 1.915.517 2.605.807.69.291 1.269.724 1.735 1.298.464.575.697 1.334.697 2.28 0 .77-.207 1.468-.621 2.092zm-7.895-7.698c.487.35 1.203.648 2.149.895v-4.798c-.873.116-1.57.382-2.094.796s-.785.956-.785 1.625c0 .64.243 1.133.73 1.482zm6.554 5.475c0-.568-.259-1.007-.774-1.32-.517-.312-1.284-.607-2.301-.883v4.688c2.05-.144 3.075-.974 3.075-2.485z" class="colorfff svgShape"></path></svg>