<svg id="SvgjsSvg2821" width="550" height="550" xmlns="http://www.w3.org/2000/svg" version="1.1" xmlns:xlink="http://www.w3.org/1999/xlink" xmlns:svgjs="http://svgjs.com/svgjs"><defs id="SvgjsDefs2822"></defs><g id="SvgjsG2823"><svg xmlns="http://www.w3.org/2000/svg" data-name="Layer 1" viewBox="0 0 2000 2000" width="550" height="550"><path fill="#f5e9ff" d="m447.87,1109.23c259.91,83.44,220.45,588.06,679.82,475.42,459.37-112.64,826.74-1078.54,496.26-1184.65-330.48-106.11-477.42,189.26-698.5-26.29C560.46,17.85-222.69,893.94,447.87,1109.23Z" opacity=".34" class="colore9efff svgShape"></path><rect width="629.85" height="1221.21" x="566.04" y="387.97" fill="#531a82" rx="74.93" ry="74.93" class="color2b1a82 svgShape"></rect><path fill="#ffffff" d="m1175.47,497.36v968.5c0,57.28-46.44,103.72-103.72,103.72h-381.57c-57.28,0-103.72-46.44-103.72-103.72V497.36c0-38.55,31.25-69.79,69.79-69.79h449.43c38.54,0,69.79,31.23,69.79,69.79Z" class="colorfff svgShape"></path><circle cx="880.96" cy="407.26" r="9.94" fill="#e8d5f7" class="colord5e0f7 svgShape"></circle><path fill="#af4ffd" d="m1038.35,664.54c0,29.6-8.17,57.29-22.4,80.94-27.51,45.8-77.68,76.42-134.99,76.42s-107.48-30.62-134.99-76.42c-7.04-11.7-12.59-24.39-16.42-37.82-3.9-13.7-5.98-28.17-5.98-43.12,0-86.94,70.48-157.39,157.39-157.39,41.82,0,79.82,16.3,108.01,42.91,30.4,28.69,49.38,69.37,49.38,114.48Z" class="color4f6bfd svgShape"></path><circle cx="880.96" cy="589.19" r="47.45" fill="#f5e9ff" transform="rotate(-78.34 881.001 589.186)" class="colore9efff svgShape"></circle><path fill="#f5e9ff" d="m1005.42,739.17c-25.36,42.23-71.62,70.46-124.46,70.46s-99.1-28.23-124.46-70.46c20.53-48.45,68.53-82.43,124.46-82.43s103.93,33.97,124.46,82.43Z" class="colore9efff svgShape"></path><g><path fill="#faf5ff" d="m649.51,882.14h462.91c18.73,0,33.93,15.2,33.93,33.93v75.99c0,18.73-15.2,33.93-33.93,33.93h-462.91c-18.73,0-33.93-15.2-33.93-33.93v-75.99c0-18.73,15.2-33.93,33.93-33.93Z" class="colorf5f8ff svgShape"></path><path fill="#8441bb" d="m994.54,934.36h-341.82c-7.73,0-14-6.27-14-14h0c0-7.73,6.27-14,14-14h341.82c7.73,0,14,6.27,14,14h0c0,7.73-6.27,14-14,14Z" class="color4741bb svgShape"></path><path fill="#e8d5f7" d="M846.83 1000.7h-187.8c-11.21 0-20.3-9.09-20.3-20.3h0c0-11.21 9.09-20.3 20.3-20.3h187.8c11.21 0 20.3 9.09 20.3 20.3h0c0 11.21-9.09 20.3-20.3 20.3zM1102.24 1000.7h-187.8c-11.21 0-20.3-9.09-20.3-20.3h0c0-11.21 9.09-20.3 20.3-20.3h187.8c11.21 0 20.3 9.09 20.3 20.3h0c0 11.21-9.09 20.3-20.3 20.3z" class="colord5e0f7 svgShape"></path></g><g><path fill="#faf5ff" d="m649.51,1107.99h462.91c18.73,0,33.93,15.2,33.93,33.93v75.99c0,18.73-15.2,33.93-33.93,33.93h-462.91c-18.73,0-33.93-15.2-33.93-33.93v-75.99c0-18.73,15.2-33.93,33.93-33.93Z" class="colorf5f8ff svgShape"></path><rect width="369.81" height="28" x="638.73" y="1132.21" fill="#c174ff" rx="14" ry="14" class="colorff748f svgShape"></rect><rect width="228.4" height="40.6" x="638.73" y="1185.96" fill="#e8d5f7" rx="20.3" ry="20.3" class="colord5e0f7 svgShape"></rect><rect width="228.4" height="40.6" x="894.13" y="1185.96" fill="#e8d5f7" rx="20.3" ry="20.3" class="colord5e0f7 svgShape"></rect></g><g><rect width="530.77" height="143.86" x="615.58" y="1333.84" fill="#faf5ff" rx="33.93" ry="33.93" class="colorf5f8ff svgShape"></rect><rect width="369.81" height="28" x="638.73" y="1358.06" fill="#9d28fd" rx="14" ry="14" class="colorfdbd28 svgShape"></rect><rect width="228.4" height="40.6" x="638.73" y="1411.81" fill="#e8d5f7" rx="20.3" ry="20.3" class="colord5e0f7 svgShape"></rect><rect width="228.4" height="40.6" x="894.13" y="1411.81" fill="#e8d5f7" rx="20.3" ry="20.3" class="colord5e0f7 svgShape"></rect></g><path fill="#ffffff" d="m988.97,550.06c-51.33,45.44-140.78,113-259.42,157.6-3.9-13.7-5.98-28.17-5.98-43.12,0-86.94,70.48-157.39,157.39-157.39,41.82,0,79.82,16.3,108.01,42.91Z" opacity=".14" class="colorfff svgShape"></path><g><path fill="#480b7a" d="m1273.85,1522.09c1.13-22.94,1.49-46.07,1.25-69.12-.27-23.07-1.17-46.14-3.25-69.1-2.17-22.93-5.21-45.9-11.69-67.99-3.39-10.93-7.53-21.9-14.64-30.91-3.6-4.39-8.09-8.29-13.6-9.97-5.46-1.85-11.5-1.06-16.9.87,5.33-2.1,11.4-3.11,17.06-1.4,5.71,1.54,10.47,5.42,14.29,9.79,7.58,9,12.12,20,15.91,30.95,7.27,22.14,11.07,45.19,13.99,68.19,2.84,23.05,4.48,46.21,5.5,69.39.98,23.2,1.36,46.35.96,69.66l-8.87-.36Z" class="color0b7a52 svgShape"></path><path fill="#822ec6" d="m1223.72,1273.81c-.09,0-.22.04-.31.04-1.2.13-2.4.36-3.64.58,0,0-2.66-54.7-50.13-50.13-47.51,4.57-10.88,30.1-5.33,34.9,5.55,4.79,6.97,16.29-18.69,19.22-25.71,2.97-28.28,14.07-28.28,24.42s38.85,6.66,37.74,18.51c-1.11,11.85-20.34,38.85-16.65,64.02,3.69,25.13,21.09,33.65,32.54,7.37,11.5-26.24,19.27-42.53,32.94-21.09,13.67,21.49,30.72,21.49,28.86-5.91-1.86-27.39,1.69-37.38,14.16-43.29,6.35-3.02,12.25,2.44,18.34,7.68,5.86,5.02,11.85,9.86,18.56,6.75,13.45-6.22,7.5-73.13-60.12-63.09Zm-59.81,36.54c-6.66,1.02-12.65-1.95-13.36-6.66-.75-4.71,4.08-9.37,10.74-10.39,6.66-1.07,12.65,1.95,13.36,6.66.76,4.71-4.04,9.37-10.74,10.39Zm15.58-42.27c0-7.37,5.37-13.32,11.99-13.32s11.99,5.95,11.99,13.32-5.37,13.32-11.99,13.32-11.99-5.95-11.99-13.32Zm21.53,77.97c-5.28,0-9.55-5.77-9.55-12.88s4.26-12.92,9.55-12.92,9.55,5.77,9.55,12.92-4.26,12.88-9.55,12.88Zm24.82-44.22c-5.99,0-10.83-3.73-10.83-8.26s4.84-8.26,10.83-8.26,10.79,3.68,10.79,8.26-4.84,8.26-10.79,8.26Z" class="color2ec68f svgShape"></path><path fill="#f5f1f9" d="m1219.76,1274.44c-3.99,4.02-7.94,8.04-11.62,12.32-3.8,4.16-7.42,8.46-10.92,12.84-6.96,8.81-13.51,17.9-19.37,27.43-6.04,9.42-11.02,19.45-15.53,29.68l-3.22,7.76-2.65,7.98-1.41,3.98-1.07,4.08c-.69,2.73-1.44,5.46-2.23,8.19,1.16-11.25,3.33-22.56,7.39-33.24,3.85-10.75,8.86-21.11,14.94-30.77,6.07-9.67,12.87-18.88,20.55-27.3,7.66-8.41,15.91-16.33,25.13-22.96Z" opacity=".52" class="colorf9f6f1 svgShape"></path><path fill="#480b7a" d="m1322.18,1571.17c-5.43-28.87-9.78-57.75-13.45-86.79-3.62-29.03-6.46-58.16-8.06-87.37-1.6-29.2-2.06-58.51-.13-87.71,1.02-14.59,2.61-29.15,5.29-43.53,2.68-14.36,6.55-28.58,12.6-41.88-5.71,13.45-9.2,27.71-11.51,42.07-2.3,14.39-3.52,28.92-4.17,43.46-1.19,29.1,0,58.26,2.34,87.28,2.33,29.03,5.9,57.96,10.23,86.76,4.38,28.77,9.46,57.53,15.54,85.88l-8.69,1.82Z" class="color0b7a52 svgShape"></path><path fill="#6113a1" d="m1398.35,1192.1c-15.73-9.78-16.52-18.62,7.83-21.62,24.39-2.99,10.93-30.44-16.08-32.15-27.06-1.72-6.15-18.26-.07-32.43,6.09-14.17,2.69-32.76,2.69-32.76,0,0-33.96,10.89-45.59,25.17-11.64,14.28-13.34,23.43-28.31,15.2-15.01-8.23-35.95,3.3-24.42,19.78,11.53,16.47,11.86,23.7-9.06,21.8-20.92-1.9-33.85,6.97-32.74,20.26,1.06,13.29,32.98,13.84,29.32,24.92-3.65,11.08-24.43,1.29-47.48,55.02-5.59,25.3,61.08-25.46,69.14,12.7h.04c1.35-.12,31.08-2.08,35.03,20.9,4.02,23.57,14.53,50.25,27.28,17.38,12.75-32.87,1.46-70.09,9.52-72.75,8.06-2.7,18.26,30.2,30.93,24.16,12.67-6.04,7.73-55.75-8.05-65.58Zm-106.18,41.57c-6.06.73-11.5-2.72-12.11-7.74-.62-5.02,3.82-9.68,9.88-10.45,6.11-.72,11.54,2.72,12.16,7.75.62,5.02-3.82,9.68-9.93,10.45Zm15.79-33.26c-4.71.61-9.12-3.62-9.83-9.41-.71-5.79,2.57-10.93,7.27-11.49,4.71-.61,9.12,3.62,9.83,9.41.67,5.79-2.57,10.93-7.27,11.49Zm23.37-39.76c-1.69,6.56-5.85,11.11-9.28,10.21-3.43-.91-4.79-6.9-3.1-13.42,1.74-6.56,5.89-11.11,9.28-10.21,3.43.91,4.83,6.91,3.1,13.42Zm23.46,8.92c2.79-5.99,7.99-9.45,11.6-7.72,3.61,1.69,4.24,7.87,1.45,13.87-2.83,5.95-8.03,9.4-11.64,7.72-3.56-1.73-4.24-7.92-1.4-13.86Zm-9.4,87.76c-7.01.85-13.25-3-13.98-8.61-.68-5.66,4.44-10.91,11.45-11.76,7.06-.89,13.3,3,13.98,8.61.68,5.66-4.44,10.91-11.45,11.76Zm12.35-36.18c-9.14,1.11-17.01-1.66-17.55-6.23-.58-4.57,6.4-9.18,15.49-10.29,9.15-1.15,17.01,1.66,17.59,6.23.53,4.57-6.4,9.18-15.54,10.29Z" class="color13a173 svgShape"></path><path fill="#f5f1f9" d="m1303.61,1268.01c3.78-16.27,8.44-32.32,13.45-48.25,5.03-15.93,10.79-31.63,16.74-47.26,6.34-15.47,13.04-30.84,20.89-45.65,7.96-14.63,16.82-29.39,29.58-40.36l-4.06,4.77c-1.32,1.6-2.84,3.02-3.9,4.83-2.26,3.5-4.77,6.79-6.8,10.41l-6.19,10.79-5.59,11.12c-7.15,14.98-13.82,30.21-19.81,45.73-6.26,15.41-11.93,31.06-17.64,46.71-5.68,15.66-11.14,31.41-16.67,47.16Z" opacity=".52" class="colorf9f6f1 svgShape"></path><g><path fill="#480b7a" d="m1298.17,1527.49c1.77-16.84,4.16-33.42,7.04-50.01,2.91-16.56,6.35-33.04,10.79-49.28,4.55-16.17,9.74-32.38,18.31-47.04,4.36-7.13,9.71-14.38,17.66-17.94,3.94-1.76,8.45-2.06,12.54-.92,4.12,1.06,7.79,3.29,11.06,5.88-3.38-2.44-7.13-4.5-11.19-5.34-4.04-.93-8.3-.44-11.95,1.39-7.38,3.7-12.26,10.89-16.19,18.03-7.73,14.66-12.16,30.87-15.94,47.03-3.68,16.23-6.36,32.69-8.51,49.2-2.12,16.5-3.77,33.16-4.77,49.67l-8.85-.67Z" class="color0b7a52 svgShape"></path><path fill="#822ec6" d="m1482.41,1475.87c5.37-56.53-45.97-62.71-32.94-72.78,13.04-10.16,49.78,5.28,42.11-18.38-7.71-23.7-38.27-19.85-58.71-22.03-20.45-2.13-12.49-18.77,8.77-21.27,21.3-2.5,34.62-14.23-22.5-26.02-56.08-11.56-54.47,45.24-54.4,47.19v.04s0,0-.04-.05h-.04c-1.35-.78-18.42-10.39-38.91.31-5.27,2.82-10.81,6.9-16.31,12.88-19.9,21.54-10.18,47.44,5.93,64.81.72.76,1.45,1.52,2.18,2.23,5.87,5.89,12.39,10.59,18.57,13.66,24.55,12.22,15.96-21.41,13.78-34.73-2.17-13.36,13.9-18.44,16.51-1.08,2.6,17.36,2.56,56.25,38.92,73.87,36.36,17.62,19.37-14.1,9-24.93-10.37-10.83,4.3-15.56,16.93-7.36,12.63,8.2,45.79,70.16,51.16,13.63Zm-120.5-85.51c-2.28,7.35-9.05,11.8-15.17,9.92-6.11-1.92-9.17-9.4-6.89-16.8,2.28-7.35,9.09-11.8,15.16-9.88,6.12,1.88,9.22,9.41,6.9,16.76Zm19.41-40.15c.9-5.16,6.96-8.38,13.52-7.24,6.52,1.14,11.13,6.23,10.22,11.39-.89,5.12-6.96,8.38-13.48,7.24-6.56-1.15-11.16-6.28-10.27-11.4Zm5.99,85.38c-5.44-.86-8.67-8.91-7.22-17.98,1.44-9.03,7.02-15.67,12.46-14.81,5.48.87,8.72,8.92,7.27,17.99-1.44,9.03-7.07,15.67-12.5,14.81Zm34.08,8.21c-2.93,2.06-7.93.01-11.15-4.56-3.2-4.62-3.44-9.98-.51-12.03,2.93-2.06,7.89-.02,11.1,4.55,3.25,4.62,3.48,9.98.55,12.04Zm3.87-47.42c-8.31-1.45-14.41-6.53-13.56-11.38.84-4.81,8.31-7.56,16.62-6.11,8.35,1.46,14.44,6.58,13.6,11.39-.85,4.85-8.31,7.56-16.66,6.1Zm28.24,41.36c-2.93,2.06-8.58-.96-12.62-6.71-4.08-5.81-4.96-12.13-2.03-14.19,2.89-2.06,8.58.96,12.62,6.71,4.03,5.8,4.96,12.13,2.03,14.19Z" class="color2ec68f svgShape"></path><path fill="#f5f1f9" d="m1364.75,1362.63c11.63,7.87,22.46,16.86,32.9,26.27,10.45,9.41,20.28,19.51,29.52,30.14,9.08,10.77,17.63,22.03,24.95,34.1,7.16,12.15,13.31,24.96,17.19,38.47-3.08-6.33-5.63-12.81-9.29-18.78-3.11-6.23-7.09-11.98-10.78-17.85-7.89-11.46-16.39-22.46-25.43-33.04-9.06-10.57-18.69-20.64-28.5-30.57-4.9-4.97-9.94-9.81-15.07-14.55-5.02-4.87-10.26-9.51-15.49-14.18Z" opacity=".52" class="colorf9f6f1 svgShape"></path></g><path fill="#9d28fd" d="m1388.92,1520.03c0,37.35-17.12,70.03-42.7,87.97h-90.81c-25.61-17.94-42.73-50.62-42.73-87.97,0-8.87.98-17.45,2.77-25.67h170.69c1.83,8.22,2.77,16.8,2.77,25.67Z" class="colorfdbd28 svgShape"></path><rect width="177.64" height="19.33" x="1211.98" y="1484.69" fill="#7709d1" class="colord18f09 svgShape"></rect></g><g><path fill="#e6cef9" d="m521.89,946.33s53.49,33.51,64.86,32.4,104.71-9.42,104.71-9.42l8.47,36.76s-86.72,23.16-122.95,19.52c-36.23-3.64-76.04-26.43-76.04-26.43l20.95-52.84Z" class="colorf9d5ce svgShape"></path><path fill="#af4ffd" d="m550.18,956.93s-13.79,36.28-31.3,51.6c-.4.34-.8.69-1.2,1.02-1.13.92-2.29,1.76-3.45,2.48-10.67-5.59-20-9.88-28.79-13.91-18.68-8.58-34.84-15.98-56.06-32.34-9.24-7.12-17.03-15.62-22.66-25.6-24.65-43.68,44.87-53.09,44.87-53.09,0,0,47.92,33.01,98.59,69.84Z" class="color4f6bfd svgShape"></path><path fill="#e6cef9" d="m684.37,1007.03s16.84,8.53,40.85-.23c24.01-8.76,44.39-19.62,36.35-27.82-8.04-8.2-34.31-2.79-47.45-7.52-15.81-5.7-25.45-5.3-30.86,1.99-5.41,7.29,1.1,33.58,1.1,33.58Z" class="colorf9d5ce svgShape"></path><path fill="#e6cef9" d="m689.71,969.72s21.4-19.4,26.32-17.79c4.92,1.61-8.78,19.11-6.62,21.49,2.16,2.38-19.7-3.69-19.7-3.69Z" class="colorf9d5ce svgShape"></path><path fill="#d3b7ea" d="m694.89,979.82l-1.4-.32c1.68-7.27,15.68-10.05,16.27-10.17l.27,1.41c-.14.03-13.68,2.72-15.15,9.08Z" class="coloreabdb7 svgShape"></path><path fill="#8a3acc" d="m517.68,1009.55c-1.13.92-2.29,1.76-3.45,2.48-10.67-5.59-20-9.88-28.79-13.91l-1.36-1.21s-3.52-42.97-8.1-58.66c14.07,23.59,19.57,41.55,28.95,50.89,5.25,5.23,6.39,16.61,12.76,20.41Z" class="color3a5dcc svgShape"></path><path fill="#e6cef9" d="m427.27,1551.4l-2.97-53.03,64.25-7.91-5.47,56.38s-39.57,12.28-55.81,4.56Z" class="colorf9d5ce svgShape"></path><path fill="#531a82" d="m562.85,1607.09l-135.79,2.42-.76-63.85c35.07,2.7,59.09-7.71,59.09-7.71,0,0-7.18,24.19,37.94,19.76,5.82-.57,10.78-.17,15.03.95,18,4.76,23.05,22.55,24.32,35.18.76,7.54.16,13.24.16,13.24Z" class="color2b1a82 svgShape"></path><path fill="#b197c6" d="m562.85,1607.09l-52.61.62c-4.46-35.4,17.2-45.98,28.12-49.04,18,4.76,23.05,22.55,24.32,35.18.76,7.54.16,13.24.16,13.24Z" class="color9b97c6 svgShape"></path><path fill="#b197c6" d="m562.85,1607.09l-135.79,2.42-.16-13.24,135.78-2.42c.76,7.54.16,13.24.16,13.24Z" class="color9b97c6 svgShape"></path><rect width="20.64" height="3.89" x="496.61" y="1562.11" fill="#b993d8" transform="rotate(-54.87 507.03 1564.15)" class="color9393d8 svgShape"></rect><rect width="25.07" height="3.89" x="479.68" y="1558.86" fill="#b993d8" transform="rotate(-54.52 492.2 1560.8)" class="color9393d8 svgShape"></rect><rect width="20.56" height="3.89" x="469.8" y="1553.17" fill="#b993d8" transform="rotate(-53.38 480.142 1555.171)" class="color9393d8 svgShape"></rect><path fill="#8441bb" d="m502.7,1493.54c-.27,6.24-.47,12.16-.6,17.7-4.94,1.84-9.86,3.26-14.7,4.32-37.91,8.4-70.68-4.67-70.68-4.67l-.62-22.77-1.09-39.96-9.95-120.89v-.03l-17.64-214.4-.13-4.98s49.48-20,109.64-8.9c11.11,66.63,10.26,287.27,5.77,394.57Z" class="color4741bb svgShape"></path><path fill="#b993d8" d="m502.7,1493.55c-.27,6.23-.47,12.15-.6,17.69-43.73,16.27-85.38-.35-85.38-.35l-.61-22.76c14.98,3.44,51.71,10.39,86.6,5.42Z" class="color9393d8 svgShape"></path><path fill="#e6cef9" d="m293.5,1541.56l6.84-52.67,64.61,4.05-15.76,54.4s-41.15,4.78-55.7-5.79Z" class="colorf9d5ce svgShape"></path><path fill="#531a82" d="m421.81,1613.34l-135.33-11.42,5.75-63.59c34.62,6.26,59.57-1.65,59.57-1.65,0,0-9.6,23.34,35.73,23.52,5.85.03,10.74.92,14.86,2.48,17.42,6.56,20.64,24.78,20.61,37.48-.01,7.57-1.18,13.18-1.18,13.18Z" class="color2b1a82 svgShape"></path><path fill="#b197c6" d="m421.81,1613.34l-52.4-4.74c-.83-35.67,21.79-43.99,32.97-45.92,17.42,6.56,20.64,24.78,20.61,37.48-.01,7.57-1.18,13.18-1.18,13.18Z" class="color9b97c6 svgShape"></path><path fill="#b197c6" d="m421.81,1613.34l-135.33-11.42,1.19-13.18,135.32,11.42c-.01,7.57-1.18,13.18-1.18,13.18Z" class="color9b97c6 svgShape"></path><rect width="20.64" height="3.89" x="360.25" y="1562.9" fill="#b993d8" transform="rotate(-49.04 370.512 1564.765)" class="color9393d8 svgShape"></rect><rect width="25.08" height="3.89" x="343.72" y="1558.17" fill="#b993d8" transform="rotate(-48.68 356.296 1560.152)" class="color9393d8 svgShape"></rect><rect width="20.56" height="3.89" x="334.49" y="1551.26" fill="#b993d8" transform="rotate(-47.53 344.793 1553.253)" class="color9393d8 svgShape"></rect><path fill="#8441bb" d="m376.4,1494.56c-.9,6.17-1.71,12.04-2.4,17.54-16.65,4.32-32.58,4.23-46.03,2.38-23.04-3.16-38.87-11.43-38.87-11.43l1.71-22.71,2.99-39.86,19.23-256.7,5.3-70.65.37-4.97s53.28-3.62,111.99,13.55c4.26,67.42-38.89,266.54-54.29,372.84Z" class="color4741bb svgShape"></path><path fill="#af4ffd" d="m498.84,1118.68s-53.61,41.76-166.51-.88c-4.29-1.62-8.66-3.36-13.12-5.23-.01-.06-.03-.13-.01-.19-3.89-35.53-5.74-64.88-6.2-89.13-.88-46.85,3.5-74.66,8.7-91.11,6.7-21.22,14.78-23.6,14.78-23.6,0,0,7.46-6.92,22.52-13.68,15.89-7.13,40.26-14.08,73.24-12.53,1.68.07,3.39.17,5.12.3,67.67,4.91,61.48,236.03,61.48,236.03Z" class="color4f6bfd svgShape"></path><path fill="#b993d8" d="m376.4,1494.56c-.9,6.17-1.71,12.04-2.4,17.54-45.16,11.73-84.91-9.04-84.91-9.04l1.71-22.71c14.56,4.95,50.38,15.6,85.59,14.21Z" class="color9393d8 svgShape"></path><path fill="#b993d8" d="m322.88,1488.93l-2.87-.08c.08-2.79,8.05-280.35,39.78-365.13l2.69,1.01c-31.56,84.34-39.52,361.42-39.59,364.2Z" class="color9393d8 svgShape"></path><g opacity=".6"><path fill="#642d91" d="m487.4,1515.56c-37.91,8.4-70.68-4.67-70.68-4.67l-.62-22.77-1.09-39.96-9.95-120.89v-.03s18.62-107.07,21.52-137.16c4.35,51.04,5.76,66.78.01,106.97-5.74,40.19,12.92,152.16,10.05,173.69-2.41,18.13-1.78,41.34,50.76,44.81Z" class="color2d2d91 svgShape"></path></g><g opacity=".6"><path fill="#642d91" d="m327.97,1514.49c-23.04-3.16-38.87-11.43-38.87-11.43l1.71-22.71,2.99-39.86,19.23-256.7c5.61,47.2,11.08,102.63,8.78,123.32-4.31,38.76-28.71,133.49-27.27,167.94,1.11,26.68,23.43,36.42,33.43,39.43Z" class="color2d2d91 svgShape"></path></g><path fill="#8a3acc" d="m343.63,1062.34c7.18,22.97-11.3,55.46-11.3,55.46-4.29-1.62-8.66-3.36-13.12-5.23-.01-.06-.03-.13-.01-.19-3.89-35.53-5.74-64.88-6.2-89.13l3.79.34s36.13-45.28,43.2-57.87c1.14,71.09-23.54,73.63-16.36,96.6Z" class="color3a5dcc svgShape"></path><path fill="#c887fd" d="m432.34,885.1c0,20.61-16.71,37.32-37.32,37.32-17.23,0-31.72-11.67-36.01-27.53,15.89-7.13,40.26-14.08,73.24-12.53.07.9.1,1.82.1,2.74Z" class="colorabbbff svgShape"></path><g><path fill="#e6cef9" d="m419.77,834l-1.08,57.34c-.24,12.72-10.74,22.83-23.46,22.59h0c-12.72-.24-22.83-10.74-22.59-23.46l1.08-57.34,46.05.87Z" class="colorf9d5ce svgShape"></path><path fill="#d3b7ea" d="m419.77,834l-.92,48.37c-25.82-5.32-39.19-20.7-45.48-31.09l.34-18.15,46.05.87Z" class="coloreabdb7 svgShape"></path><path fill="#e6cef9" d="m442.99,784.35s13.84,77.68-24.78,81.86c-38.62,4.18-63.94-27.21-66.52-46.93-2.58-19.72-1.83-75.08,42.49-76.11,44.33-1.04,48.81,41.18,48.81,41.18Z" class="colorf9d5ce svgShape"></path><path fill="#30094f" d="m373.78,791.12s17.56,3.95,62.75-18.91l-6.96,14.19s38.87-20.25,9.9-54.32c-10.07-11.84-76.74-7.09-86.47,6.42-39.81,11.53-21.69,118.46,19.66,114.35,1.39-36.97,1.11-61.73,1.11-61.73Z" class="color0f094f svgShape"></path><path fill="#e6cef9" d="m374.94,815.49s-5.34-9.52-18.69-6.57c-13.35,2.94-10.66,34.51,16.92,28.51,4.99-15.9,1.76-21.94,1.76-21.94Z" class="colorf9d5ce svgShape"></path><path fill="#d3b7ea" d="m356.06,828.82l-1-2.52c7.74-3.06,7.16-11.01,7.15-11.09l2.7-.23c0,.1.74,10.05-8.86,13.83Z" class="coloreabdb7 svgShape"></path><rect width="2.71" height="6.93" x="363.23" y="820.91" fill="#d3b7ea" transform="rotate(-50.65 364.517 824.316)" class="coloreabdb7 svgShape"></rect></g><path fill="#e6cef9" d="m281.16,1019.74s-1.87,17.64-4.1,38.78c-7.47,70.87,20.38,159.56,20.38,159.56,0,0,29.51-2.17,35.55-10.34-10.56-26.7-9.64-84.48-9.74-127.66-.02-9.77,15.5-60.97,15.5-60.97l-57.59.64Z" class="colorf9d5ce svgShape"></path><path fill="#af4ffd" d="m338.21,1036.24c-23.72,4.25-62.52-15.76-62.52-15.76,0,0,18.84-66.3,35.07-83.58,4.7-5,18.36-25.22,28.13-29.1,9.13,10.01,19.2,25.56,20.58,46.3,2.59,39.01-3.23,46.86-21.25,82.14Z" class="color4f6bfd svgShape"></path><g><path fill="#e6cef9" d="m298.37,1214.64s-13.38,54.38,21.99,61.07c35.37,6.69,1.6-48.25,7.33-48.59,4.64-.28,32.88,10.15,10.08-15.1-16.35-18.11-39.41,2.62-39.41,2.62Z" class="colorf9d5ce svgShape"></path><path fill="#d3b7ea" d="M318.22 1275.94c-.16-.11-16.43-10.9-17.06-30.56l1.43-.04c.6 18.9 16.25 29.3 16.4 29.4l-.78 1.2zM323.99 1276.72c-.54-.58-13.26-14.44-14.39-26.76l1.43-.13c1.09 11.83 13.89 25.77 14.02 25.91l-1.05.97zM330.88 1275.62c-.48-.69-11.71-17.04-12.84-29.3l1.43-.13c1.1 11.88 12.48 28.45 12.59 28.62l-1.18.82z" class="coloreabdb7 svgShape"></path></g></g><g><path fill="#c174ff" d="m1711.99,966.79v132.92c0,27.46-22.26,49.71-49.72,49.71h-345.93c-21.27,0-39.41-13.35-46.51-32.13-2.07-5.46-3.2-11.39-3.2-17.58v-118.96l-58.31-64.14,134.56.46h319.39c27.46,0,49.72,22.26,49.72,49.72Z" class="colorff748f svgShape"></path><path fill="#ffffff" d="M1568.62 1020.89h-242c-6.9 0-12.5-5.6-12.5-12.5h0c0-6.9 5.6-12.5 12.5-12.5h242c6.9 0 12.5 5.6 12.5 12.5h0c0 6.9-5.6 12.5-12.5 12.5zM1658.62 1070.14h-332c-6.9 0-12.5-5.6-12.5-12.5h0c0-6.9 5.6-12.5 12.5-12.5h332c6.9 0 12.5 5.6 12.5 12.5h0c0 6.9-5.6 12.5-12.5 12.5z" opacity=".75" class="colorfff svgShape"></path><path fill="#ffffff" d="m1555.14,917.07c-68.41,64.1-163.23,138.06-285.31,200.22-2.07-5.46-3.2-11.39-3.2-17.58v-118.96l-58.31-64.14,134.56.46h212.26Z" opacity=".15" class="colorfff svgShape"></path></g><g><path fill="#f5e9ff" d="m1814.59,575.72v195.92c0,40.47-32.81,73.28-73.28,73.28h-509.89c-40.47,0-73.28-32.81-73.28-73.28v-175.33l-85.95-94.55,198.35.68h470.77c40.47,0,73.28,32.81,73.28,73.28Z" class="colore9efff svgShape"></path><path fill="#af4ffd" d="m1346.55,596.31c0,12.27-3.38,23.74-9.28,33.55-11.4,18.98-32.19,31.67-55.94,31.67s-44.54-12.69-55.94-31.67c-5.9-9.8-9.28-21.28-9.28-33.55,0-36.03,29.21-65.23,65.23-65.23s65.23,29.2,65.23,65.23Z" class="color4f6bfd svgShape"></path><circle cx="1281.32" cy="565.08" r="19.67" fill="#f5e9ff" transform="rotate(-76.72 1281.276 565.095)" class="colore9efff svgShape"></circle><path fill="#f5e9ff" d="m1332.9,627.24c-10.51,17.5-29.68,29.2-51.58,29.2s-41.07-11.7-51.58-29.2c8.51-20.08,28.4-34.16,51.58-34.16s43.07,14.08,51.58,34.16Z" class="colore9efff svgShape"></path><path fill="#e8d5f7" d="m1346.55,743.31c0,12.27-3.38,23.74-9.28,33.55-11.4,18.98-32.19,31.67-55.94,31.67s-44.54-12.69-55.94-31.67c-5.9-9.8-9.28-21.28-9.28-33.55,0-36.03,29.21-65.23,65.23-65.23s65.23,29.2,65.23,65.23Z" class="colord5e0f7 svgShape"></path><circle cx="1281.32" cy="712.08" r="19.67" fill="#f5e9ff" transform="rotate(-76.72 1281.273 712.094)" class="colore9efff svgShape"></circle><path fill="#f5e9ff" d="m1332.9,774.24c-10.51,17.5-29.68,29.2-51.58,29.2s-41.07-11.7-51.58-29.2c8.51-20.08,28.4-34.16,51.58-34.16s43.07,14.08,51.58,34.16Z" class="colore9efff svgShape"></path><path fill="#d5c1e5" d="M1642.15 584.18h-242c-6.9 0-12.5-5.6-12.5-12.5h0c0-6.9 5.6-12.5 12.5-12.5h242c6.9 0 12.5 5.6 12.5 12.5h0c0 6.9-5.6 12.5-12.5 12.5zM1732.15 633.43h-332c-6.9 0-12.5-5.6-12.5-12.5h0c0-6.9 5.6-12.5 12.5-12.5h332c6.9 0 12.5 5.6 12.5 12.5h0c0 6.9-5.6 12.5-12.5 12.5z" class="colorc1cee5 svgShape"></path><path fill="#e8d5f7" d="M1642.15 731.18h-242c-6.9 0-12.5-5.6-12.5-12.5h0c0-6.9 5.6-12.5 12.5-12.5h242c6.9 0 12.5 5.6 12.5 12.5h0c0 6.9-5.6 12.5-12.5 12.5zM1732.15 780.43h-332c-6.9 0-12.5-5.6-12.5-12.5h0c0-6.9 5.6-12.5 12.5-12.5h332c6.9 0 12.5 5.6 12.5 12.5h0c0 6.9-5.6 12.5-12.5 12.5z" class="colord5e0f7 svgShape"></path><path fill="#ffffff" d="m1158.14,709.02v-112.71l-85.95-94.55,198.35.68h270.72c-73.3,64.93-197.79,151.44-383.12,206.58Z" opacity=".2" class="colorfff svgShape"></path></g></svg></g></svg>