<svg xmlns="http://www.w3.org/2000/svg" enable-background="new 0 0 700 700" viewBox="0 0 700 700" width="550" height="550"><ellipse cx="131.449" cy="581.162" fill="#f5f7ff" rx="22.664" ry="2.706" class="colorf5f7ff svgShape"></ellipse><ellipse cx="233.842" cy="581.748" fill="#f5f7ff" rx="33.074" ry="2.706" class="colorf5f7ff svgShape"></ellipse><path fill="#f5f7ff" d="M208.795 367.653c42.355-22.713 68.005-70.59 68.719-118.644.461-31.027-9.391-63.948 3.918-91.979 11.907-25.076 40.39-39.181 68.112-40.61s54.876 7.835 80.284 19.017c49.95 21.983 97.618 53.13 128.126 98.378s41.065 106.456 16.721 155.298c-24.483 49.122-77.554 76.616-128.942 95.895a869.461 869.461 0 0 1-202.242 49.233c-33.468 3.99-72.193 4.162-94.964-20.688-20.551-22.428-19.563-58.736-4.62-85.231 14.945-26.496 38.228-46.021 64.888-60.67z" class="colorf5f7ff svgShape"></path><path fill="#dbe5ff" d="m560.61 156.129-.986-.164c.384-2.305.516-4.616.39-6.87l.999-.054a32.357 32.357 0 0 1-.403 7.088zM428.272 408.033a83.401 83.401 0 0 0-11.934-7.473l.457-.888a84.354 84.354 0 0 1 12.078 7.562l-.6.799zm-109.358-12.58c-4.69-.229-9.447-.806-14.135-1.713l.19-.982c4.642.898 9.35 1.47 13.994 1.698l-.049.998zm14.23-.183-.065-.998c4.842-.31 9.636-.817 14.094-1.32l.112.995c-4.471.503-9.279 1.012-14.142 1.323zm70.17-.056a79.628 79.628 0 0 0-13.748-3.018l.127-.992a80.754 80.754 0 0 1 13.92 3.055l-.299.955zm-41.938-2.82-.097-.997c5.493-.535 10.001-.82 14.19-.893l.017 1c-4.16.074-8.644.356-14.11.89zm-70.358-2.307a111.235 111.235 0 0 1-13.16-5.43l.44-.898a110.253 110.253 0 0 0 13.04 5.38l-.32.948zm-25.531-12.468a118.309 118.309 0 0 1-11.424-8.492l.644-.766c3.6 3.03 7.41 5.862 11.327 8.42l-.547.838zm-21.746-18.295a116.8 116.8 0 0 1-9.062-10.977l.809-.587c2.747 3.778 5.77 7.439 8.984 10.882l-.731.682zm-16.694-22.991a119.615 119.615 0 0 1-6.096-12.862l.927-.373a118.599 118.599 0 0 0 6.045 12.752l-.876.483zm-10.651-26.343a130.74 130.74 0 0 1-3.025-13.903l.987-.16c.753 4.667 1.763 9.31 3.002 13.797l-.964.266zm-4.546-28.052a139.23 139.23 0 0 1-.05-14.225l.999.047a138.234 138.234 0 0 0 .05 14.124l-.999.054zm2.33-28.235-.99-.149c.7-4.68 1.644-9.373 2.808-13.946l.968.246a140.553 140.553 0 0 0-2.786 13.849zm6.962-27.342-.938-.344a146.925 146.925 0 0 1 5.544-13.098l.901.433a146.025 146.025 0 0 0-5.507 13.01zm251.908-22.32h-.055c-2.237 0-4.52-.054-6.782-.162l.047-.998c2.247.106 4.513.16 6.735.16h.055c2.437 0 4.904-.065 7.335-.195l.053.999c-2.448.13-4.933.197-7.388.197zm-20.997-1.545c-4.675-.69-9.37-1.621-13.953-2.765l.242-.97a144.688 144.688 0 0 0 13.857 2.745l-.146.99zm42.533-.144-.156-.988c4.667-.742 9.312-1.74 13.805-2.963l.264.965a132.071 132.071 0 0 1-13.913 2.986zm-261.217-1.43-.856-.515a159.698 159.698 0 0 1 7.876-11.84l.807.589a158.88 158.88 0 0 0-7.827 11.767zm191.113-5.305a144.094 144.094 0 0 1-13.146-5.436l.428-.904c4.227 2 8.62 3.817 13.054 5.399l-.336.941zm97.516-.752-.37-.93a97.38 97.38 0 0 0 1.15-.464c4.325-1.768 8.118-3.59 11.597-5.568l.494.87c-3.517 2-7.348 3.84-11.712 5.624-.386.157-.771.314-1.159.468zm-123.195-11.414a135.717 135.717 0 0 1-11.77-7.993l.606-.797a134.442 134.442 0 0 0 11.681 7.934l-.517.856zm147.687-2.946-.67-.743a52.472 52.472 0 0 0 2.933-2.858 44.781 44.781 0 0 0 5.987-7.903l.86.51a45.724 45.724 0 0 1-6.12 8.08 53.459 53.459 0 0 1-2.99 2.914zm-296.466-2.388-.754-.658a172.137 172.137 0 0 1 9.788-10.314l.696.717a170.759 170.759 0 0 0-9.73 10.255zm126.167-11.876a125.39 125.39 0 0 1-7.169-7.394c-.868-.971-1.728-1.96-2.584-2.958l.758-.652c.853.993 1.708 1.977 2.572 2.944a124.322 124.322 0 0 0 7.113 7.335l-.69.725zm-105.898-7.8-.635-.772a178.842 178.842 0 0 1 11.327-8.594l.572.82a177.617 177.617 0 0 0-11.264 8.545zm86.817-13.202c-3.806-4.008-7.202-6.89-10.688-9.068l.53-.848c3.56 2.225 7.017 5.156 10.883 9.227l-.725.689zm-63.644-2.967-.506-.861.501-.293c4.195-2.437 8.302-4.501 12.205-6.137l.387.922c-3.864 1.62-7.932 3.665-12.09 6.08l-.497.29zm26.012-10.514-.185-.983c5.034-.945 9.84-1.09 14.274-.43l-.148.989c-4.323-.643-9.016-.5-13.941.424zM443.35 422.793a79.017 79.017 0 0 0-4.518-5.285l.73-.684a80.243 80.243 0 0 1 4.577 5.354l-.79.615z" class="colordbe5ff svgShape"></path><linearGradient id="a" x1="-5888.096" x2="-5877.063" y1="-1058.607" y2="-1058.607" gradientTransform="rotate(-14.22 2146.665 -26303.8)" gradientUnits="userSpaceOnUse"><stop offset="0" stop-color="#e7ecff" class="stopColore7ecff svgShape"></stop><stop offset="1" stop-color="#c2d5ff" class="stopColorc2d5ff svgShape"></stop></linearGradient><path fill="url(#a)" d="M570.822 140.808a.212.212 0 0 1-.09.261l-9.533 5.586a.133.133 0 0 1-.055.022.206.206 0 0 1-.196-.054.209.209 0 0 1-.037-.25l6.883-12.26a.214.214 0 0 1 .199-.107c.08.006.153.057.18.132l2.65 6.67z"></path><linearGradient id="b" x1="-5886.725" x2="-5838.104" y1="-1061.957" y2="-1061.957" gradientTransform="rotate(-14.22 2146.665 -26303.8)" gradientUnits="userSpaceOnUse"><stop offset="0" stop-color="#e7ecff" class="stopColore7ecff svgShape"></stop><stop offset="1" stop-color="#c2d5ff" class="stopColorc2d5ff svgShape"></stop></linearGradient><path fill="url(#b)" d="M604.635 115.658a.21.21 0 0 1-.026.237l-30.13 34.432a.219.219 0 0 1-.195.07.206.206 0 0 1-.158-.128l-8.235-20.742-9.415-6.23a.21.21 0 0 1-.09-.22.212.212 0 0 1 .176-.162l47.855-7.366a.21.21 0 0 1 .218.11z"></path><path fill="#c2d5ff" d="M593.286 120.1c.047.1.007.215-.088.269l-25.065 14-6.854 12.21a.216.216 0 0 1-.135.098.21.21 0 0 1-.253-.261l4.971-17.086a.22.22 0 0 1 .133-.142l27.033-9.2a.205.205 0 0 1 .258.111z" class="colorc2d5ff svgShape"></path><path fill="#fdccc5" d="M260.033 372.123c-1.643-.764-2.322-3.185-3.405-5.514l6.041-6.476s7.522 1.01 7.333 3.396c-.124 1.56-4.85.72-4.85.72s-2.423 9.126-5.119 7.874zM119.2 552.147l-2.871 11.672-13.353-6.31 5.034-10.65z" class="colorfdccc5 svgShape"></path><linearGradient id="c" x1="721.214" x2="764.635" y1="-8.579" y2="-8.579" gradientTransform="rotate(25.296 -848.442 -1113.845)" gradientUnits="userSpaceOnUse"><stop offset="0" stop-color="#78a7ff" class="stopColor78a7ff svgShape"></stop><stop offset="1" stop-color="#3d79f3" class="stopColor3d79f3 svgShape"></stop></linearGradient><path fill="url(#c)" d="m135.405 579.53-.005.009-.012.026a3.663 3.663 0 0 1-3.52 2.286c-2.984-.094-8.418-.94-14.111-5.128-8.506-6.278-17.767-9.35-21.402-10.65-1.282-.456-1.12-2.52-.184-5 .041-.108.082-.218.131-.322 1.583-3.961 5.052-8.765 7.812-9.622.176-.056.344-.094.517-.12.207-.03.41-.03.61 0 2.961.436 4.852 9.207 9.535 7.246.515-.206.745-.964.985-1.879.107-.409.223-.857.356-1.297.134-.427.433-.795.792-1.103.924-.792 2.363-.402 2.833.72.375.894.92 2.13 1.696 3.753.14.292.256.614.38.94.091.214.178.437.274.665.317.824.672 1.59 1.042 2.3.154.309.316.6.47.886a25.461 25.461 0 0 0 1.915 2.832c4.114 5.176 9.123 6.762 10.066 9.091.604 1.463.305 3.045-.16 4.302 0 .021-.012.048-.02.065z"></path><path fill="#070159" d="M131.87 581.855c-2.981-.1-8.419-.948-14.109-5.133-8.508-6.28-17.768-9.348-21.41-10.646-1.275-.458-1.117-2.529-.181-5 .042-.108.084-.216.136-.326 6.77.215 15.189 4.714 20.513 10.988 5.83 6.865 15.164 9.016 18.565 7.782.009-.002.014.002.016.011.002.01-.004.006-.004.006.002.01-.005.02-.01.025a3.651 3.651 0 0 1-3.515 2.293zM115.348 557.883c-.446.763-1.199 1.36-2.074 1.513-.617.105-1.264-.02-1.845-.262-.59-.246-1.113-.611-1.602-1.003a15.416 15.416 0 0 1-1.759-1.602 16.743 16.743 0 0 1-2.496-3.459 16.906 16.906 0 0 1-.882-1.937 1.052 1.052 0 0 0-.06-.124c.208-.03.411-.03.61 0 2.962.436 4.853 9.207 9.536 7.246.515-.206.745-.964.985-1.879.029.528-.142 1.047-.413 1.507z" class="color070159 svgShape"></path><linearGradient id="d" x1="-1770.169" x2="-1666.782" y1="457.252" y2="457.252" gradientTransform="matrix(-1 0 0 1 -1560.346 0)" gradientUnits="userSpaceOnUse"><stop offset="0" stop-color="#5c5ca0" class="stopColor5c5ca0 svgShape"></stop><stop offset="1" stop-color="#434389" class="stopColor434389 svgShape"></stop></linearGradient><path fill="url(#d)" d="M146.61 448.015c6.869-20.966 18.472-77.776 20.15-85.92h42.774c-2.593 8.836-21.098 74.2-31.822 97.487-11.1 24.102-55.942 92.307-55.942 92.307-1.085 2.44-16.364-4.36-15.279-6.8 0 0 32.1-72.596 40.12-97.074z"></path><path fill="#fdccc5" d="m231.458 558.201 3.072 11.62-14.743.859-.685-11.76z" class="colorfdccc5 svgShape"></path><linearGradient id="e" x1="-96.509" x2="-53.087" y1="638.289" y2="638.289" gradientTransform="rotate(-3.331 -1086.443 -4753.641)" gradientUnits="userSpaceOnUse"><stop offset="0" stop-color="#78a7ff" class="stopColor78a7ff svgShape"></stop><stop offset="1" stop-color="#3d79f3" class="stopColor3d79f3 svgShape"></stop></linearGradient><path fill="url(#e)" d="m258.801 574.473.001.01.002.028a3.663 3.663 0 0 1-1.995 3.693c-2.665 1.347-7.839 3.209-14.843 2.26-10.474-1.436-20.075.305-23.888.905-1.344.214-2.19-1.675-2.557-4.3a4.188 4.188 0 0 1-.04-.346c-.507-4.235.236-10.113 2.248-12.188a3.28 3.28 0 0 1 .396-.353c.167-.126.345-.223.535-.293 2.809-1.035 8.67 5.757 11.842 1.792.353-.427.192-1.203-.036-2.12-.102-.411-.215-.86-.31-1.31-.086-.439 0-.905.168-1.347.431-1.138 1.881-1.485 2.832-.725a86.004 86.004 0 0 0 3.286 2.481c.263.189.518.416.784.643.182.144.366.299.559.452a22.17 22.17 0 0 0 2.017 1.52c.283.197.565.375.837.553a25.449 25.449 0 0 0 3.038 1.568c6.09 2.572 11.247 1.564 13.19 3.157 1.231.995 1.727 2.526 1.92 3.853.012.018.013.047.014.067z"></path><path fill="#070159" d="M256.813 578.206c-2.665 1.34-7.844 3.202-14.843 2.254-10.478-1.435-20.076.308-23.895.914-1.338.209-2.19-1.684-2.554-4.302-.014-.115-.03-.23-.037-.351 6.045-3.055 15.591-3.14 23.27-.183 8.407 3.232 17.63.648 20.024-2.064.008-.006.014-.005.02.002s0 .006 0 .006a3.651 3.651 0 0 1-1.984 3.724zM230.826 565.08c-.026.884-.401 1.769-1.096 2.323-.491.387-1.12.589-1.745.654-.636.066-1.27-.004-1.887-.113a15.416 15.416 0 0 1-2.31-.564 16.744 16.744 0 0 1-3.85-1.84 16.904 16.904 0 0 1-1.702-1.277c-.03-.027-.07-.054-.111-.08.167-.127.345-.224.535-.294 2.809-1.035 8.67 5.757 11.842 1.792.353-.427.192-1.203-.036-2.12.278.449.377.986.36 1.52z" class="color070159 svgShape"></path><linearGradient id="f" x1="-754.454" x2="-651.068" y1="692.691" y2="692.691" gradientTransform="scale(-1 1) rotate(28.627 1.87 1520.193)" gradientUnits="userSpaceOnUse"><stop offset="0" stop-color="#5c5ca0" class="stopColor5c5ca0 svgShape"></stop><stop offset="1" stop-color="#434389" class="stopColor434389 svgShape"></stop></linearGradient><path fill="url(#f)" d="M205.628 453.666c-4.016-21.694-21.05-77.12-23.479-85.071l37.545-20.494c1.958 8.998 17.031 75.239 18.775 100.817 1.805 26.474-4.878 107.825-4.878 107.825.215 2.66-16.453 4.013-16.67 1.352 0 0-6.604-79.102-11.293-104.43z"></path><linearGradient id="g" x1="214.728" x2="249.558" y1="277.475" y2="370.433" gradientUnits="userSpaceOnUse"><stop offset="0" stop-color="#fc6865" class="stopColorfc6865 svgShape"></stop><stop offset="1" stop-color="#f24e4e" class="stopColorf24e4e svgShape"></stop></linearGradient><path fill="url(#g)" d="m263.653 359.912-6.72 7.757s-29.865-20.158-36.532-29.897c-8.072-11.793-15.431-47.32-12.276-55.831 1.646-4.476 10.043-5.692 14.896-1.352 9.005 8.05 6.269 36.155 11.92 46.837 5.062 9.581 28.712 32.486 28.712 32.486z"></path><linearGradient id="h" x1="193.538" x2="193.309" y1="306.249" y2="377.43" gradientUnits="userSpaceOnUse"><stop offset="0" stop-color="#fc6865" class="stopColorfc6865 svgShape"></stop><stop offset="1" stop-color="#f24e4e" class="stopColorf24e4e svgShape"></stop></linearGradient><path fill="url(#h)" d="M225.002 374.62c-.46 6.121-57.246 5.838-60.852 0-7.066-22.864-6.007-77.06 3.868-93.036 6.541-10.598 47.644-9.319 55.066-.283 10.535 12.831-2.002 56.545 1.918 93.318z"></path><path fill="#fdccc5" d="M188.061 253.404v21.067c0 5.549 16.443 5.549 16.443 0-.01-1.924-.048-7.81-.048-7.81 3.602 1.357 7.854 1.744 9.221.83.84-.567 1.31-2.745 1.575-4.828.037-.32.075-.641.113-.952.179-1.83.207-3.366.207-3.366 6.666 1.31.33-6.986.33-6.986l-1.263-16.424-14.972.066c-9.023 3.064-11.606 18.403-11.606 18.403z" class="colorfdccc5 svgShape"></path><linearGradient id="i" x1="181.428" x2="226.252" y1="235.741" y2="235.741" gradientUnits="userSpaceOnUse"><stop offset="0" stop-color="#771e24" class="stopColor771e24 svgShape"></stop><stop offset="1" stop-color="#47090e" class="stopColor47090e svgShape"></stop></linearGradient><path fill="url(#i)" d="M215.44 242.866s12.26-6.709 10.67-10c-.59-1.22-5.362.795-5.362.795s6.03-9.673.81-13.118c-12.996-8.573-32.624-.892-32.847 15.602 0 0-15.326-9.204-1.512 18.336l7.34-1.482s4.806-6.342 1.747-11.332c0 0 12.065 3.783 19.154 1.199z"></path><path fill="#fdccc5" d="M187.513 255.027c1.518 2.373 4.17 3.393 5.913 2.277 1.75-1.12 1.93-3.95.411-6.323-1.523-2.381-4.168-3.405-5.918-2.285-1.744 1.115-1.93 3.95-.406 6.331z" class="colorfdccc5 svgShape"></path><linearGradient id="j" x1="-2033.982" x2="-2032.576" y1="159.079" y2="159.079" gradientTransform="scale(-1 1) rotate(-5.708 -219.504 -18046.89)" gradientUnits="userSpaceOnUse"><stop offset="0" stop-color="#771e24" class="stopColor771e24 svgShape"></stop><stop offset="1" stop-color="#47090e" class="stopColor47090e svgShape"></stop></linearGradient><path fill="url(#j)" d="M212.732 249.137a.703.703 0 1 0 1.398.136.703.703 0 0 0-1.398-.136z"></path><linearGradient id="k" x1="-2034.956" x2="-2029.176" y1="156.324" y2="156.324" gradientTransform="scale(-1 1) rotate(-5.708 -219.504 -18046.89)" gradientUnits="userSpaceOnUse"><stop offset="0" stop-color="#771e24" class="stopColor771e24 svgShape"></stop><stop offset="1" stop-color="#47090e" class="stopColor47090e svgShape"></stop></linearGradient><path fill="url(#k)" d="M210.019 246.322c-.134.076-.27.158-.365.278s-.147.288-.092.432c.093.243.41.294.672.298 1.55.021 3.102-.272 4.537-.857.16-.065.324-.137.45-.255.84-.784-.84-.941-1.276-.935a8.536 8.536 0 0 0-2.515.42c-.49.16-.963.367-1.411.62z"></path><path fill="#f7b4ad" d="M197.517 263.992c.17.217 3.017 3.63 6.949 5.374-.01-1.612-.01-2.706-.01-2.706s-3.96-1.112-6.939-2.668zM210.594 260.485a5.089 5.089 0 0 0 3.3 2.121c.302.057.613.085.924.085.141 0 .292-.01.434-.028.037-.32.075-.641.113-.952a4.026 4.026 0 0 1-1.301-.038 4.143 4.143 0 0 1-2.697-1.725.48.48 0 0 0-.66-.123.47.47 0 0 0-.113.66z" class="colorf7b4ad svgShape"></path><path fill="#fdccc5" d="M258.56 372.848c1.306 1.079 4.218-.387 6.665-3.163 2.447-2.775 3.495-5.8 2.188-6.88-1.306-1.077-4.343.295-6.79 3.07-2.447 2.776-3.37 5.895-2.063 6.973z" class="colorfdccc5 svgShape"></path><linearGradient id="l" x1="366.462" x2="431.959" y1="109.966" y2="109.966" gradientTransform="rotate(8.058 -806.788 -1757.296)" gradientUnits="userSpaceOnUse"><stop offset="0" stop-color="#e7ecff" class="stopColore7ecff svgShape"></stop><stop offset="1" stop-color="#c2d5ff" class="stopColorc2d5ff svgShape"></stop></linearGradient><path fill="url(#l)" d="m157.868 260.808-5.608-2.336a26.88 26.88 0 0 0-2.308-8.928l3.782-4.77a.952.952 0 0 0 .02-1.18l-4.038-5.37a.985.985 0 0 0-1.137-.33l-5.634 2.33a26.412 26.412 0 0 0-7.937-4.695l-.688-6.036a.986.986 0 0 0-.85-.86l-6.63-.939a.962.962 0 0 0-1.036.594l-2.357 5.604a26.302 26.302 0 0 0-8.908 2.311l-4.766-3.802a1.012 1.012 0 0 0-1.205-.002l-5.369 4.037a.952.952 0 0 0-.31 1.14l2.31 5.632a26.878 26.878 0 0 0-4.695 7.937l-6.015.69a.982.982 0 0 0-.878.828l-.942 6.65a.981.981 0 0 0 .614 1.038l5.584 2.355a26.968 26.968 0 0 0 2.311 8.908l-3.782 4.769a.982.982 0 0 0-.022 1.202l4.037 5.369a.978.978 0 0 0 1.16.312l5.635-2.33a25.836 25.836 0 0 0 7.917 4.692l.709 6.039c.042.45.394.796.83.857l6.63.939a.987.987 0 0 0 1.055-.59l2.337-5.609a25.944 25.944 0 0 0 8.928-2.307l4.766 3.802c.341.281.826.287 1.181.02l5.37-4.037a.982.982 0 0 0 .312-1.161l-2.31-5.632a26.972 26.972 0 0 0 4.692-7.916l6.04-.709a.962.962 0 0 0 .857-.83l.941-6.65a.963.963 0 0 0-.593-1.036zm-34.032 11.985c-6.754-.957-11.45-7.201-10.496-13.935.956-6.754 7.2-11.45 13.954-10.493 6.755.956 11.45 7.2 10.494 13.954-.953 6.734-7.197 11.43-13.952 10.474z"></path><linearGradient id="m" x1="381.696" x2="416.725" y1="109.966" y2="109.966" gradientTransform="rotate(8.058 -806.788 -1757.296)" gradientUnits="userSpaceOnUse"><stop offset="0" stop-color="#b3b3ff" class="stopColorb3b3ff svgShape"></stop><stop offset="1" stop-color="#8f8fea" class="stopColor8f8fea svgShape"></stop></linearGradient><path fill="url(#m)" d="M128.022 243.226c-9.572-1.355-18.442 5.315-19.8 14.908-1.355 9.572 5.315 18.442 14.887 19.797 9.593 1.358 18.441-5.315 19.797-14.887 1.358-9.593-5.291-18.46-14.884-19.818zm-4.186 29.567c-6.754-.957-11.45-7.201-10.496-13.935.956-6.754 7.2-11.45 13.954-10.493 6.755.956 11.45 7.2 10.494 13.954-.953 6.734-7.197 11.43-13.952 10.474z"></path><linearGradient id="n" x1="399.591" x2="447.59" y1="55.025" y2="55.025" gradientTransform="rotate(8.058 -806.788 -1757.296)" gradientUnits="userSpaceOnUse"><stop offset="0" stop-color="#e7ecff" class="stopColore7ecff svgShape"></stop><stop offset="1" stop-color="#c2d5ff" class="stopColorc2d5ff svgShape"></stop></linearGradient><path fill="url(#n)" d="m181.078 209.766-4.11-1.713a19.7 19.7 0 0 0-1.69-6.543l2.771-3.495a.698.698 0 0 0 .014-.865l-2.959-3.935a.722.722 0 0 0-.833-.241l-4.129 1.707a19.355 19.355 0 0 0-5.816-3.441l-.505-4.423a.723.723 0 0 0-.623-.63l-4.859-.689a.705.705 0 0 0-.758.435l-1.728 4.108c-2.303.185-4.49.758-6.528 1.693l-3.493-2.787a.742.742 0 0 0-.883 0l-3.934 2.958a.697.697 0 0 0-.227.835l1.693 4.127a19.697 19.697 0 0 0-3.441 5.817l-4.409.506a.72.72 0 0 0-.643.606l-.69 4.874a.72.72 0 0 0 .45.76l4.092 1.726a19.763 19.763 0 0 0 1.694 6.528l-2.772 3.495a.72.72 0 0 0-.016.881l2.959 3.935c.195.26.538.355.85.228l4.13-1.707a18.933 18.933 0 0 0 5.8 3.438l.52 4.426c.03.33.29.583.608.628l4.859.688a.723.723 0 0 0 .774-.432l1.712-4.11c2.3-.17 4.506-.756 6.543-1.691l3.493 2.786c.25.206.605.21.865.015l3.935-2.96a.72.72 0 0 0 .229-.85l-1.693-4.127a19.766 19.766 0 0 0 3.44-5.801l4.425-.52c.33-.03.583-.289.628-.608l.69-4.874a.706.706 0 0 0-.435-.758zm-24.94 8.782c-4.95-.7-8.39-5.277-7.692-10.211a9.045 9.045 0 0 1 10.227-7.69c4.95.7 8.39 5.276 7.69 10.226-.699 4.935-5.275 8.376-10.225 7.675z"></path><linearGradient id="o" x1="410.755" x2="436.426" y1="55.025" y2="55.025" gradientTransform="rotate(8.058 -806.788 -1757.296)" gradientUnits="userSpaceOnUse"><stop offset="0" stop-color="#b3b3ff" class="stopColorb3b3ff svgShape"></stop><stop offset="1" stop-color="#8f8fea" class="stopColor8f8fea svgShape"></stop></linearGradient><path fill="url(#o)" d="M159.206 196.881c-7.015-.993-13.515 3.895-14.51 10.925-.993 7.015 3.894 13.515 10.91 14.508 7.03.995 13.514-3.895 14.507-10.91.995-7.03-3.877-13.528-10.907-14.523zm-3.068 21.667c-4.95-.7-8.39-5.277-7.692-10.211a9.045 9.045 0 0 1 10.227-7.69c4.95.7 8.39 5.276 7.69 10.226-.699 4.935-5.275 8.376-10.225 7.675z"></path><linearGradient id="p" x1="-1606.48" x2="-1606.634" y1="-1616.202" y2="-1518.458" gradientTransform="rotate(-26.761 3342.253 -4459.844)" gradientUnits="userSpaceOnUse"><stop offset="0" stop-color="#e7ecff" class="stopColore7ecff svgShape"></stop><stop offset="1" stop-color="#c2d5ff" class="stopColorc2d5ff svgShape"></stop></linearGradient><path fill="url(#p)" d="m270.352 285.607 29.321 58.143c2.454 4.866.493 10.813-4.371 13.266l-105.889 53.399c-4.866 2.454-10.812.494-13.266-4.372l-29.32-58.143c-2.454-4.866-.496-10.813 4.37-13.267l105.889-53.399c4.864-2.453 10.813-.492 13.266 4.373z"></path><path fill="#c2d5ff" d="M144.981 320.327h138.344v14.917H144.981z" transform="rotate(-26.761 214.153 327.785)" class="colorc2d5ff svgShape"></path><path fill="#c2d5ff" d="m188.264 355.643 2.458 4.876a.573.573 0 0 1-.253.77l-20.993 10.586a.573.573 0 0 1-.77-.254l-2.458-4.876a.573.573 0 0 1 .253-.77l20.993-10.586a.573.573 0 0 1 .77.254zM217.065 341.119l2.459 4.875a.573.573 0 0 1-.254.77l-20.992 10.587a.573.573 0 0 1-.77-.254l-2.46-4.876a.573.573 0 0 1 .255-.77l20.992-10.586a.573.573 0 0 1 .77.254zM245.866 326.594l2.459 4.876a.573.573 0 0 1-.254.77l-20.992 10.586a.573.573 0 0 1-.77-.253l-2.459-4.876a.573.573 0 0 1 .254-.77l20.992-10.586a.573.573 0 0 1 .77.253zM274.668 312.07l2.458 4.876a.573.573 0 0 1-.253.77l-20.993 10.586a.573.573 0 0 1-.77-.254l-2.459-4.875a.573.573 0 0 1 .254-.77l20.993-10.587a.573.573 0 0 1 .77.254zM175.063 373.23l-3.551 1.79a.616.616 0 1 0 .555 1.102l3.551-1.79a.616.616 0 1 0-.555-1.102zM183.425 369.013l-3.551 1.79a.616.616 0 1 0 .555 1.102l3.552-1.79a.616.616 0 1 0-.556-1.102zM191.789 364.795l-3.552 1.791a.616.616 0 1 0 .556 1.102l3.551-1.791a.616.616 0 1 0-.555-1.102zM203.864 358.706l-3.55 1.79a.616.616 0 1 0 .555 1.102l3.55-1.79a.616.616 0 1 0-.555-1.102zM212.227 354.489l-3.551 1.79a.616.616 0 1 0 .555 1.102l3.551-1.791a.616.616 0 1 0-.555-1.101zM220.59 350.272l-3.551 1.79a.616.616 0 1 0 .555 1.101l3.55-1.79a.616.616 0 1 0-.555-1.101zM232.665 344.182l-3.551 1.79a.616.616 0 1 0 .555 1.102l3.552-1.79a.616.616 0 1 0-.556-1.102zM241.029 339.964l-3.552 1.791a.616.616 0 1 0 .556 1.101l3.551-1.79a.616.616 0 1 0-.555-1.102zM249.39 335.747l-3.55 1.791a.616.616 0 1 0 .555 1.101l3.551-1.79a.616.616 0 1 0-.555-1.102zM261.467 329.657l-3.551 1.791a.616.616 0 1 0 .555 1.102l3.551-1.791a.616.616 0 1 0-.555-1.102zM269.83 325.44l-3.552 1.791a.616.616 0 1 0 .555 1.102l3.552-1.791a.616.616 0 1 0-.556-1.102zM278.193 321.223l-3.552 1.79a.616.616 0 1 0 .556 1.102l3.551-1.79a.616.616 0 1 0-.555-1.102z" class="colorc2d5ff svgShape"></path><linearGradient id="q" x1="-1665.911" x2="-1626.131" y1="-1549.659" y2="-1549.659" gradientTransform="rotate(-26.761 3342.253 -4459.844)" gradientUnits="userSpaceOnUse"><stop offset="0" stop-color="#78a7ff" class="stopColor78a7ff svgShape"></stop><stop offset="1" stop-color="#3d79f3" class="stopColor3d79f3 svgShape"></stop></linearGradient><path fill="url(#q)" d="m216.097 375.133.645 1.278a.573.573 0 0 1-.254.77l-34.496 17.396a.573.573 0 0 1-.77-.254l-.645-1.278a.573.573 0 0 1 .254-.77l34.496-17.396a.573.573 0 0 1 .77.254z"></path><linearGradient id="r" x1="-1665.911" x2="-1626.131" y1="-1544.647" y2="-1544.647" gradientTransform="rotate(-26.761 3342.253 -4459.844)" gradientUnits="userSpaceOnUse"><stop offset="0" stop-color="#78a7ff" class="stopColor78a7ff svgShape"></stop><stop offset="1" stop-color="#3d79f3" class="stopColor3d79f3 svgShape"></stop></linearGradient><path fill="url(#r)" d="m218.353 379.608.645 1.278a.573.573 0 0 1-.254.77l-34.496 17.396a.573.573 0 0 1-.77-.254l-.644-1.278a.573.573 0 0 1 .254-.77l34.495-17.396a.573.573 0 0 1 .77.254z"></path><linearGradient id="s" x1="-1665.911" x2="-1626.131" y1="-1539.636" y2="-1539.636" gradientTransform="rotate(-26.761 3342.253 -4459.844)" gradientUnits="userSpaceOnUse"><stop offset="0" stop-color="#78a7ff" class="stopColor78a7ff svgShape"></stop><stop offset="1" stop-color="#3d79f3" class="stopColor3d79f3 svgShape"></stop></linearGradient><path fill="url(#s)" d="m205.502 391.059-20.158 10.165a.573.573 0 0 0-.254.77l.645 1.278a.573.573 0 0 0 .77.254l20.158-10.165a.573.573 0 0 0 .253-.77l-.644-1.278a.573.573 0 0 0-.77-.254z"></path><linearGradient id="t" x1="-1574.168" x2="-1545.438" y1="-1547.613" y2="-1547.613" gradientTransform="rotate(-26.761 3342.253 -4459.844)" gradientUnits="userSpaceOnUse"><stop offset="0" stop-color="#78a7ff" class="stopColor78a7ff svgShape"></stop><stop offset="1" stop-color="#3d79f3" class="stopColor3d79f3 svgShape"></stop></linearGradient><path fill="url(#t)" d="m285.94 334.423 6.9 13.684c.4.79.081 1.754-.71 2.153l-22.79 11.493a1.603 1.603 0 0 1-2.152-.71l-6.9-13.684a1.603 1.603 0 0 1 .709-2.153l22.79-11.493a1.603 1.603 0 0 1 2.153.71z"></path><path fill="#c2d5ff" d="m280.592 342.776 2.349 4.66 7.621-3.844.417.826-7.621 3.843 2.582 5.121-.826.417-8.342-16.542.826-.417 2.577 5.11 7.621-3.843.417.826zM270.804 347.2l5.554 11.014-.826.417-2.582-5.121-7.622 3.843-.416-.826 7.621-3.843-2.349-4.659-7.622 3.843-.416-.826 8.04-4.054a.458.458 0 0 1 .618.213z" class="colorc2d5ff svgShape"></path><path fill="#fdccc5" d="M217.075 349.208s7.855-2.63 8.606.47c.43 1.775-3.904 2.697-3.904 2.697s6.387 2.842 9.163 4.544c5.087 3.12-3.297 15.364-17.404.688l3.539-8.399z" class="colorfdccc5 svgShape"></path><linearGradient id="u" x1="180.367" x2="194.077" y1="277.023" y2="361.238" gradientUnits="userSpaceOnUse"><stop offset="0" stop-color="#fc6865" class="stopColorfc6865 svgShape"></stop><stop offset="1" stop-color="#f24e4e" class="stopColorf24e4e svgShape"></stop></linearGradient><path fill="url(#u)" d="M213.272 358.057s-38.692-8.984-46.816-20.756c-8.198-11.857-3.606-49.091 1.468-55.601 4.706-6.038 10.87-4.036 15.483 2.84 6.31 9.404-5.556 34.52-.776 44.605 4.895 10.315 34.782 19.215 34.782 19.215 1.436.618-2.705 10.315-4.14 9.697z"></path><ellipse cx="416.288" cy="568.399" fill="#f5f7ff" rx="137.379" ry="5.975" class="colorf5f7ff svgShape"></ellipse><linearGradient id="v" x1="305.504" x2="517.086" y1="380.082" y2="380.082" gradientUnits="userSpaceOnUse"><stop offset="0" stop-color="#e7ecff" class="stopColore7ecff svgShape"></stop><stop offset="1" stop-color="#c2d5ff" class="stopColorc2d5ff svgShape"></stop></linearGradient><path fill="url(#v)" d="M517.086 221.606v316.953c0 16.452-13.387 29.84-29.84 29.84H335.343c-16.452 0-29.84-13.388-29.84-29.84V221.606c0-16.452 13.388-29.84 29.84-29.84h151.903c16.453 0 29.84 13.388 29.84 29.84z"></path><linearGradient id="w" x1="348.064" x2="344.175" y1="407.309" y2="264.896" gradientUnits="userSpaceOnUse"><stop offset="0" stop-color="#ffbb83" class="stopColorffbb83 svgShape"></stop><stop offset="1" stop-color="#ff9d45" class="stopColorff9d45 svgShape"></stop></linearGradient><path fill="url(#w)" d="M329.01 517.539a8.613 8.613 0 0 0 8.612 8.613h26.906a8.613 8.613 0 1 0 0-17.225h-26.906a8.613 8.613 0 0 0-8.613 8.612z"></path><linearGradient id="x" x1="408.284" x2="404.395" y1="407.309" y2="264.896" gradientUnits="userSpaceOnUse"><stop offset="0" stop-color="#a7c161" class="stopColora7c161 svgShape"></stop><stop offset="1" stop-color="#8ba53a" class="stopColor8ba53a svgShape"></stop></linearGradient><path fill="url(#x)" d="M389.23 517.539a8.613 8.613 0 0 0 8.612 8.613h26.906a8.613 8.613 0 1 0 0-17.225h-26.906a8.613 8.613 0 0 0-8.613 8.612z"></path><linearGradient id="y" x1="468.504" x2="464.615" y1="407.309" y2="264.896" gradientUnits="userSpaceOnUse"><stop offset="0" stop-color="#78a7ff" class="stopColor78a7ff svgShape"></stop><stop offset="1" stop-color="#3d79f3" class="stopColor3d79f3 svgShape"></stop></linearGradient><path fill="url(#y)" d="M449.45 517.539a8.613 8.613 0 0 0 8.612 8.613h26.906a8.613 8.613 0 1 0 0-17.225h-26.906a8.613 8.613 0 0 0-8.613 8.612z"></path><linearGradient id="z" x1="348.064" x2="344.175" y1="378.3" y2="235.887" gradientUnits="userSpaceOnUse"><stop offset="0" stop-color="#e7ecff" class="stopColore7ecff svgShape"></stop><stop offset="1" stop-color="#c2d5ff" class="stopColorc2d5ff svgShape"></stop></linearGradient><path fill="url(#z)" d="M329.01 488.53a8.613 8.613 0 0 0 8.612 8.613h26.906a8.613 8.613 0 1 0 0-17.225h-26.906a8.613 8.613 0 0 0-8.613 8.612z"></path><linearGradient id="A" x1="408.284" x2="404.395" y1="378.3" y2="235.887" gradientUnits="userSpaceOnUse"><stop offset="0" stop-color="#e7ecff" class="stopColore7ecff svgShape"></stop><stop offset="1" stop-color="#c2d5ff" class="stopColorc2d5ff svgShape"></stop></linearGradient><path fill="url(#A)" d="M389.23 488.53a8.613 8.613 0 0 0 8.612 8.613h26.906a8.613 8.613 0 0 0 0-17.225h-26.906a8.613 8.613 0 0 0-8.613 8.612z"></path><linearGradient id="B" x1="468.504" x2="464.615" y1="378.3" y2="235.887" gradientUnits="userSpaceOnUse"><stop offset="0" stop-color="#e7ecff" class="stopColore7ecff svgShape"></stop><stop offset="1" stop-color="#c2d5ff" class="stopColorc2d5ff svgShape"></stop></linearGradient><path fill="url(#B)" d="M449.45 488.53a8.613 8.613 0 0 0 8.612 8.613h26.906a8.613 8.613 0 0 0 0-17.225h-26.906a8.613 8.613 0 0 0-8.613 8.612z"></path><linearGradient id="C" x1="348.064" x2="344.175" y1="349.291" y2="206.878" gradientUnits="userSpaceOnUse"><stop offset="0" stop-color="#e7ecff" class="stopColore7ecff svgShape"></stop><stop offset="1" stop-color="#c2d5ff" class="stopColorc2d5ff svgShape"></stop></linearGradient><path fill="url(#C)" d="M329.01 459.52v.001a8.613 8.613 0 0 0 8.612 8.613h26.906a8.613 8.613 0 1 0 0-17.225h-26.906a8.613 8.613 0 0 0-8.613 8.612z"></path><linearGradient id="D" x1="408.284" x2="404.395" y1="349.291" y2="206.878" gradientUnits="userSpaceOnUse"><stop offset="0" stop-color="#e7ecff" class="stopColore7ecff svgShape"></stop><stop offset="1" stop-color="#c2d5ff" class="stopColorc2d5ff svgShape"></stop></linearGradient><path fill="url(#D)" d="M389.23 459.52v.001a8.613 8.613 0 0 0 8.612 8.613h26.906a8.613 8.613 0 0 0 0-17.225h-26.906a8.613 8.613 0 0 0-8.613 8.612z"></path><linearGradient id="E" x1="468.504" x2="464.615" y1="349.291" y2="206.878" gradientUnits="userSpaceOnUse"><stop offset="0" stop-color="#e7ecff" class="stopColore7ecff svgShape"></stop><stop offset="1" stop-color="#c2d5ff" class="stopColorc2d5ff svgShape"></stop></linearGradient><path fill="url(#E)" d="M449.45 459.52v.001a8.613 8.613 0 0 0 8.612 8.613h26.906a8.613 8.613 0 0 0 0-17.225h-26.906a8.613 8.613 0 0 0-8.613 8.612z"></path><linearGradient id="F" x1="348.064" x2="344.175" y1="320.282" y2="177.869" gradientUnits="userSpaceOnUse"><stop offset="0" stop-color="#e7ecff" class="stopColore7ecff svgShape"></stop><stop offset="1" stop-color="#c2d5ff" class="stopColorc2d5ff svgShape"></stop></linearGradient><path fill="url(#F)" d="M329.01 430.512a8.613 8.613 0 0 0 8.612 8.613h26.906a8.613 8.613 0 1 0 0-17.225h-26.906a8.613 8.613 0 0 0-8.613 8.612z"></path><linearGradient id="G" x1="408.284" x2="404.395" y1="320.282" y2="177.869" gradientUnits="userSpaceOnUse"><stop offset="0" stop-color="#e7ecff" class="stopColore7ecff svgShape"></stop><stop offset="1" stop-color="#c2d5ff" class="stopColorc2d5ff svgShape"></stop></linearGradient><path fill="url(#G)" d="M389.23 430.512a8.613 8.613 0 0 0 8.612 8.613h26.906a8.613 8.613 0 0 0 0-17.225h-26.906a8.613 8.613 0 0 0-8.613 8.612z"></path><linearGradient id="H" x1="468.504" x2="464.615" y1="320.282" y2="177.869" gradientUnits="userSpaceOnUse"><stop offset="0" stop-color="#e7ecff" class="stopColore7ecff svgShape"></stop><stop offset="1" stop-color="#c2d5ff" class="stopColorc2d5ff svgShape"></stop></linearGradient><path fill="url(#H)" d="M449.45 430.512a8.613 8.613 0 0 0 8.612 8.613h26.906a8.613 8.613 0 0 0 0-17.225h-26.906a8.613 8.613 0 0 0-8.613 8.612z"></path><linearGradient id="I" x1="348.064" x2="344.175" y1="291.273" y2="148.86" gradientUnits="userSpaceOnUse"><stop offset="0" stop-color="#e7ecff" class="stopColore7ecff svgShape"></stop><stop offset="1" stop-color="#c2d5ff" class="stopColorc2d5ff svgShape"></stop></linearGradient><path fill="url(#I)" d="M329.01 401.503a8.613 8.613 0 0 0 8.612 8.613h26.906a8.613 8.613 0 1 0 0-17.225h-26.906a8.613 8.613 0 0 0-8.613 8.612z"></path><linearGradient id="J" x1="408.284" x2="404.395" y1="291.273" y2="148.86" gradientUnits="userSpaceOnUse"><stop offset="0" stop-color="#e7ecff" class="stopColore7ecff svgShape"></stop><stop offset="1" stop-color="#c2d5ff" class="stopColorc2d5ff svgShape"></stop></linearGradient><path fill="url(#J)" d="M389.23 401.503a8.613 8.613 0 0 0 8.612 8.613h26.906a8.613 8.613 0 0 0 0-17.225h-26.906a8.613 8.613 0 0 0-8.613 8.612z"></path><linearGradient id="K" x1="468.504" x2="464.615" y1="291.273" y2="148.86" gradientUnits="userSpaceOnUse"><stop offset="0" stop-color="#e7ecff" class="stopColore7ecff svgShape"></stop><stop offset="1" stop-color="#c2d5ff" class="stopColorc2d5ff svgShape"></stop></linearGradient><path fill="url(#K)" d="M449.45 401.503a8.613 8.613 0 0 0 8.612 8.613h26.906a8.613 8.613 0 0 0 0-17.225h-26.906a8.613 8.613 0 0 0-8.613 8.612z"></path><path fill="#ffffff" d="M491.803 363.004v-103.28a6.208 6.208 0 0 0-6.208-6.208h-148.6a6.208 6.208 0 0 0-6.208 6.209v103.28a6.208 6.208 0 0 0 6.208 6.207h148.6a6.208 6.208 0 0 0 6.208-6.208z" class="colorfff svgShape"></path><linearGradient id="L" x1="373.374" x2="449.215" y1="311.364" y2="311.364" gradientUnits="userSpaceOnUse"><stop offset="0" stop-color="#e7ecff" class="stopColore7ecff svgShape"></stop><stop offset="1" stop-color="#c2d5ff" class="stopColorc2d5ff svgShape"></stop></linearGradient><path fill="url(#L)" d="M449.215 311.364c0 20.948-16.973 37.92-37.92 37.92-20.948 0-37.92-16.972-37.92-37.92 0-20.947 16.972-37.92 37.92-37.92 20.947 0 37.92 16.973 37.92 37.92z"></path><linearGradient id="M" x1="393.457" x2="430.937" y1="311.364" y2="311.364" gradientUnits="userSpaceOnUse"><stop offset="0" stop-color="#a7c161" class="stopColora7c161 svgShape"></stop><stop offset="1" stop-color="#8ba53a" class="stopColor8ba53a svgShape"></stop></linearGradient><path fill="url(#M)" d="M404.806 323.075a5.588 5.588 0 0 1-4.833-2.782l-5.76-9.92a5.589 5.589 0 0 1 9.668-5.613l2.92 5.031 15.684-9.347a5.587 5.587 0 0 1 7.663 1.94 5.587 5.587 0 0 1-1.94 7.662l-20.54 12.24a5.59 5.59 0 0 1-2.862.789z"></path><path fill="#ffffff" d="M473.554 226.289a8.122 8.122 0 0 1-8.122 8.122H357.158a8.122 8.122 0 0 1 0-16.245h108.274a8.122 8.122 0 0 1 8.122 8.123z" class="colorfff svgShape"></path><linearGradient id="N" x1="22852.654" x2="22957.549" y1="139.59" y2="139.59" gradientTransform="matrix(-.20968 0 0 1 5274.18 0)" gradientUnits="userSpaceOnUse"><stop offset="0" stop-color="#e7ecff" class="stopColore7ecff svgShape"></stop><stop offset="1" stop-color="#c2d5ff" class="stopColorc2d5ff svgShape"></stop></linearGradient><path fill="url(#N)" d="M482.548 155.93v-21.684c0-6.073-4.924-10.996-10.997-10.996-6.073 0-10.997 4.923-10.997 10.996v21.684h21.994z"></path><linearGradient id="O" x1="362.377" x2="471.547" y1="174.768" y2="174.768" gradientUnits="userSpaceOnUse"><stop offset="0" stop-color="#e7ecff" class="stopColore7ecff svgShape"></stop><stop offset="1" stop-color="#c2d5ff" class="stopColorc2d5ff svgShape"></stop></linearGradient><path fill="url(#O)" d="M471.547 123.248c-3.03 0-5.78 1.23-7.77 3.22a10.967 10.967 0 0 0-3.22 7.78v92.04h-98.18v-92.04c0-3.04 1.23-5.79 3.22-7.78 2-1.99 4.74-3.22 7.78-3.22h98.17z"></path><linearGradient id="P" x1="471.547" x2="472.317" y1="123.263" y2="123.263" gradientUnits="userSpaceOnUse"><stop offset="0" stop-color="#e7ecff" class="stopColore7ecff svgShape"></stop><stop offset="1" stop-color="#c2d5ff" class="stopColorc2d5ff svgShape"></stop></linearGradient><path fill="url(#P)" d="M472.317 123.248v.03c-.26-.02-.51-.03-.77-.03h.77z"></path><linearGradient id="Q" x1="355.251" x2="467.339" y1="226.289" y2="226.289" gradientUnits="userSpaceOnUse"><stop offset="0" stop-color="#e7ecff" class="stopColore7ecff svgShape"></stop><stop offset="1" stop-color="#c2d5ff" class="stopColorc2d5ff svgShape"></stop></linearGradient><path fill="url(#Q)" d="M466.339 227.289H356.25a1 1 0 1 1 0-2h110.088a1 1 0 1 1 0 2z"></path><path fill="#ffffff" d="M438.928 135.853v15.444a2.058 2.058 0 0 1-2.058 2.058h-54.404a2.058 2.058 0 0 1-2.058-2.058v-15.444c0-1.136.921-2.058 2.058-2.058h54.404c1.136 0 2.058.922 2.058 2.058zM373.437 163.542h16.541v4.8h-16.541zM434.516 163.542h16.95v4.8h-16.95zM373.437 174.768h45.987v4.8h-45.987zM432.085 174.768h19.382v4.8h-19.382zM373.437 185.994h27.537v4.8h-27.537zM436.743 185.994h14.723v4.8h-14.723zM373.437 197.22h45.987v4.8h-45.987zM432.085 197.22h19.382v4.8h-19.382zM373.437 208.447h24.335v4.8h-24.335zM439.944 208.447h11.522v4.8h-11.522z" class="colorfff svgShape"></path><path fill="#adc8f7" d="M480.022 263.272a.5.5 0 0 1-.5-.5v-5.527c0-6.057 4.928-10.983 10.985-10.983h7.816a.5.5 0 1 1 0 1h-7.816c-5.506 0-9.985 4.478-9.985 9.983v5.527a.5.5 0 0 1-.5.5zM498.323 332.15h-7.816c-6.057 0-10.985-4.928-10.985-10.984v-5.527a.5.5 0 1 1 1 0v5.527c0 5.506 4.479 9.984 9.985 9.984h7.816a.5.5 0 1 1 0 1z" class="coloradc8f7 svgShape"></path><linearGradient id="R" x1="536.554" x2="535.194" y1="327.72" y2="258.074" gradientUnits="userSpaceOnUse"><stop offset="0" stop-color="#e7ecff" class="stopColore7ecff svgShape"></stop><stop offset="1" stop-color="#c2d5ff" class="stopColorc2d5ff svgShape"></stop></linearGradient><path fill="url(#R)" d="M585.848 257.245v63.921a4.75 4.75 0 0 1-4.751 4.75h-90.59a4.75 4.75 0 0 1-4.751-4.75v-63.92a4.75 4.75 0 0 1 4.75-4.751h90.591a4.75 4.75 0 0 1 4.75 4.75z"></path><path fill="#adc8f7" d="M581.028 332.15h-7.816a.5.5 0 1 1 0-1h7.816c5.506 0 9.985-4.478 9.985-9.984v-5.527a.5.5 0 1 1 1 0v5.527c0 6.056-4.928 10.984-10.985 10.984zM591.513 263.272a.5.5 0 0 1-.5-.5v-5.527c0-5.505-4.479-9.983-9.985-9.983h-7.816a.5.5 0 1 1 0-1h7.816c6.057 0 10.985 4.926 10.985 10.983v5.527a.5.5 0 0 1-.5.5z" class="coloradc8f7 svgShape"></path><linearGradient id="S" x1="508.865" x2="562.67" y1="289.206" y2="289.206" gradientUnits="userSpaceOnUse"><stop offset="0" stop-color="#e7ecff" class="stopColore7ecff svgShape"></stop><stop offset="1" stop-color="#c2d5ff" class="stopColorc2d5ff svgShape"></stop></linearGradient><path fill="url(#S)" d="M562.67 289.201c0 14.863-12.049 26.902-26.902 26.902-14.854 0-26.903-12.039-26.903-26.902 0-14.854 12.049-26.893 26.903-26.893 14.853 0 26.902 12.04 26.902 26.893z"></path><path fill="#c2d5ff" d="M555.47 289.202c0 10.885-8.824 19.702-19.702 19.702-10.878 0-19.702-8.817-19.702-19.702 0-10.878 8.824-19.694 19.702-19.694 10.878 0 19.701 8.816 19.701 19.694z" class="colorc2d5ff svgShape"></path><path fill="#adc8f7" d="M553.05 279.743a19.604 19.604 0 0 0-14.038-5.886c-10.872 0-19.698 8.817-19.698 19.697 0 3.438.884 6.674 2.432 9.481a19.632 19.632 0 0 1-5.676-13.836c0-10.873 8.816-19.69 19.697-19.69 7.452 0 13.942 4.138 17.283 10.234z" class="coloradc8f7 svgShape"></path><path fill="#f5f7ff" d="M607.34 567.068c0 1.494-13.22 2.705-29.524 2.705-16.307 0-29.524-1.211-29.524-2.705 0-1.493 13.217-2.703 29.524-2.703 16.304 0 29.524 1.21 29.524 2.703z" class="colorf5f7ff svgShape"></path><linearGradient id="T" x1="552.272" x2="605.054" y1="480.221" y2="480.221" gradientUnits="userSpaceOnUse"><stop offset="0" stop-color="#e7ecff" class="stopColore7ecff svgShape"></stop><stop offset="1" stop-color="#c2d5ff" class="stopColorc2d5ff svgShape"></stop></linearGradient><path fill="url(#T)" d="M571.207 421.825c3.336-2.035 9.487 1.232 11.413 4.594 1.926 3.361 2.373 7.333 2.67 11.185.297 3.852.503 7.802 2.031 11.358 3.882 9.033 15.466 13.783 17.444 23.401 2.37 11.523-10.686 22.238-7.937 33.678.853 3.55 3.165 6.598 4.25 10.086 2 6.436-.677 13.82-5.882 18.162-5.205 4.343-12.538 5.772-19.232 4.525s-12.75-4.966-17.53-9.763c-2.631-2.64-4.975-5.73-5.843-9.336s.015-7.797 2.918-10.142c2.994-2.417 7.897-2.912 9.24-6.496 1.12-2.988-1.057-6.08-2.786-8.769-7.049-10.96-7.905-24.945-5.125-37.64 2.78-12.694 5.819-29.63 14.37-34.843z"></path><path fill="#adc8f7" d="M584.932 478.292a.486.486 0 0 0-.661.187l-5.655 10.115v-19.632a.486.486 0 1 0-.971 0v10.232l-3.919-7.326a.484.484 0 1 0-.857.457l4.776 8.928v18.865l-5.655-10.115a.487.487 0 0 0-.849.475l6.504 11.632v43.897a.485.485 0 1 0 .971 0v-55.421l6.503-11.633a.486.486 0 0 0-.187-.661z" class="coloradc8f7 svgShape"></path><path fill="#adc8f7" d="M578.13 510.915a.531.531 0 0 1-.462-.8l6.258-10.825a.533.533 0 1 1 .923.533l-6.257 10.825a.532.532 0 0 1-.462.267zM578.13 523.785a.532.532 0 0 1-.462-.267l-6.257-10.825a.533.533 0 1 1 .923-.533l6.258 10.825a.533.533 0 0 1-.462.8z" class="coloradc8f7 svgShape"></path><linearGradient id="U" x1="577.885" x2="577.57" y1="548.44" y2="568.197" gradientUnits="userSpaceOnUse"><stop offset="0" stop-color="#e7ecff" class="stopColore7ecff svgShape"></stop><stop offset="1" stop-color="#c2d5ff" class="stopColorc2d5ff svgShape"></stop></linearGradient><path fill="url(#U)" d="M592.287 550.44v4.51c0 6.694-5.425 12.12-12.118 12.12h-4.706c-6.693 0-12.118-5.426-12.118-12.12v-4.51h28.942z"></path><linearGradient id="V" x1="577.918" x2="577.659" y1="543.156" y2="554.354" gradientUnits="userSpaceOnUse"><stop offset="0" stop-color="#e7ecff" class="stopColore7ecff svgShape"></stop><stop offset="1" stop-color="#c2d5ff" class="stopColorc2d5ff svgShape"></stop></linearGradient><path fill="url(#V)" d="M594.477 546.047v3.04c0 .742-.602 1.343-1.344 1.343H562.5a1.343 1.343 0 0 1-1.344-1.343v-3.04c0-.741.602-1.343 1.344-1.343h30.634c.742 0 1.344.602 1.344 1.343z"></path><path fill="#adc8f7" d="M239.262 221.733a.5.5 0 0 1-.5-.5v-5.164c0-5.361 4.362-9.723 9.723-9.723h6.968a.5.5 0 1 1 0 1h-6.968c-4.81 0-8.723 3.914-8.723 8.723v5.164a.5.5 0 0 1-.5.5zM331.456 223.538a.5.5 0 0 1-.5-.5v-6.969c0-4.81-3.913-8.723-8.723-8.723h-5.164a.5.5 0 1 1 0-1h5.164c5.361 0 9.723 4.362 9.723 9.723v6.969a.5.5 0 0 1-.5.5zM322.233 252.395h-6.968a.5.5 0 1 1 0-1h6.968c4.81 0 8.723-3.913 8.723-8.722v-5.163a.5.5 0 1 1 1 0v5.163c0 5.361-4.362 9.722-9.723 9.722zM253.648 252.395h-5.163c-5.361 0-9.723-4.361-9.723-9.722v-6.968a.5.5 0 1 1 1 0v6.968c0 4.81 3.913 8.722 8.723 8.722h5.163a.5.5 0 1 1 0 1z" class="coloradc8f7 svgShape"></path><linearGradient id="W" x1="243.262" x2="327.456" y1="229.371" y2="229.371" gradientUnits="userSpaceOnUse"><stop offset="0" stop-color="#e7ecff" class="stopColore7ecff svgShape"></stop><stop offset="1" stop-color="#c2d5ff" class="stopColorc2d5ff svgShape"></stop></linearGradient><path fill="url(#W)" d="M327.456 216.07v26.603a5.223 5.223 0 0 1-5.223 5.223h-73.749a5.223 5.223 0 0 1-5.222-5.223V216.07a5.223 5.223 0 0 1 5.222-5.222h73.75a5.223 5.223 0 0 1 5.222 5.222z"></path><path fill="#535397" d="M267.206 234.754a.99.99 0 0 1-.297-.73v-13.952c0-.289.099-.536.297-.741a.972.972 0 0 1 .73-.308h5.197c1.444 0 2.622.243 3.534.73.912.486 1.565 1.11 1.96 1.869.395.76.593 1.58.593 2.463a5.26 5.26 0 0 1-.593 2.462c-.395.76-1.048 1.382-1.96 1.869-.912.486-2.09.73-3.534.73h-4.15v4.878c0 .29-.102.532-.307.73a1.033 1.033 0 0 1-.74.297c-.29 0-.533-.1-.73-.297zm5.722-7.569c1.55 0 2.64-.297 3.272-.89.63-.592.946-1.33.946-2.21 0-.882-.316-1.62-.946-2.212-.631-.593-1.722-.889-3.272-.889h-3.944v6.201h3.944zM282.333 234.754a3.232 3.232 0 0 1-1.357-1.197c-.334-.524-.501-1.129-.501-1.812 0-1.125.444-2.022 1.333-2.69s2.193-1.003 3.91-1.003h2.759v-.183c0-1.003-.247-1.725-.741-2.166-.494-.44-1.265-.661-2.314-.661-.578 0-1.09.046-1.54.136-.447.092-.945.229-1.492.41-.122.032-.221.047-.297.047a.807.807 0 0 1-.592-.251.835.835 0 0 1-.251-.616c0-.41.197-.699.592-.866a10.033 10.033 0 0 1 3.945-.821c1.048 0 1.933.213 2.655.639.722.425 1.254.976 1.597 1.653.341.676.512 1.409.512 2.2v6.451c0 .29-.102.532-.307.73s-.453.297-.742.297-.532-.1-.729-.297a.99.99 0 0 1-.296-.73v-.593c-1.125 1.156-2.554 1.733-4.287 1.733a4.238 4.238 0 0 1-1.857-.41zm4.57-1.904a5.397 5.397 0 0 0 1.574-1.22v-1.914h-2.485c-2.295 0-3.443.6-3.443 1.8 0 .547.186.989.559 1.323.372.335.992.502 1.858.502a4.12 4.12 0 0 0 1.938-.49zM295.738 239.998a.986.986 0 0 1-.285-.707c0-.122.023-.243.069-.365l1.481-3.807-4.286-10.441a1.166 1.166 0 0 1-.091-.434c0-.288.099-.536.296-.741a.972.972 0 0 1 .73-.308c.213 0 .406.06.581.183.175.122.3.273.376.456l3.511 8.709 3.58-8.664c.197-.455.516-.684.957-.684.289 0 .532.103.73.308.197.205.296.453.296.74 0 .138-.023.267-.068.389l-6.224 14.955c-.213.471-.533.707-.958.707a.929.929 0 0 1-.695-.296z" class="color535397 svgShape"></path><path fill="#ffffff" d="M542.071 296.142c-.506.765-1.225 1.373-2.159 1.827-.933.453-2.013.715-3.24.787v1.892c0 .23-.074.422-.226.573-.151.15-.35.227-.6.227a.802.802 0 0 1-.573-.214c-.15-.141-.226-.337-.226-.586v-1.892c-1.92-.125-3.715-.542-5.385-1.253a1.2 1.2 0 0 1-.533-.44 1.12 1.12 0 0 1-.214-.654c0-.302.103-.564.307-.786.204-.222.466-.333.787-.333.177 0 .346.036.506.106 1.44.64 2.95.996 4.532 1.067v-6.132c-1.21-.32-2.226-.666-3.053-1.04a5.53 5.53 0 0 1-2.065-1.586c-.552-.684-.826-1.55-.826-2.599 0-.924.226-1.777.68-2.56.452-.78 1.127-1.429 2.025-1.946.897-.514 1.977-.826 3.239-.932v-1.866a.82.82 0 0 1 .226-.586.754.754 0 0 1 .574-.24.8.8 0 0 1 .587.24c.159.159.239.355.239.586v1.84c1.742.07 3.288.364 4.639.88.498.177.747.532.747 1.066 0 .284-.099.542-.294.772a.961.961 0 0 1-.773.347 1.22 1.22 0 0 1-.427-.107 13.125 13.125 0 0 0-3.892-.72v6.345c1.28.302 2.342.631 3.185.987.845.355 1.551.883 2.12 1.586.569.702.853 1.63.853 2.786 0 .942-.253 1.795-.76 2.558zm-9.65-9.41c.596.427 1.47.791 2.626 1.093v-5.864c-1.067.142-1.92.466-2.56.972-.64.507-.959 1.17-.959 1.987 0 .782.297 1.385.893 1.812zm8.01 6.692c0-.694-.315-1.23-.946-1.614-.63-.382-1.568-.74-2.812-1.079v5.732c2.506-.178 3.759-1.19 3.759-3.04z" class="colorfff svgShape"></path></svg>